<svg xmlns="http://www.w3.org/2000/svg" xmlns:xlink="http://www.w3.org/1999/xlink" width="500" zoomAndPan="magnify" viewBox="0 0 375 149.999998" height="200" preserveAspectRatio="xMidYMid meet" version="1.0"><defs><clipPath id="6cc230089f"><path d="M 57 60 L 62 60 L 62 69 L 57 69 Z M 57 60 " clip-rule="nonzero"/></clipPath><clipPath id="3e85bfc8d6"><path d="M 64.28125 8.8125 L 110.109375 62.386719 L 66.222656 99.925781 L 20.394531 46.351562 Z M 64.28125 8.8125 " clip-rule="nonzero"/></clipPath><clipPath id="e103b2dc4a"><path d="M 64.28125 8.8125 L 110.109375 62.386719 L 66.222656 99.925781 L 20.394531 46.351562 Z M 64.28125 8.8125 " clip-rule="nonzero"/></clipPath><clipPath id="d5b1486ab5"><path d="M 51 47 L 65 47 L 65 77 L 51 77 Z M 51 47 " clip-rule="nonzero"/></clipPath><clipPath id="3844acce2e"><path d="M 64.28125 8.8125 L 110.109375 62.386719 L 66.222656 99.925781 L 20.394531 46.351562 Z M 64.28125 8.8125 " clip-rule="nonzero"/></clipPath><clipPath id="5fdf86d4c6"><path d="M 64.28125 8.8125 L 110.109375 62.386719 L 66.222656 99.925781 L 20.394531 46.351562 Z M 64.28125 8.8125 " clip-rule="nonzero"/></clipPath><clipPath id="2fc53932dc"><path d="M 67 60 L 70 60 L 70 63 L 67 63 Z M 67 60 " clip-rule="nonzero"/></clipPath><clipPath id="7676098b88"><path d="M 64.28125 8.8125 L 110.109375 62.386719 L 66.222656 99.925781 L 20.394531 46.351562 Z M 64.28125 8.8125 " clip-rule="nonzero"/></clipPath><clipPath id="5b22e5f2e7"><path d="M 64.28125 8.8125 L 110.109375 62.386719 L 66.222656 99.925781 L 20.394531 46.351562 Z M 64.28125 8.8125 " clip-rule="nonzero"/></clipPath><clipPath id="4eb73a8d7f"><path d="M 75 51 L 81 51 L 81 60 L 75 60 Z M 75 51 " clip-rule="nonzero"/></clipPath><clipPath id="57abe6b92a"><path d="M 64.28125 8.8125 L 110.109375 62.386719 L 66.222656 99.925781 L 20.394531 46.351562 Z M 64.28125 8.8125 " clip-rule="nonzero"/></clipPath><clipPath id="a2f81ed2f9"><path d="M 64.28125 8.8125 L 110.109375 62.386719 L 66.222656 99.925781 L 20.394531 46.351562 Z M 64.28125 8.8125 " clip-rule="nonzero"/></clipPath><clipPath id="8e53a00c3e"><path d="M 60 42 L 79 42 L 79 57 L 60 57 Z M 60 42 " clip-rule="nonzero"/></clipPath><clipPath id="983159cec5"><path d="M 64.28125 8.8125 L 110.109375 62.386719 L 66.222656 99.925781 L 20.394531 46.351562 Z M 64.28125 8.8125 " clip-rule="nonzero"/></clipPath><clipPath id="1a627d17e7"><path d="M 64.28125 8.8125 L 110.109375 62.386719 L 66.222656 99.925781 L 20.394531 46.351562 Z M 64.28125 8.8125 " clip-rule="nonzero"/></clipPath><clipPath id="3a25c8482a"><path d="M 50 44 L 74 44 L 74 57 L 50 57 Z M 50 44 " clip-rule="nonzero"/></clipPath><clipPath id="e865fa22fa"><path d="M 64.28125 8.8125 L 110.109375 62.386719 L 66.222656 99.925781 L 20.394531 46.351562 Z M 64.28125 8.8125 " clip-rule="nonzero"/></clipPath><clipPath id="448918f77e"><path d="M 64.28125 8.8125 L 110.109375 62.386719 L 66.222656 99.925781 L 20.394531 46.351562 Z M 64.28125 8.8125 " clip-rule="nonzero"/></clipPath><clipPath id="bf69400207"><path d="M 35 50 L 64 50 L 64 91 L 35 91 Z M 35 50 " clip-rule="nonzero"/></clipPath><clipPath id="b850f4d41c"><path d="M 64.28125 8.8125 L 110.109375 62.386719 L 66.222656 99.925781 L 20.394531 46.351562 Z M 64.28125 8.8125 " clip-rule="nonzero"/></clipPath><clipPath id="1699a24044"><path d="M 64.28125 8.8125 L 110.109375 62.386719 L 66.222656 99.925781 L 20.394531 46.351562 Z M 64.28125 8.8125 " clip-rule="nonzero"/></clipPath><clipPath id="b3acc5032f"><path d="M 64 78 L 73 78 L 73 96 L 64 96 Z M 64 78 " clip-rule="nonzero"/></clipPath><clipPath id="73cf6ac6ed"><path d="M 64.28125 8.8125 L 110.109375 62.386719 L 66.222656 99.925781 L 20.394531 46.351562 Z M 64.28125 8.8125 " clip-rule="nonzero"/></clipPath><clipPath id="0f5914a081"><path d="M 64.28125 8.8125 L 110.109375 62.386719 L 66.222656 99.925781 L 20.394531 46.351562 Z M 64.28125 8.8125 " clip-rule="nonzero"/></clipPath><clipPath id="2da78efc1c"><path d="M 59 71 L 77 71 L 77 91 L 59 91 Z M 59 71 " clip-rule="nonzero"/></clipPath><clipPath id="bd9c48e61b"><path d="M 64.28125 8.8125 L 110.109375 62.386719 L 66.222656 99.925781 L 20.394531 46.351562 Z M 64.28125 8.8125 " clip-rule="nonzero"/></clipPath><clipPath id="160d3549f8"><path d="M 64.28125 8.8125 L 110.109375 62.386719 L 66.222656 99.925781 L 20.394531 46.351562 Z M 64.28125 8.8125 " clip-rule="nonzero"/></clipPath><clipPath id="ce9718fa25"><path d="M 47 38 L 81 38 L 81 99 L 47 99 Z M 47 38 " clip-rule="nonzero"/></clipPath><clipPath id="f4aeb2c0b7"><path d="M 64.28125 8.8125 L 110.109375 62.386719 L 66.222656 99.925781 L 20.394531 46.351562 Z M 64.28125 8.8125 " clip-rule="nonzero"/></clipPath><clipPath id="3b1c6c01b2"><path d="M 64.28125 8.8125 L 110.109375 62.386719 L 66.222656 99.925781 L 20.394531 46.351562 Z M 64.28125 8.8125 " clip-rule="nonzero"/></clipPath><clipPath id="7e71cb44ff"><path d="M 82 49 L 86 49 L 86 52 L 82 52 Z M 82 49 " clip-rule="nonzero"/></clipPath><clipPath id="4c810848c6"><path d="M 64.28125 8.8125 L 110.109375 62.386719 L 66.222656 99.925781 L 20.394531 46.351562 Z M 64.28125 8.8125 " clip-rule="nonzero"/></clipPath><clipPath id="430a7f55f1"><path d="M 64.28125 8.8125 L 110.109375 62.386719 L 66.222656 99.925781 L 20.394531 46.351562 Z M 64.28125 8.8125 " clip-rule="nonzero"/></clipPath><clipPath id="9b7ba61fea"><path d="M 79 42 L 86 42 L 86 48 L 79 48 Z M 79 42 " clip-rule="nonzero"/></clipPath><clipPath id="f02259c758"><path d="M 64.28125 8.8125 L 110.109375 62.386719 L 66.222656 99.925781 L 20.394531 46.351562 Z M 64.28125 8.8125 " clip-rule="nonzero"/></clipPath><clipPath id="3a56e8ea01"><path d="M 64.28125 8.8125 L 110.109375 62.386719 L 66.222656 99.925781 L 20.394531 46.351562 Z M 64.28125 8.8125 " clip-rule="nonzero"/></clipPath><clipPath id="770f7471c3"><path d="M 58 32 L 79 32 L 79 41 L 58 41 Z M 58 32 " clip-rule="nonzero"/></clipPath><clipPath id="8496d1098c"><path d="M 64.28125 8.8125 L 110.109375 62.386719 L 66.222656 99.925781 L 20.394531 46.351562 Z M 64.28125 8.8125 " clip-rule="nonzero"/></clipPath><clipPath id="ccf35f65b7"><path d="M 64.28125 8.8125 L 110.109375 62.386719 L 66.222656 99.925781 L 20.394531 46.351562 Z M 64.28125 8.8125 " clip-rule="nonzero"/></clipPath><clipPath id="ded2ceb28d"><path d="M 72 28 L 79 28 L 79 31 L 72 31 Z M 72 28 " clip-rule="nonzero"/></clipPath><clipPath id="da19198baa"><path d="M 64.28125 8.8125 L 110.109375 62.386719 L 66.222656 99.925781 L 20.394531 46.351562 Z M 64.28125 8.8125 " clip-rule="nonzero"/></clipPath><clipPath id="5d4e0adfe0"><path d="M 64.28125 8.8125 L 110.109375 62.386719 L 66.222656 99.925781 L 20.394531 46.351562 Z M 64.28125 8.8125 " clip-rule="nonzero"/></clipPath><clipPath id="9e36cc3677"><path d="M 34 46 L 55 46 L 55 75 L 34 75 Z M 34 46 " clip-rule="nonzero"/></clipPath><clipPath id="9a6daeb0e4"><path d="M 64.28125 8.8125 L 110.109375 62.386719 L 66.222656 99.925781 L 20.394531 46.351562 Z M 64.28125 8.8125 " clip-rule="nonzero"/></clipPath><clipPath id="d3d5481b86"><path d="M 64.28125 8.8125 L 110.109375 62.386719 L 66.222656 99.925781 L 20.394531 46.351562 Z M 64.28125 8.8125 " clip-rule="nonzero"/></clipPath><clipPath id="e587fe9a0e"><path d="M 64 27 L 85 27 L 85 42 L 64 42 Z M 64 27 " clip-rule="nonzero"/></clipPath><clipPath id="04fe36aba4"><path d="M 64.28125 8.8125 L 110.109375 62.386719 L 66.222656 99.925781 L 20.394531 46.351562 Z M 64.28125 8.8125 " clip-rule="nonzero"/></clipPath><clipPath id="148718fbb8"><path d="M 64.28125 8.8125 L 110.109375 62.386719 L 66.222656 99.925781 L 20.394531 46.351562 Z M 64.28125 8.8125 " clip-rule="nonzero"/></clipPath><clipPath id="dcf29691d1"><path d="M 65 31 L 83 31 L 83 36 L 65 36 Z M 65 31 " clip-rule="nonzero"/></clipPath><clipPath id="30d04b9e0d"><path d="M 64.28125 8.8125 L 110.109375 62.386719 L 66.222656 99.925781 L 20.394531 46.351562 Z M 64.28125 8.8125 " clip-rule="nonzero"/></clipPath><clipPath id="c302c7d055"><path d="M 64.28125 8.8125 L 110.109375 62.386719 L 66.222656 99.925781 L 20.394531 46.351562 Z M 64.28125 8.8125 " clip-rule="nonzero"/></clipPath><clipPath id="50d4672c31"><path d="M 46 26 L 76 26 L 76 66 L 46 66 Z M 46 26 " clip-rule="nonzero"/></clipPath><clipPath id="19317bfca1"><path d="M 64.28125 8.8125 L 110.109375 62.386719 L 66.222656 99.925781 L 20.394531 46.351562 Z M 64.28125 8.8125 " clip-rule="nonzero"/></clipPath><clipPath id="d31adc0c90"><path d="M 64.28125 8.8125 L 110.109375 62.386719 L 66.222656 99.925781 L 20.394531 46.351562 Z M 64.28125 8.8125 " clip-rule="nonzero"/></clipPath><clipPath id="9ca3d4ece7"><path d="M 38 28 L 52 28 L 52 70 L 38 70 Z M 38 28 " clip-rule="nonzero"/></clipPath><clipPath id="db4b984d94"><path d="M 64.28125 8.8125 L 110.109375 62.386719 L 66.222656 99.925781 L 20.394531 46.351562 Z M 64.28125 8.8125 " clip-rule="nonzero"/></clipPath><clipPath id="7867cadb3e"><path d="M 64.28125 8.8125 L 110.109375 62.386719 L 66.222656 99.925781 L 20.394531 46.351562 Z M 64.28125 8.8125 " clip-rule="nonzero"/></clipPath><clipPath id="91c16115d7"><path d="M 47 34 L 74 34 L 74 62 L 47 62 Z M 47 34 " clip-rule="nonzero"/></clipPath><clipPath id="1125624aff"><path d="M 64.28125 8.8125 L 110.109375 62.386719 L 66.222656 99.925781 L 20.394531 46.351562 Z M 64.28125 8.8125 " clip-rule="nonzero"/></clipPath><clipPath id="0b9ce3e750"><path d="M 64.28125 8.8125 L 110.109375 62.386719 L 66.222656 99.925781 L 20.394531 46.351562 Z M 64.28125 8.8125 " clip-rule="nonzero"/></clipPath><clipPath id="67001844f9"><path d="M 46 30 L 66 30 L 66 61 L 46 61 Z M 46 30 " clip-rule="nonzero"/></clipPath><clipPath id="3613161111"><path d="M 64.28125 8.8125 L 110.109375 62.386719 L 66.222656 99.925781 L 20.394531 46.351562 Z M 64.28125 8.8125 " clip-rule="nonzero"/></clipPath><clipPath id="45fe3d0d58"><path d="M 64.28125 8.8125 L 110.109375 62.386719 L 66.222656 99.925781 L 20.394531 46.351562 Z M 64.28125 8.8125 " clip-rule="nonzero"/></clipPath><clipPath id="3cf0ec1d35"><path d="M 43 22 L 54 22 L 54 61 L 43 61 Z M 43 22 " clip-rule="nonzero"/></clipPath><clipPath id="17fcdb7964"><path d="M 64.28125 8.8125 L 110.109375 62.386719 L 66.222656 99.925781 L 20.394531 46.351562 Z M 64.28125 8.8125 " clip-rule="nonzero"/></clipPath><clipPath id="b6cae1186a"><path d="M 64.28125 8.8125 L 110.109375 62.386719 L 66.222656 99.925781 L 20.394531 46.351562 Z M 64.28125 8.8125 " clip-rule="nonzero"/></clipPath><clipPath id="d548f85597"><path d="M 66 20 L 71 20 L 71 28 L 66 28 Z M 66 20 " clip-rule="nonzero"/></clipPath><clipPath id="069ad6951f"><path d="M 64.28125 8.8125 L 110.109375 62.386719 L 66.222656 99.925781 L 20.394531 46.351562 Z M 64.28125 8.8125 " clip-rule="nonzero"/></clipPath><clipPath id="3994aa8153"><path d="M 64.28125 8.8125 L 110.109375 62.386719 L 66.222656 99.925781 L 20.394531 46.351562 Z M 64.28125 8.8125 " clip-rule="nonzero"/></clipPath><clipPath id="d8f71c462c"><path d="M 49 21 L 66 21 L 66 37 L 49 37 Z M 49 21 " clip-rule="nonzero"/></clipPath><clipPath id="259d410929"><path d="M 64.28125 8.8125 L 110.109375 62.386719 L 66.222656 99.925781 L 20.394531 46.351562 Z M 64.28125 8.8125 " clip-rule="nonzero"/></clipPath><clipPath id="4ac74016f1"><path d="M 64.28125 8.8125 L 110.109375 62.386719 L 66.222656 99.925781 L 20.394531 46.351562 Z M 64.28125 8.8125 " clip-rule="nonzero"/></clipPath><clipPath id="b1bda27e09"><path d="M 56 81 L 61 81 L 61 90 L 56 90 Z M 56 81 " clip-rule="nonzero"/></clipPath><clipPath id="30a1b5ef4f"><path d="M 49.199219 50.492188 L 99.050781 100.34375 L 58.214844 141.179688 L 8.363281 91.328125 Z M 49.199219 50.492188 " clip-rule="nonzero"/></clipPath><clipPath id="1ace8c931f"><path d="M 57.898438 141.179688 L 8.050781 91.328125 L 48.882812 50.492188 L 98.734375 100.34375 Z M 57.898438 141.179688 " clip-rule="nonzero"/></clipPath><clipPath id="d0e1f8addc"><path d="M 54 73 L 68 73 L 68 103 L 54 103 Z M 54 73 " clip-rule="nonzero"/></clipPath><clipPath id="3b2082c962"><path d="M 49.199219 50.492188 L 99.050781 100.34375 L 58.214844 141.179688 L 8.363281 91.328125 Z M 49.199219 50.492188 " clip-rule="nonzero"/></clipPath><clipPath id="111de83489"><path d="M 57.898438 141.179688 L 8.050781 91.328125 L 48.882812 50.492188 L 98.734375 100.34375 Z M 57.898438 141.179688 " clip-rule="nonzero"/></clipPath><clipPath id="aa713b3d8a"><path d="M 48 87 L 51 87 L 51 91 L 48 91 Z M 48 87 " clip-rule="nonzero"/></clipPath><clipPath id="77adb979f0"><path d="M 49.199219 50.492188 L 99.050781 100.34375 L 58.214844 141.179688 L 8.363281 91.328125 Z M 49.199219 50.492188 " clip-rule="nonzero"/></clipPath><clipPath id="e1c30a469d"><path d="M 57.898438 141.179688 L 8.050781 91.328125 L 48.882812 50.492188 L 98.734375 100.34375 Z M 57.898438 141.179688 " clip-rule="nonzero"/></clipPath><clipPath id="1acec6a62b"><path d="M 38 91 L 44 91 L 44 100 L 38 100 Z M 38 91 " clip-rule="nonzero"/></clipPath><clipPath id="352cae3d80"><path d="M 49.199219 50.492188 L 99.050781 100.34375 L 58.214844 141.179688 L 8.363281 91.328125 Z M 49.199219 50.492188 " clip-rule="nonzero"/></clipPath><clipPath id="e71b5dfd19"><path d="M 57.898438 141.179688 L 8.050781 91.328125 L 48.882812 50.492188 L 98.734375 100.34375 Z M 57.898438 141.179688 " clip-rule="nonzero"/></clipPath><clipPath id="38abe67e75"><path d="M 39 94 L 59 94 L 59 108 L 39 108 Z M 39 94 " clip-rule="nonzero"/></clipPath><clipPath id="13b68f5ddc"><path d="M 49.199219 50.492188 L 99.050781 100.34375 L 58.214844 141.179688 L 8.363281 91.328125 Z M 49.199219 50.492188 " clip-rule="nonzero"/></clipPath><clipPath id="7c4fe90002"><path d="M 57.898438 141.179688 L 8.050781 91.328125 L 48.882812 50.492188 L 98.734375 100.34375 Z M 57.898438 141.179688 " clip-rule="nonzero"/></clipPath><clipPath id="058bed9d29"><path d="M 44 93 L 69 93 L 69 106 L 44 106 Z M 44 93 " clip-rule="nonzero"/></clipPath><clipPath id="ab3653b283"><path d="M 49.199219 50.492188 L 99.050781 100.34375 L 58.214844 141.179688 L 8.363281 91.328125 Z M 49.199219 50.492188 " clip-rule="nonzero"/></clipPath><clipPath id="531a09dff2"><path d="M 57.898438 141.179688 L 8.050781 91.328125 L 48.882812 50.492188 L 98.734375 100.34375 Z M 57.898438 141.179688 " clip-rule="nonzero"/></clipPath><clipPath id="97ed1c9aea"><path d="M 52 60 L 84 60 L 84 97 L 52 97 Z M 52 60 " clip-rule="nonzero"/></clipPath><clipPath id="adc543e083"><path d="M 49.199219 50.492188 L 99.050781 100.34375 L 58.214844 141.179688 L 8.363281 91.328125 Z M 49.199219 50.492188 " clip-rule="nonzero"/></clipPath><clipPath id="a794371a76"><path d="M 57.898438 141.179688 L 8.050781 91.328125 L 48.882812 50.492188 L 98.734375 100.34375 Z M 57.898438 141.179688 " clip-rule="nonzero"/></clipPath><clipPath id="ebd49dab5c"><path d="M 43 55 L 53 55 L 53 72 L 43 72 Z M 43 55 " clip-rule="nonzero"/></clipPath><clipPath id="10b5f83656"><path d="M 49.199219 50.492188 L 99.050781 100.34375 L 58.214844 141.179688 L 8.363281 91.328125 Z M 49.199219 50.492188 " clip-rule="nonzero"/></clipPath><clipPath id="3b9084bfd4"><path d="M 57.898438 141.179688 L 8.050781 91.328125 L 48.882812 50.492188 L 98.734375 100.34375 Z M 57.898438 141.179688 " clip-rule="nonzero"/></clipPath><clipPath id="2afd8f6b77"><path d="M 39 60 L 58 60 L 58 79 L 39 79 Z M 39 60 " clip-rule="nonzero"/></clipPath><clipPath id="6907daf7b9"><path d="M 49.199219 50.492188 L 99.050781 100.34375 L 58.214844 141.179688 L 8.363281 91.328125 Z M 49.199219 50.492188 " clip-rule="nonzero"/></clipPath><clipPath id="22cac2c0aa"><path d="M 57.898438 141.179688 L 8.050781 91.328125 L 48.882812 50.492188 L 98.734375 100.34375 Z M 57.898438 141.179688 " clip-rule="nonzero"/></clipPath><clipPath id="1a7039c641"><path d="M 38 51 L 71 51 L 71 112 L 38 112 Z M 38 51 " clip-rule="nonzero"/></clipPath><clipPath id="6052280782"><path d="M 49.199219 50.492188 L 99.050781 100.34375 L 58.214844 141.179688 L 8.363281 91.328125 Z M 49.199219 50.492188 " clip-rule="nonzero"/></clipPath><clipPath id="04cb76eb9e"><path d="M 57.898438 141.179688 L 8.050781 91.328125 L 48.882812 50.492188 L 98.734375 100.34375 Z M 57.898438 141.179688 " clip-rule="nonzero"/></clipPath><clipPath id="30d4a54b6d"><path d="M 33 99 L 37 99 L 37 103 L 33 103 Z M 33 99 " clip-rule="nonzero"/></clipPath><clipPath id="2a7495a70a"><path d="M 49.199219 50.492188 L 99.050781 100.34375 L 58.214844 141.179688 L 8.363281 91.328125 Z M 49.199219 50.492188 " clip-rule="nonzero"/></clipPath><clipPath id="6571afb5ec"><path d="M 57.898438 141.179688 L 8.050781 91.328125 L 48.882812 50.492188 L 98.734375 100.34375 Z M 57.898438 141.179688 " clip-rule="nonzero"/></clipPath><clipPath id="106dd662ac"><path d="M 34 104 L 41 104 L 41 109 L 34 109 Z M 34 104 " clip-rule="nonzero"/></clipPath><clipPath id="90f8c86887"><path d="M 49.199219 50.492188 L 99.050781 100.34375 L 58.214844 141.179688 L 8.363281 91.328125 Z M 49.199219 50.492188 " clip-rule="nonzero"/></clipPath><clipPath id="2c91ebde18"><path d="M 57.898438 141.179688 L 8.050781 91.328125 L 48.882812 50.492188 L 98.734375 100.34375 Z M 57.898438 141.179688 " clip-rule="nonzero"/></clipPath><clipPath id="3351dd07fe"><path d="M 41 110 L 62 110 L 62 118 L 41 118 Z M 41 110 " clip-rule="nonzero"/></clipPath><clipPath id="39a72546d2"><path d="M 49.199219 50.492188 L 99.050781 100.34375 L 58.214844 141.179688 L 8.363281 91.328125 Z M 49.199219 50.492188 " clip-rule="nonzero"/></clipPath><clipPath id="f2a19f0dd3"><path d="M 57.898438 141.179688 L 8.050781 91.328125 L 48.882812 50.492188 L 98.734375 100.34375 Z M 57.898438 141.179688 " clip-rule="nonzero"/></clipPath><clipPath id="05468789f1"><path d="M 41 119 L 48 119 L 48 123 L 41 123 Z M 41 119 " clip-rule="nonzero"/></clipPath><clipPath id="c23df3e913"><path d="M 49.199219 50.492188 L 99.050781 100.34375 L 58.214844 141.179688 L 8.363281 91.328125 Z M 49.199219 50.492188 " clip-rule="nonzero"/></clipPath><clipPath id="3d3a756f5d"><path d="M 57.898438 141.179688 L 8.050781 91.328125 L 48.882812 50.492188 L 98.734375 100.34375 Z M 57.898438 141.179688 " clip-rule="nonzero"/></clipPath><clipPath id="101d81014b"><path d="M 62 74 L 85 74 L 85 102 L 62 102 Z M 62 74 " clip-rule="nonzero"/></clipPath><clipPath id="9b54663863"><path d="M 49.199219 50.492188 L 99.050781 100.34375 L 58.214844 141.179688 L 8.363281 91.328125 Z M 49.199219 50.492188 " clip-rule="nonzero"/></clipPath><clipPath id="1c9739f681"><path d="M 57.898438 141.179688 L 8.050781 91.328125 L 48.882812 50.492188 L 98.734375 100.34375 Z M 57.898438 141.179688 " clip-rule="nonzero"/></clipPath><clipPath id="441a50ed34"><path d="M 35 109 L 56 109 L 56 124 L 35 124 Z M 35 109 " clip-rule="nonzero"/></clipPath><clipPath id="66182e1247"><path d="M 49.199219 50.492188 L 99.050781 100.34375 L 58.214844 141.179688 L 8.363281 91.328125 Z M 49.199219 50.492188 " clip-rule="nonzero"/></clipPath><clipPath id="7d8b8bfcf9"><path d="M 57.898438 141.179688 L 8.050781 91.328125 L 48.882812 50.492188 L 98.734375 100.34375 Z M 57.898438 141.179688 " clip-rule="nonzero"/></clipPath><clipPath id="aad0db1c5a"><path d="M 37 116 L 55 116 L 55 120 L 37 120 Z M 37 116 " clip-rule="nonzero"/></clipPath><clipPath id="7ae67be351"><path d="M 49.199219 50.492188 L 99.050781 100.34375 L 58.214844 141.179688 L 8.363281 91.328125 Z M 49.199219 50.492188 " clip-rule="nonzero"/></clipPath><clipPath id="584260ced4"><path d="M 57.898438 141.179688 L 8.050781 91.328125 L 48.882812 50.492188 L 98.734375 100.34375 Z M 57.898438 141.179688 " clip-rule="nonzero"/></clipPath><clipPath id="f29181161a"><path d="M 45 83 L 73 83 L 73 124 L 45 124 Z M 45 83 " clip-rule="nonzero"/></clipPath><clipPath id="e32bde26bc"><path d="M 49.199219 50.492188 L 99.050781 100.34375 L 58.214844 141.179688 L 8.363281 91.328125 Z M 49.199219 50.492188 " clip-rule="nonzero"/></clipPath><clipPath id="820124a1aa"><path d="M 57.898438 141.179688 L 8.050781 91.328125 L 48.882812 50.492188 L 98.734375 100.34375 Z M 57.898438 141.179688 " clip-rule="nonzero"/></clipPath><clipPath id="e4a6c965d9"><path d="M 66 79 L 82 79 L 82 120 L 66 120 Z M 66 79 " clip-rule="nonzero"/></clipPath><clipPath id="34505baa41"><path d="M 49.199219 50.492188 L 99.050781 100.34375 L 58.214844 141.179688 L 8.363281 91.328125 Z M 49.199219 50.492188 " clip-rule="nonzero"/></clipPath><clipPath id="8402123c76"><path d="M 57.898438 141.179688 L 8.050781 91.328125 L 48.882812 50.492188 L 98.734375 100.34375 Z M 57.898438 141.179688 " clip-rule="nonzero"/></clipPath><clipPath id="cd46f79543"><path d="M 46 87 L 72 87 L 72 116 L 46 116 Z M 46 87 " clip-rule="nonzero"/></clipPath><clipPath id="6cd2f60058"><path d="M 49.199219 50.492188 L 99.050781 100.34375 L 58.214844 141.179688 L 8.363281 91.328125 Z M 49.199219 50.492188 " clip-rule="nonzero"/></clipPath><clipPath id="d9274490ee"><path d="M 57.898438 141.179688 L 8.050781 91.328125 L 48.882812 50.492188 L 98.734375 100.34375 Z M 57.898438 141.179688 " clip-rule="nonzero"/></clipPath><clipPath id="ee0af53968"><path d="M 54 88 L 72 88 L 72 120 L 54 120 Z M 54 88 " clip-rule="nonzero"/></clipPath><clipPath id="ae4ceae9b1"><path d="M 49.199219 50.492188 L 99.050781 100.34375 L 58.214844 141.179688 L 8.363281 91.328125 Z M 49.199219 50.492188 " clip-rule="nonzero"/></clipPath><clipPath id="1ff0f62e0a"><path d="M 57.898438 141.179688 L 8.050781 91.328125 L 48.882812 50.492188 L 98.734375 100.34375 Z M 57.898438 141.179688 " clip-rule="nonzero"/></clipPath><clipPath id="91568817f6"><path d="M 67 87 L 77 87 L 77 127 L 67 127 Z M 67 87 " clip-rule="nonzero"/></clipPath><clipPath id="df9105a9ea"><path d="M 49.199219 50.492188 L 99.050781 100.34375 L 58.214844 141.179688 L 8.363281 91.328125 Z M 49.199219 50.492188 " clip-rule="nonzero"/></clipPath><clipPath id="d7ecdc57b6"><path d="M 57.898438 141.179688 L 8.050781 91.328125 L 48.882812 50.492188 L 98.734375 100.34375 Z M 57.898438 141.179688 " clip-rule="nonzero"/></clipPath><clipPath id="7faddcf8e1"><path d="M 50 123 L 55 123 L 55 130 L 50 130 Z M 50 123 " clip-rule="nonzero"/></clipPath><clipPath id="243972179f"><path d="M 49.199219 50.492188 L 99.050781 100.34375 L 58.214844 141.179688 L 8.363281 91.328125 Z M 49.199219 50.492188 " clip-rule="nonzero"/></clipPath><clipPath id="bce3629a5b"><path d="M 57.898438 141.179688 L 8.050781 91.328125 L 48.882812 50.492188 L 98.734375 100.34375 Z M 57.898438 141.179688 " clip-rule="nonzero"/></clipPath><clipPath id="ee07584155"><path d="M 55 111 L 71 111 L 71 129 L 55 129 Z M 55 111 " clip-rule="nonzero"/></clipPath><clipPath id="d0ad9f4d92"><path d="M 49.199219 50.492188 L 99.050781 100.34375 L 58.214844 141.179688 L 8.363281 91.328125 Z M 49.199219 50.492188 " clip-rule="nonzero"/></clipPath><clipPath id="c8db5a51ab"><path d="M 57.898438 141.179688 L 8.050781 91.328125 L 48.882812 50.492188 L 98.734375 100.34375 Z M 57.898438 141.179688 " clip-rule="nonzero"/></clipPath><clipPath id="82911ee669"><path d="M 95.230469 101.660156 L 124.058594 101.660156 L 124.058594 123.46875 L 95.230469 123.46875 Z M 95.230469 101.660156 " clip-rule="nonzero"/></clipPath><clipPath id="98edfa759b"><path d="M 95 54 L 124.0625 54 L 124.0625 77 L 95 77 Z M 95 54 " clip-rule="nonzero"/></clipPath><clipPath id="72a4d07ffe"><path d="M 91.8125 72 L 96 72 L 96 106 L 91.8125 106 Z M 91.8125 72 " clip-rule="nonzero"/></clipPath><clipPath id="addd52f7f2"><path d="M 263.21875 54.363281 L 283.46875 54.363281 L 283.46875 123.363281 L 263.21875 123.363281 Z M 263.21875 54.363281 " clip-rule="nonzero"/></clipPath><clipPath id="904b8b885a"><path d="M 258.792969 21.257812 L 288.042969 21.257812 L 288.042969 50.507812 L 258.792969 50.507812 Z M 258.792969 21.257812 " clip-rule="nonzero"/></clipPath><clipPath id="734dc976bb"><path d="M 216.699219 50.339844 L 251.199219 50.339844 L 251.199219 123.839844 L 216.699219 123.839844 Z M 216.699219 50.339844 " clip-rule="nonzero"/></clipPath><clipPath id="05b04795a0"><path d="M 131.910156 50.953125 L 204.660156 50.953125 L 204.660156 123.703125 L 131.910156 123.703125 Z M 131.910156 50.953125 " clip-rule="nonzero"/></clipPath><clipPath id="6707348c42"><path d="M 295.105469 55.707031 L 349.855469 55.707031 L 349.855469 123.957031 L 295.105469 123.957031 Z M 295.105469 55.707031 " clip-rule="nonzero"/></clipPath></defs><g clip-path="url(#6cc230089f)"><g clip-path="url(#3e85bfc8d6)"><g clip-path="url(#e103b2dc4a)"><path fill="#4cfce1" d="M 59.261719 68.761719 C 59.261719 68.761719 56.660156 66.234375 57.453125 62.597656 C 58.253906 58.921875 61.304688 59.835938 61.457031 61.648438 C 61.539062 62.609375 60.125 62.398438 59.300781 64.703125 C 58.480469 67.007812 59.261719 68.761719 59.261719 68.761719 " fill-opacity="1" fill-rule="nonzero"/></g></g></g><g clip-path="url(#d5b1486ab5)"><g clip-path="url(#3844acce2e)"><g clip-path="url(#5fdf86d4c6)"><path fill="#4cfce1" d="M 55.859375 65.804688 C 58.355469 71.589844 62.457031 75.871094 62.773438 76.199219 C 47.78125 63.101562 49.613281 52.527344 55.113281 48.882812 C 60.621094 45.246094 64.136719 48.683594 64.707031 51.542969 C 65.277344 54.402344 62.382812 56.539062 61.824219 56.335938 C 61.265625 56.136719 61.203125 54.539062 59.464844 53.746094 C 57.730469 52.957031 56.40625 54.28125 56.40625 54.28125 C 56.40625 54.28125 57.859375 54.347656 58.851562 55.730469 C 59.839844 57.113281 58.585938 58.910156 57.660156 58.730469 C 56.738281 58.550781 53.261719 59.78125 55.859375 65.804688 " fill-opacity="1" fill-rule="nonzero"/></g></g></g><g clip-path="url(#2fc53932dc)"><g clip-path="url(#7676098b88)"><g clip-path="url(#5b22e5f2e7)"><path fill="#4cfce1" d="M 69.699219 60.757812 C 70.136719 61.265625 70.078125 62.03125 69.570312 62.464844 C 69.066406 62.898438 68.300781 62.835938 67.863281 62.328125 C 67.425781 61.816406 67.484375 61.050781 67.988281 60.617188 C 68.496094 60.183594 69.261719 60.246094 69.699219 60.757812 " fill-opacity="1" fill-rule="nonzero"/></g></g></g><g clip-path="url(#4eb73a8d7f)"><g clip-path="url(#57abe6b92a)"><g clip-path="url(#a2f81ed2f9)"><path fill="#00c6f7" d="M 79.023438 58.257812 C 77.445312 60.183594 75.917969 60.140625 75.292969 59.414062 C 74.671875 58.6875 75.339844 58.113281 75.621094 57.09375 C 75.789062 56.492188 75.613281 55.839844 75.441406 55.410156 L 75.945312 55.183594 C 76.253906 55.84375 76.628906 56.265625 77.1875 56.335938 C 78.457031 56.496094 79.199219 54.363281 78.542969 51.699219 L 79.246094 51.902344 C 79.570312 52.464844 81.203125 55.601562 79.023438 58.257812 " fill-opacity="1" fill-rule="nonzero"/></g></g></g><g clip-path="url(#8e53a00c3e)"><g clip-path="url(#983159cec5)"><g clip-path="url(#1a627d17e7)"><path fill="#4cfce1" d="M 78.542969 51.699219 C 79.199219 54.363281 78.457031 56.496094 77.1875 56.335938 C 76.628906 56.265625 76.253906 55.84375 75.945312 55.183594 C 74.933594 53.058594 74.59375 48.488281 70.753906 45.546875 C 65.894531 41.828125 61.222656 42.84375 60.910156 42.914062 C 61.226562 42.773438 66.347656 40.613281 73.105469 44.695312 C 76.351562 46.65625 77.976562 49.378906 78.542969 51.699219 " fill-opacity="1" fill-rule="nonzero"/></g></g></g><g clip-path="url(#3a25c8482a)"><g clip-path="url(#e865fa22fa)"><g clip-path="url(#448918f77e)"><path fill="#4cfce1" d="M 73.453125 56.136719 C 72.207031 57.75 70.425781 56.648438 70.21875 54.816406 C 70.226562 54.382812 70.1875 53.882812 70.070312 53.308594 C 69.425781 50.078125 64.695312 45.785156 58.835938 46.140625 C 55.402344 46.347656 51.855469 48.585938 50.429688 52.5 L 50.394531 52.488281 C 51.988281 46.46875 60.042969 42.488281 66.722656 45.113281 C 73.402344 47.742188 74.78125 54.421875 73.453125 56.136719 " fill-opacity="1" fill-rule="nonzero"/></g></g></g><g clip-path="url(#bf69400207)"><g clip-path="url(#b850f4d41c)"><g clip-path="url(#1699a24044)"><path fill="#4cfce1" d="M 58.738281 80.132812 C 60.800781 83.335938 62.46875 86.628906 63.464844 90.15625 C 63.308594 89.722656 61.203125 84.089844 53.804688 76.632812 C 46.101562 68.863281 34.183594 62.472656 35.175781 51.925781 C 35.175781 51.925781 35.113281 51.523438 35.054688 50.917969 C 35.882812 55.449219 40.53125 59.980469 45.082031 64.40625 C 48.410156 67.636719 52.234375 71.574219 54.882812 74.730469 C 54.882812 74.734375 54.886719 74.738281 54.890625 74.742188 C 56.265625 76.527344 57.566406 78.316406 58.738281 80.132812 " fill-opacity="1" fill-rule="nonzero"/></g></g></g><g clip-path="url(#b3acc5032f)"><g clip-path="url(#73cf6ac6ed)"><g clip-path="url(#0f5914a081)"><path fill="#00c6f7" d="M 72.394531 93.464844 C 72.28125 94.046875 72.136719 94.5625 71.96875 95.011719 C 73.632812 87.40625 65.886719 80.507812 65.886719 80.507812 L 65.847656 80.535156 C 64.863281 79.148438 64.085938 78.457031 64.085938 78.457031 C 71.597656 81.78125 73.28125 88.925781 72.394531 93.464844 " fill-opacity="1" fill-rule="nonzero"/></g></g></g><g clip-path="url(#2da78efc1c)"><g clip-path="url(#bd9c48e61b)"><g clip-path="url(#160d3549f8)"><path fill="#00c6f7" d="M 74.347656 82.628906 C 77.207031 86.875 76.222656 90.335938 76.222656 90.335938 C 75.117188 84.878906 72.945312 84.703125 67.582031 79.785156 C 62.21875 74.867188 59.925781 71.398438 59.925781 71.398438 C 61.695312 73.46875 64.101562 76.167969 68.789062 78.945312 C 73.476562 81.722656 74.347656 82.628906 74.347656 82.628906 " fill-opacity="1" fill-rule="nonzero"/></g></g></g><g clip-path="url(#ce9718fa25)"><g clip-path="url(#f4aeb2c0b7)"><g clip-path="url(#3b1c6c01b2)"><path fill="#00c6f7" d="M 50.714844 65.691406 C 49.957031 64.191406 49.277344 62.683594 48.707031 61.167969 C 46.046875 52.804688 48.929688 43.378906 58.46875 39.855469 C 62.828125 38.25 66.863281 38.449219 70.234375 39.511719 C 74.722656 40.933594 78.035156 43.894531 79.351562 46.144531 C 81.664062 50.085938 79.191406 51.8125 79.191406 51.8125 C 79.191406 51.8125 79.210938 51.839844 79.246094 51.902344 L 78.542969 51.699219 C 77.976562 49.378906 76.351562 46.65625 73.105469 44.695312 C 66.347656 40.613281 61.226562 42.773438 60.910156 42.914062 C 61.222656 42.84375 65.894531 41.828125 70.753906 45.546875 C 74.59375 48.488281 74.933594 53.058594 75.945312 55.183594 L 75.441406 55.410156 C 75.324219 55.117188 75.210938 54.925781 75.210938 54.925781 C 74.867188 60.265625 70.566406 59.964844 69.78125 58.601562 C 69.136719 57.480469 70.183594 56.808594 70.21875 54.816406 C 70.425781 56.648438 72.207031 57.75 73.453125 56.136719 C 74.78125 54.421875 73.402344 47.742188 66.722656 45.113281 C 60.042969 42.488281 51.988281 46.46875 50.394531 52.488281 L 50.429688 52.5 C 49.414062 55.265625 49.464844 58.875 51.367188 63.195312 C 51.972656 64.574219 52.628906 65.828125 53.3125 66.984375 C 58.230469 77.324219 68.199219 86.679688 66.386719 98.898438 L 66.324219 98.890625 C 66.539062 97.3125 66.597656 92.882812 62.578125 85.371094 C 61.648438 83.628906 60.5 81.765625 59.25 79.808594 C 56.472656 75.457031 53.195312 70.640625 50.714844 65.691406 " fill-opacity="1" fill-rule="nonzero"/></g></g></g><g clip-path="url(#7e71cb44ff)"><g clip-path="url(#4c810848c6)"><g clip-path="url(#430a7f55f1)"><path fill="#00c6f7" d="M 84.824219 49.953125 C 85.238281 50.429688 85.183594 51.148438 84.703125 51.558594 C 84.226562 51.964844 83.511719 51.90625 83.101562 51.425781 C 82.691406 50.945312 82.742188 50.226562 83.21875 49.820312 C 83.699219 49.410156 84.414062 49.46875 84.824219 49.953125 " fill-opacity="1" fill-rule="nonzero"/></g></g></g><g clip-path="url(#9b7ba61fea)"><g clip-path="url(#f02259c758)"><g clip-path="url(#3a56e8ea01)"><path fill="#00c6f7" d="M 83 43.3125 C 85.507812 44.574219 85.628906 47.175781 83.972656 47.429688 C 82.3125 47.6875 82.394531 46.546875 81.496094 44.988281 C 80.597656 43.429688 79.015625 43.328125 79.015625 43.328125 C 79.015625 43.328125 81.144531 42.382812 83 43.3125 " fill-opacity="1" fill-rule="nonzero"/></g></g></g><g clip-path="url(#770f7471c3)"><g clip-path="url(#8496d1098c)"><g clip-path="url(#ccf35f65b7)"><path fill="#4cfce1" d="M 72.222656 35.230469 C 69.382812 34.320312 64.648438 34.175781 58.855469 36.859375 C 60.96875 35.703125 63.113281 34.808594 65 34.164062 C 67.097656 33.449219 68.878906 33.042969 69.972656 32.925781 C 73.59375 32.542969 77.613281 33.46875 78.765625 37.238281 C 79.796875 40.609375 75.417969 42.332031 74.441406 39.386719 C 74.441406 39.386719 75.839844 38.71875 75.054688 37.0625 C 74.761719 36.445312 73.773438 35.726562 72.230469 35.230469 C 72.230469 35.230469 72.226562 35.230469 72.222656 35.230469 " fill-opacity="1" fill-rule="nonzero"/></g></g></g><g clip-path="url(#ded2ceb28d)"><g clip-path="url(#da19198baa)"><g clip-path="url(#5d4e0adfe0)"><path fill="#00c6f7" d="M 76.882812 28.695312 C 78.800781 28.121094 79.804688 29.558594 78.035156 30.265625 C 76.265625 30.96875 74.511719 30.011719 72.707031 30.75 C 72.707031 30.75 73.78125 30.042969 75.078125 29.417969 C 75.664062 29.136719 76.285156 28.871094 76.882812 28.695312 " fill-opacity="1" fill-rule="nonzero"/></g></g></g><g clip-path="url(#9e36cc3677)"><g clip-path="url(#9a6daeb0e4)"><g clip-path="url(#d3d5481b86)"><path fill="#0087f4" d="M 54.882812 74.730469 C 52.234375 71.574219 48.410156 67.636719 45.082031 64.40625 C 40.53125 59.980469 35.882812 55.449219 35.054688 50.917969 C 34.953125 49.867188 34.851562 48.207031 35.074219 46.964844 C 35.429688 45.015625 35.910156 49.011719 39.546875 54.78125 C 42.957031 60.199219 46.988281 65 50.800781 69.648438 C 52.207031 71.355469 53.582031 73.042969 54.882812 74.730469 " fill-opacity="1" fill-rule="nonzero"/></g></g></g><g clip-path="url(#e587fe9a0e)"><g clip-path="url(#04fe36aba4)"><g clip-path="url(#148718fbb8)"><path fill="#0087f4" d="M 65.339844 33.609375 C 70.199219 31.125 75.308594 32.0625 78.28125 33.96875 C 81.261719 35.878906 83.238281 35.257812 82.945312 33.566406 C 82.65625 31.875 80.511719 31.28125 74.890625 31.242188 C 74.1875 31.238281 73.5 31.273438 72.839844 31.339844 L 72.707031 30.75 C 74.511719 30.011719 76.265625 30.96875 78.035156 30.265625 C 79.804688 29.558594 78.800781 28.121094 76.882812 28.695312 C 76.285156 28.871094 75.664062 29.136719 75.078125 29.417969 L 74.792969 28.8125 C 75.515625 28.425781 76.25 27.847656 76.984375 27.609375 C 78.449219 27.128906 79.835938 28.078125 80.136719 28.984375 C 80.429688 29.898438 78.804688 30.078125 79.230469 30.683594 C 79.652344 31.292969 80.117188 30.597656 81.789062 30.917969 C 83.457031 31.234375 84.675781 33.054688 84.324219 34.953125 C 83.976562 36.851562 82.132812 37.796875 81.664062 37.472656 C 81.195312 37.148438 81.71875 36.410156 80.917969 35.980469 C 80.117188 35.550781 79.601562 36.132812 79.601562 36.132812 C 82.332031 38.984375 78.703125 42.285156 76.609375 41.75 C 74.511719 41.214844 74.441406 39.386719 74.441406 39.386719 C 75.417969 42.332031 79.796875 40.609375 78.765625 37.238281 C 77.613281 33.46875 73.59375 32.542969 69.972656 32.925781 C 68.878906 33.042969 67.097656 33.449219 65 34.164062 L 64.800781 33.859375 C 64.804688 33.855469 64.808594 33.855469 64.8125 33.851562 C 64.902344 33.8125 64.980469 33.765625 65.054688 33.71875 C 65.128906 33.675781 65.21875 33.628906 65.324219 33.578125 L 65.339844 33.609375 " fill-opacity="1" fill-rule="nonzero"/></g></g></g><g clip-path="url(#dcf29691d1)"><g clip-path="url(#30d04b9e0d)"><g clip-path="url(#c302c7d055)"><path fill="#00c6f7" d="M 82.945312 33.566406 C 83.238281 35.257812 81.261719 35.878906 78.28125 33.96875 C 75.308594 32.0625 70.199219 31.125 65.339844 33.609375 L 65.324219 33.578125 C 66.449219 32.996094 69.292969 31.710938 72.839844 31.339844 C 73.5 31.273438 74.1875 31.238281 74.890625 31.242188 C 80.511719 31.28125 82.65625 31.875 82.945312 33.566406 " fill-opacity="1" fill-rule="nonzero"/></g></g></g><g clip-path="url(#50d4672c31)"><g clip-path="url(#19317bfca1)"><g clip-path="url(#d31adc0c90)"><path fill="#0087f4" d="M 48.386719 60.960938 C 48.386719 60.949219 48.378906 60.9375 48.375 60.925781 C 47.988281 59.96875 47.652344 58.996094 47.363281 58.011719 C 47.359375 58.011719 47.359375 58.007812 47.359375 58.003906 C 45.457031 51.527344 45.746094 44.664062 49.785156 38.941406 C 55.667969 30.613281 63.304688 28.398438 65.164062 28.597656 C 67.023438 28.800781 66.867188 29.859375 66.867188 29.859375 C 68.335938 30.109375 69.285156 29.195312 70.621094 27.714844 C 71.957031 26.234375 73.820312 26.671875 73.929688 27.699219 C 74.035156 28.726562 72.671875 28.871094 72.671875 28.871094 C 73.359375 29.394531 74.074219 29.203125 74.792969 28.8125 L 75.078125 29.417969 C 73.78125 30.042969 72.707031 30.75 72.707031 30.75 L 72.839844 31.339844 C 69.292969 31.710938 66.449219 32.996094 65.324219 33.578125 C 65.21875 33.628906 65.128906 33.675781 65.054688 33.71875 C 67 32.457031 65.445312 29.058594 60.945312 31.042969 C 56.261719 33.113281 48.28125 38.195312 46.964844 50.28125 C 46.617188 53.492188 47.191406 56.792969 48.320312 60.09375 C 48.441406 60.449219 48.574219 60.808594 48.707031 61.167969 C 49.277344 62.683594 49.957031 64.191406 50.714844 65.691406 C 49.828125 64.171875 49.042969 62.585938 48.386719 60.960938 " fill-opacity="1" fill-rule="nonzero"/></g></g></g><g clip-path="url(#9ca3d4ece7)"><g clip-path="url(#db4b984d94)"><g clip-path="url(#7867cadb3e)"><path fill="#00c6f7" d="M 51.375 69.171875 C 51.375 69.171875 42.070312 57.472656 39.46875 47.671875 C 36.863281 37.871094 38.0625 33.871094 40.757812 30.789062 C 43.121094 28.082031 44.59375 28.171875 44.117188 30.984375 C 43.941406 31.558594 43.792969 32.164062 43.671875 32.800781 C 41.320312 41.753906 43.769531 57.699219 51.375 69.171875 " fill-opacity="1" fill-rule="nonzero"/></g></g></g><g clip-path="url(#91c16115d7)"><g clip-path="url(#1125624aff)"><g clip-path="url(#0b9ce3e750)"><path fill="#0087f4" d="M 48.34375 60.082031 C 48.09375 59.335938 45.488281 51.207031 50.175781 44.238281 C 52.273438 41.113281 55.53125 38.664062 58.855469 36.859375 C 64.648438 34.175781 69.382812 34.320312 72.222656 35.230469 C 72.226562 35.230469 72.230469 35.230469 72.230469 35.230469 C 73.820312 35.914062 74.230469 37.484375 73.714844 38.3125 C 73.121094 39.253906 72.03125 39.945312 70.242188 39.488281 L 70.234375 39.511719 C 66.863281 38.449219 62.828125 38.25 58.46875 39.855469 C 48.929688 43.378906 46.046875 52.804688 48.707031 61.167969 C 48.574219 60.808594 48.441406 60.449219 48.320312 60.09375 L 48.34375 60.082031 " fill-opacity="1" fill-rule="nonzero"/></g></g></g><g clip-path="url(#67001844f9)"><g clip-path="url(#3613161111)"><g clip-path="url(#45fe3d0d58)"><path fill="#00c6f7" d="M 58.855469 36.859375 C 55.53125 38.664062 52.273438 41.113281 50.175781 44.238281 C 45.488281 51.207031 48.09375 59.335938 48.34375 60.082031 L 48.320312 60.09375 C 47.191406 56.792969 46.617188 53.492188 46.964844 50.28125 C 48.28125 38.195312 56.261719 33.113281 60.945312 31.042969 C 65.445312 29.058594 67 32.457031 65.054688 33.71875 C 64.925781 33.785156 64.84375 33.832031 64.8125 33.851562 C 64.808594 33.855469 64.804688 33.855469 64.800781 33.859375 L 65 34.164062 C 63.113281 34.808594 60.96875 35.703125 58.855469 36.859375 " fill-opacity="1" fill-rule="nonzero"/></g></g></g><g clip-path="url(#3cf0ec1d35)"><g clip-path="url(#17fcdb7964)"><g clip-path="url(#b6cae1186a)"><path fill="#0087f4" d="M 47.363281 58.011719 C 47.652344 58.996094 47.988281 59.96875 48.375 60.925781 C 45.734375 54.644531 42.667969 43.042969 43.460938 34.363281 C 43.507812 33.820312 43.582031 33.300781 43.671875 32.800781 C 43.714844 32.636719 43.757812 32.476562 43.804688 32.320312 C 43.949219 31.824219 44.054688 31.378906 44.117188 30.984375 C 46.179688 24.292969 51.980469 21.933594 53.515625 23.144531 C 55.285156 24.539062 49.601562 26.003906 47.128906 32.679688 C 45.15625 37.988281 43.710938 46.929688 47.359375 58.003906 C 47.359375 58.007812 47.359375 58.011719 47.363281 58.011719 " fill-opacity="1" fill-rule="nonzero"/></g></g></g><g clip-path="url(#d548f85597)"><g clip-path="url(#069ad6951f)"><g clip-path="url(#3994aa8153)"><path fill="#0087f4" d="M 70.601562 24.464844 C 69.5625 26.617188 66.339844 27.039062 66.179688 27.054688 C 66.289062 26.992188 67.859375 26.042969 67.757812 24.441406 C 67.65625 22.785156 67.296875 21.050781 68.722656 20.804688 C 70.148438 20.554688 71.667969 22.261719 70.601562 24.464844 " fill-opacity="1" fill-rule="nonzero"/></g></g></g><g clip-path="url(#d8f71c462c)"><g clip-path="url(#259d410929)"><g clip-path="url(#4ac74016f1)"><path fill="#0087f4" d="M 64.402344 21.425781 C 65.101562 21.410156 66.871094 25.132812 63.214844 27.617188 C 59.558594 30.097656 52.921875 27.820312 49.085938 36.921875 C 49.085938 36.921875 49.5 32.753906 52.890625 29.207031 C 56.277344 25.660156 60.214844 25.007812 62.136719 23.429688 C 64.0625 21.847656 63.710938 21.4375 64.402344 21.425781 " fill-opacity="1" fill-rule="nonzero"/></g></g></g><g clip-path="url(#b1bda27e09)"><g clip-path="url(#30a1b5ef4f)"><g clip-path="url(#1ace8c931f)"><path fill="#4cfce1" d="M 58.246094 81.019531 C 58.246094 81.019531 61.035156 83.339844 60.527344 87.027344 C 60.015625 90.75 56.902344 90.078125 56.609375 88.285156 C 56.457031 87.332031 57.878906 87.433594 58.523438 85.070312 C 59.164062 82.710938 58.246094 81.019531 58.246094 81.019531 " fill-opacity="1" fill-rule="nonzero"/></g></g></g><g clip-path="url(#d0e1f8addc)"><g clip-path="url(#3b2082c962)"><g clip-path="url(#111de83489)"><path fill="#4cfce1" d="M 61.867188 83.703125 C 58.929688 78.132812 54.507812 74.179688 54.167969 73.878906 C 70.132812 85.769531 69.128906 96.457031 63.925781 100.515625 C 58.71875 104.570312 54.945312 101.417969 54.15625 98.613281 C 53.367188 95.804688 56.085938 93.449219 56.65625 93.605469 C 57.226562 93.761719 57.417969 95.351562 59.210938 96.007812 C 61.003906 96.660156 62.21875 95.234375 62.21875 95.234375 C 62.21875 95.234375 60.765625 95.285156 59.667969 93.980469 C 58.574219 92.679688 59.6875 90.789062 60.621094 90.894531 C 61.554688 91.003906 64.925781 89.507812 61.867188 83.703125 " fill-opacity="1" fill-rule="nonzero"/></g></g></g><g clip-path="url(#aa713b3d8a)"><g clip-path="url(#77adb979f0)"><g clip-path="url(#e1c30a469d)"><path fill="#4cfce1" d="M 48.460938 89.8125 C 47.988281 89.339844 47.984375 88.570312 48.457031 88.097656 C 48.929688 87.628906 49.695312 87.628906 50.167969 88.105469 C 50.644531 88.578125 50.648438 89.347656 50.179688 89.816406 C 49.707031 90.289062 48.9375 90.289062 48.460938 89.8125 " fill-opacity="1" fill-rule="nonzero"/></g></g></g><g clip-path="url(#1acec6a62b)"><g clip-path="url(#352cae3d80)"><g clip-path="url(#e71b5dfd19)"><path fill="#00c6f7" d="M 39.359375 93.027344 C 40.785156 90.984375 42.3125 90.910156 42.988281 91.585938 C 43.667969 92.261719 43.046875 92.886719 42.84375 93.921875 C 42.722656 94.539062 42.949219 95.175781 43.152344 95.589844 L 42.667969 95.851562 C 42.308594 95.21875 41.902344 94.828125 41.339844 94.800781 C 40.0625 94.738281 39.488281 96.925781 40.347656 99.53125 L 39.632812 99.382812 C 39.265625 98.847656 37.394531 95.84375 39.359375 93.027344 " fill-opacity="1" fill-rule="nonzero"/></g></g></g><g clip-path="url(#38abe67e75)"><g clip-path="url(#13b68f5ddc)"><g clip-path="url(#7c4fe90002)"><path fill="#4cfce1" d="M 40.347656 99.53125 C 39.488281 96.925781 40.0625 94.738281 41.339844 94.800781 C 41.902344 94.828125 42.308594 95.21875 42.667969 95.851562 C 43.839844 97.894531 44.539062 102.425781 48.59375 105.058594 C 53.726562 108.386719 58.304688 107.011719 58.609375 106.917969 C 58.308594 107.082031 53.371094 109.632812 46.3125 106.089844 C 42.925781 104.386719 41.097656 101.796875 40.347656 99.53125 " fill-opacity="1" fill-rule="nonzero"/></g></g></g><g clip-path="url(#058bed9d29)"><g clip-path="url(#ab3653b283)"><g clip-path="url(#531a09dff2)"><path fill="#4cfce1" d="M 45.078125 94.710938 C 46.195312 93.003906 48.058594 93.964844 48.40625 95.773438 C 48.433594 96.210938 48.511719 96.703125 48.671875 97.265625 C 49.566406 100.4375 54.617188 104.351562 60.429688 103.539062 C 63.835938 103.066406 67.199219 100.558594 68.316406 96.546875 L 68.351562 96.558594 C 67.230469 102.683594 59.507812 107.277344 52.644531 105.175781 C 45.78125 103.074219 43.890625 96.523438 45.078125 94.710938 " fill-opacity="1" fill-rule="nonzero"/></g></g></g><g clip-path="url(#97ed1c9aea)"><g clip-path="url(#adc543e083)"><g clip-path="url(#a794371a76)"><path fill="#4cfce1" d="M 57.886719 69.644531 C 55.578125 66.609375 53.660156 63.457031 52.394531 60.015625 C 52.585938 60.4375 55.121094 65.890625 63.074219 72.75 C 71.359375 79.894531 83.738281 85.339844 83.566406 95.9375 C 83.566406 95.9375 83.660156 96.332031 83.765625 96.929688 C 82.589844 92.476562 77.605469 88.320312 72.722656 84.261719 C 69.15625 81.296875 65.03125 77.667969 62.148438 74.726562 C 62.148438 74.726562 62.144531 74.722656 62.140625 74.71875 C 60.628906 73.046875 59.195312 71.363281 57.886719 69.644531 " fill-opacity="1" fill-rule="nonzero"/></g></g></g><g clip-path="url(#ebd49dab5c)"><g clip-path="url(#10b5f83656)"><g clip-path="url(#3b9084bfd4)"><path fill="#00c6f7" d="M 43.234375 57.414062 C 43.304688 56.824219 43.40625 56.300781 43.539062 55.839844 C 42.46875 63.550781 50.726562 69.824219 50.726562 69.824219 L 50.765625 69.792969 C 51.855469 71.101562 52.683594 71.730469 52.683594 71.730469 C 44.9375 69 42.703125 62.007812 43.234375 57.414062 " fill-opacity="1" fill-rule="nonzero"/></g></g></g><g clip-path="url(#2afd8f6b77)"><g clip-path="url(#6907daf7b9)"><g clip-path="url(#22cac2c0aa)"><path fill="#00c6f7" d="M 42.128906 68.367188 C 38.945312 64.355469 39.660156 60.828125 39.660156 60.828125 C 41.1875 66.183594 43.367188 66.191406 49.097656 70.675781 C 54.824219 75.164062 57.382812 78.445312 57.382812 78.445312 C 55.453125 76.515625 52.847656 74.015625 47.957031 71.609375 C 43.066406 69.203125 42.128906 68.367188 42.128906 68.367188 " fill-opacity="1" fill-rule="nonzero"/></g></g></g><g clip-path="url(#1a7039c641)"><g clip-path="url(#6052280782)"><g clip-path="url(#04cb76eb9e)"><path fill="#00c6f7" d="M 67.007812 83.417969 C 67.878906 84.851562 68.671875 86.304688 69.359375 87.769531 L 69.359375 87.773438 C 72.664062 95.902344 70.519531 105.523438 61.285156 109.777344 C 57.0625 111.71875 53.023438 111.832031 49.582031 111.035156 C 44.992188 109.964844 41.464844 107.273438 39.972656 105.132812 C 37.363281 101.382812 39.691406 99.46875 39.691406 99.46875 C 39.691406 99.46875 39.671875 99.441406 39.632812 99.382812 L 40.347656 99.53125 C 41.097656 101.796875 42.925781 104.386719 46.3125 106.089844 C 53.371094 109.632812 58.308594 107.082031 58.609375 106.917969 C 58.304688 107.011719 53.726562 108.386719 48.59375 105.058594 C 44.539062 102.425781 43.839844 97.894531 42.667969 95.851562 L 43.152344 95.589844 C 43.292969 95.875 43.421875 96.054688 43.421875 96.054688 C 43.351562 90.703125 47.660156 90.667969 48.546875 91.96875 C 49.277344 93.035156 48.285156 93.785156 48.40625 95.773438 C 48.058594 93.964844 46.195312 93.003906 45.078125 94.710938 C 43.890625 96.523438 45.78125 103.074219 52.644531 105.175781 C 59.507812 107.277344 67.230469 102.683594 68.351562 96.558594 L 68.316406 96.546875 C 69.109375 93.710938 68.78125 90.117188 66.550781 85.957031 C 65.839844 84.628906 65.089844 83.429688 64.316406 82.332031 C 58.609375 72.40625 47.941406 63.851562 48.804688 51.527344 L 48.863281 51.53125 C 48.773438 53.121094 49.058594 57.539062 53.648438 64.71875 C 54.710938 66.382812 56 68.152344 57.398438 70.007812 C 60.507812 74.128906 64.148438 78.675781 67.007812 83.417969 " fill-opacity="1" fill-rule="nonzero"/></g></g></g><g clip-path="url(#30d4a54b6d)"><g clip-path="url(#2a7495a70a)"><g clip-path="url(#6571afb5ec)"><path fill="#00c6f7" d="M 34.222656 101.761719 C 33.773438 101.3125 33.773438 100.59375 34.21875 100.148438 C 34.660156 99.707031 35.378906 99.710938 35.824219 100.15625 C 36.273438 100.605469 36.277344 101.324219 35.832031 101.765625 C 35.386719 102.210938 34.667969 102.207031 34.222656 101.761719 " fill-opacity="1" fill-rule="nonzero"/></g></g></g><g clip-path="url(#106dd662ac)"><g clip-path="url(#90f8c86887)"><g clip-path="url(#2c91ebde18)"><path fill="#00c6f7" d="M 36.554688 108.234375 C 33.960938 107.175781 33.632812 104.589844 35.269531 104.207031 C 36.902344 103.820312 36.90625 104.964844 37.925781 106.449219 C 38.945312 107.933594 40.527344 107.910156 40.527344 107.910156 C 40.527344 107.910156 38.480469 109.019531 36.554688 108.234375 " fill-opacity="1" fill-rule="nonzero"/></g></g></g><g clip-path="url(#3351dd07fe)"><g clip-path="url(#39a72546d2)"><g clip-path="url(#f2a19f0dd3)"><path fill="#4cfce1" d="M 47.929688 115.460938 C 50.832031 116.144531 55.5625 115.921875 61.132812 112.796875 C 59.113281 114.109375 57.046875 115.167969 55.214844 115.957031 C 53.179688 116.835938 51.433594 117.378906 50.351562 117.582031 C 46.769531 118.242188 42.691406 117.632812 41.25 113.964844 C 39.957031 110.683594 44.191406 108.625 45.394531 111.488281 C 45.394531 111.488281 44.050781 112.261719 44.964844 113.847656 C 45.304688 114.441406 46.34375 115.082031 47.921875 115.457031 C 47.925781 115.460938 47.925781 115.457031 47.929688 115.460938 " fill-opacity="1" fill-rule="nonzero"/></g></g></g><g clip-path="url(#05468789f1)"><g clip-path="url(#c23df3e913)"><g clip-path="url(#3d3a756f5d)"><path fill="#00c6f7" d="M 43.792969 122.335938 C 41.925781 123.054688 40.808594 121.703125 42.519531 120.859375 C 44.230469 120.019531 46.054688 120.839844 47.796875 119.960938 C 47.796875 119.960938 46.78125 120.75 45.535156 121.476562 C 44.972656 121.800781 44.371094 122.113281 43.792969 122.335938 " fill-opacity="1" fill-rule="nonzero"/></g></g></g><g clip-path="url(#101d81014b)"><g clip-path="url(#9b54663863)"><g clip-path="url(#1c9739f681)"><path fill="#0087f4" d="M 62.148438 74.726562 C 65.03125 77.667969 69.15625 81.296875 72.722656 84.261719 C 77.605469 88.320312 82.589844 92.476562 83.765625 96.929688 C 83.949219 97.96875 84.179688 99.617188 84.050781 100.871094 C 83.851562 102.84375 83.0625 98.898438 78.988281 93.425781 C 75.167969 88.292969 70.777344 83.816406 66.613281 79.480469 C 65.078125 77.886719 63.578125 76.308594 62.148438 74.726562 " fill-opacity="1" fill-rule="nonzero"/></g></g></g><g clip-path="url(#441a50ed34)"><g clip-path="url(#66182e1247)"><g clip-path="url(#7d8b8bfcf9)"><path fill="#0087f4" d="M 54.917969 116.539062 C 50.265625 119.394531 45.101562 118.855469 41.988281 117.1875 C 38.867188 115.515625 36.949219 116.289062 37.367188 117.949219 C 37.789062 119.613281 39.972656 120.039062 45.582031 119.640625 C 46.28125 119.59375 46.960938 119.503906 47.617188 119.382812 L 47.796875 119.960938 C 46.054688 120.839844 44.230469 120.019531 42.519531 120.859375 C 40.808594 121.703125 41.925781 123.054688 43.792969 122.335938 C 44.371094 122.113281 44.972656 121.800781 45.535156 121.476562 L 45.867188 122.054688 C 45.171875 122.496094 44.488281 123.132812 43.777344 123.425781 C 42.351562 124.019531 40.894531 123.179688 40.527344 122.300781 C 40.160156 121.414062 41.769531 121.109375 41.296875 120.535156 C 40.828125 119.960938 40.417969 120.6875 38.726562 120.503906 C 37.039062 120.3125 35.683594 118.59375 35.886719 116.675781 C 36.085938 114.753906 37.847656 113.667969 38.34375 113.953125 C 38.835938 114.242188 38.371094 115.019531 39.203125 115.386719 C 40.035156 115.75 40.503906 115.128906 40.503906 115.128906 C 37.558594 112.5 40.921875 108.925781 43.050781 109.300781 C 45.183594 109.667969 45.394531 111.488281 45.394531 111.488281 C 44.191406 108.625 39.957031 110.683594 41.25 113.964844 C 42.691406 117.632812 46.769531 118.242188 50.351562 117.582031 C 51.433594 117.378906 53.179688 116.835938 55.214844 115.957031 L 55.4375 116.246094 C 55.433594 116.253906 55.429688 116.253906 55.425781 116.257812 C 55.339844 116.304688 55.261719 116.355469 55.191406 116.410156 C 55.121094 116.453125 55.035156 116.511719 54.9375 116.570312 L 54.917969 116.539062 " fill-opacity="1" fill-rule="nonzero"/></g></g></g><g clip-path="url(#aad0db1c5a)"><g clip-path="url(#7ae67be351)"><g clip-path="url(#584260ced4)"><path fill="#00c6f7" d="M 37.367188 117.949219 C 36.949219 116.289062 38.867188 115.515625 41.988281 117.1875 C 45.101562 118.855469 50.265625 119.394531 54.917969 116.539062 L 54.9375 116.570312 C 53.859375 117.234375 51.125 118.738281 47.617188 119.382812 C 46.960938 119.503906 46.28125 119.59375 45.582031 119.640625 C 39.972656 120.039062 37.789062 119.613281 37.367188 117.949219 " fill-opacity="1" fill-rule="nonzero"/></g></g></g><g clip-path="url(#f29181161a)"><g clip-path="url(#e32bde26bc)"><g clip-path="url(#820124a1aa)"><path fill="#0087f4" d="M 69.695312 87.953125 C 69.699219 87.964844 69.703125 87.976562 69.710938 87.988281 C 70.167969 88.914062 70.582031 89.855469 70.945312 90.8125 C 70.949219 90.8125 70.949219 90.816406 70.949219 90.820312 C 73.347656 97.128906 73.59375 103.996094 70.007812 110.015625 C 64.792969 118.773438 57.351562 121.578125 55.480469 121.519531 C 53.613281 121.460938 53.6875 120.398438 53.6875 120.398438 C 52.203125 120.261719 51.328125 121.246094 50.109375 122.824219 C 48.894531 124.402344 47 124.113281 46.816406 123.097656 C 46.628906 122.082031 47.976562 121.832031 47.976562 121.832031 C 47.25 121.363281 46.554688 121.613281 45.867188 122.054688 L 45.535156 121.476562 C 46.78125 120.75 47.796875 119.960938 47.796875 119.960938 L 47.617188 119.382812 C 51.125 118.738281 53.859375 117.234375 54.9375 116.570312 C 55.035156 116.511719 55.121094 116.453125 55.191406 116.410156 C 53.351562 117.816406 55.164062 121.085938 59.496094 118.753906 C 64.007812 116.328125 71.570312 110.644531 71.941406 98.492188 C 72.039062 95.261719 71.210938 92.015625 69.828125 88.8125 C 69.679688 88.46875 69.519531 88.121094 69.359375 87.773438 L 69.359375 87.769531 C 68.671875 86.304688 67.878906 84.851562 67.007812 83.417969 C 68.011719 84.863281 68.914062 86.382812 69.695312 87.953125 " fill-opacity="1" fill-rule="nonzero"/></g></g></g><g clip-path="url(#e4a6c965d9)"><g clip-path="url(#34505baa41)"><g clip-path="url(#8402123c76)"><path fill="#00c6f7" d="M 66.078125 79.996094 C 66.078125 79.996094 76.261719 90.941406 79.621094 100.507812 C 82.976562 110.078125 82.09375 114.160156 79.644531 117.441406 C 77.496094 120.324219 76.023438 120.351562 76.28125 117.507812 C 76.410156 116.921875 76.511719 116.308594 76.582031 115.664062 C 78.230469 106.550781 74.550781 90.84375 66.078125 79.996094 " fill-opacity="1" fill-rule="nonzero"/></g></g></g><g clip-path="url(#cd46f79543)"><g clip-path="url(#6cd2f60058)"><g clip-path="url(#d9274490ee)"><path fill="#0087f4" d="M 69.804688 88.824219 C 70.113281 89.550781 73.34375 97.453125 69.210938 104.765625 C 67.363281 108.042969 64.304688 110.738281 61.132812 112.796875 C 55.5625 115.921875 50.832031 116.144531 47.929688 115.460938 C 47.925781 115.457031 47.925781 115.460938 47.921875 115.457031 C 46.285156 114.902344 45.753906 113.367188 46.203125 112.5 C 46.71875 111.519531 47.757812 110.742188 49.574219 111.0625 L 49.582031 111.035156 C 53.023438 111.832031 57.0625 111.71875 61.285156 109.777344 C 70.519531 105.523438 72.664062 95.902344 69.359375 87.773438 C 69.519531 88.121094 69.679688 88.46875 69.828125 88.8125 L 69.804688 88.824219 " fill-opacity="1" fill-rule="nonzero"/></g></g></g><g clip-path="url(#ee0af53968)"><g clip-path="url(#ae4ceae9b1)"><g clip-path="url(#1ff0f62e0a)"><path fill="#00c6f7" d="M 61.132812 112.796875 C 64.304688 110.738281 67.363281 108.042969 69.210938 104.765625 C 73.34375 97.453125 70.113281 89.550781 69.804688 88.824219 L 69.828125 88.8125 C 71.210938 92.015625 72.039062 95.261719 71.941406 98.492188 C 71.570312 110.644531 64.007812 116.328125 59.496094 118.753906 C 55.164062 121.085938 53.351562 117.816406 55.191406 116.410156 C 55.316406 116.332031 55.394531 116.277344 55.425781 116.257812 C 55.429688 116.253906 55.433594 116.253906 55.4375 116.246094 L 55.214844 115.957031 C 57.046875 115.167969 59.113281 114.109375 61.132812 112.796875 " fill-opacity="1" fill-rule="nonzero"/></g></g></g><g clip-path="url(#91568817f6)"><g clip-path="url(#df9105a9ea)"><g clip-path="url(#d7ecdc57b6)"><path fill="#0087f4" d="M 70.945312 90.8125 C 70.582031 89.855469 70.167969 88.914062 69.710938 87.988281 C 72.832031 94.042969 76.789062 105.375 76.671875 114.089844 C 76.664062 114.632812 76.632812 115.15625 76.582031 115.664062 C 76.554688 115.828125 76.519531 115.992188 76.488281 116.148438 C 76.382812 116.65625 76.3125 117.109375 76.28125 117.507812 C 74.742188 124.335938 69.144531 127.140625 67.519531 126.054688 C 65.648438 124.800781 71.199219 122.898438 73.148438 116.050781 C 74.699219 110.605469 75.445312 101.578125 70.949219 90.820312 C 70.949219 90.816406 70.949219 90.8125 70.945312 90.8125 " fill-opacity="1" fill-rule="nonzero"/></g></g></g><g clip-path="url(#7faddcf8e1)"><g clip-path="url(#243972179f)"><g clip-path="url(#bce3629a5b)"><path fill="#0087f4" d="M 50.382812 126.066406 C 51.25 123.835938 54.433594 123.167969 54.589844 123.136719 C 54.488281 123.210938 52.996094 124.277344 53.222656 125.867188 C 53.449219 127.511719 53.941406 129.210938 52.539062 129.570312 C 51.140625 129.929688 49.492188 128.34375 50.382812 126.066406 " fill-opacity="1" fill-rule="nonzero"/></g></g></g><g clip-path="url(#ee07584155)"><g clip-path="url(#d0ad9f4d92)"><g clip-path="url(#c8db5a51ab)"><path fill="#0087f4" d="M 56.796875 128.613281 C 56.105469 128.683594 54.050781 125.109375 57.5 122.347656 C 60.953125 119.589844 67.746094 121.347656 70.863281 111.976562 C 70.863281 111.976562 70.773438 116.164062 67.671875 119.960938 C 64.570312 123.757812 60.695312 124.714844 58.902344 126.441406 C 57.105469 128.164062 57.488281 128.546875 56.796875 128.613281 " fill-opacity="1" fill-rule="nonzero"/></g></g></g><path fill="#0087f4" d="M 92.765625 105.289062 C 104.601562 105.289062 114.195312 98.046875 114.195312 89.105469 C 114.195312 80.167969 104.601562 72.921875 92.765625 72.921875 " fill-opacity="1" fill-rule="nonzero"/><path fill="#00c6f7" d="M 92.765625 105.480469 L 92.765625 105.101562 C 104.476562 105.101562 114.007812 97.925781 114.007812 89.105469 C 114.007812 80.289062 104.476562 73.113281 92.765625 73.113281 L 92.765625 72.734375 C 104.6875 72.734375 114.386719 80.078125 114.386719 89.105469 C 114.386719 98.136719 104.6875 105.480469 92.765625 105.480469 " fill-opacity="1" fill-rule="nonzero"/><g clip-path="url(#82911ee669)"><path fill="#4cfce1" d="M 103.574219 101.863281 C 103.574219 101.863281 102.4375 116.144531 110.402344 119.191406 C 118.367188 122.234375 124.058594 113.859375 124.058594 113.859375 C 124.058594 113.859375 118.367188 127.566406 103.574219 122.234375 C 103.574219 122.234375 95.609375 117.285156 95.230469 103.578125 C 95.230469 103.578125 97.886719 100.910156 103.574219 101.863281 " fill-opacity="1" fill-rule="nonzero"/></g><g clip-path="url(#98edfa759b)"><path fill="#4cfce1" d="M 103.574219 76.425781 C 103.574219 76.425781 102.4375 62.144531 110.402344 59.097656 C 118.367188 56.050781 124.058594 64.429688 124.058594 64.429688 C 124.058594 64.429688 118.367188 50.722656 103.574219 56.050781 C 103.574219 56.050781 95.609375 61.003906 95.230469 74.710938 C 95.230469 74.710938 97.886719 77.375 103.574219 76.425781 " fill-opacity="1" fill-rule="nonzero"/></g><path fill="#00c6f7" d="M 92.667969 92.488281 L 92.667969 88.960938 L 92.804688 89.019531 C 98.203125 91.449219 113.375 85.167969 113.527344 85.105469 L 113.601562 85.277344 C 112.976562 85.539062 98.4375 91.558594 92.859375 89.253906 L 92.859375 92.203125 C 93.933594 91.808594 101.460938 89.390625 112.832031 94.789062 L 112.753906 94.960938 C 100.585938 89.183594 92.878906 92.398438 92.800781 92.429688 L 92.667969 92.488281 " fill-opacity="1" fill-rule="nonzero"/><path fill="#0087f4" d="M 95.230469 72.921875 L 95.230469 105.183594 L 92.003906 105.101562 L 92.003906 72.921875 L 95.230469 72.921875 " fill-opacity="1" fill-rule="nonzero"/><g clip-path="url(#72a4d07ffe)"><path fill="#00c6f7" d="M 92.195312 73.113281 L 92.195312 104.914062 L 95.039062 104.988281 L 95.039062 73.113281 Z M 91.816406 105.285156 L 91.816406 72.734375 L 95.417969 72.734375 L 95.417969 105.378906 L 91.816406 105.285156 " fill-opacity="1" fill-rule="nonzero"/></g><g clip-path="url(#addd52f7f2)"><path fill="#00c6f7" d="M 279.363281 121.660156 C 282.472656 110.140625 283.449219 86.308594 282.949219 78.808594 C 282.121094 66.371094 276.738281 54.621094 273.425781 54.621094 C 270.117188 54.621094 265.007812 66.371094 263.90625 78.808594 C 263.242188 86.289062 264.523438 110.140625 267.628906 121.660156 C 267.628906 121.660156 267.785156 123.085938 269.339844 123.085938 C 270.582031 123.085938 277.101562 123.085938 277.980469 123.085938 C 278.863281 123.085938 279.363281 121.660156 279.363281 121.660156 " fill-opacity="1" fill-rule="nonzero"/><path fill="#4cfce1" d="M 279.363281 121.660156 L 279.617188 121.730469 C 280.925781 116.878906 281.851562 109.898438 282.457031 102.855469 C 283.058594 95.8125 283.335938 88.71875 283.335938 83.660156 C 283.335938 81.6875 283.292969 80.027344 283.210938 78.792969 C 282.796875 72.539062 281.238281 66.46875 279.363281 61.949219 C 278.425781 59.6875 277.410156 57.8125 276.40625 56.488281 C 275.902344 55.828125 275.402344 55.304688 274.910156 54.9375 C 274.414062 54.570312 273.921875 54.355469 273.425781 54.355469 C 272.933594 54.355469 272.441406 54.570312 271.957031 54.9375 C 271.105469 55.582031 270.238281 56.707031 269.382812 58.203125 C 268.101562 60.453125 266.851562 63.546875 265.828125 67.105469 C 264.804688 70.664062 264.007812 74.6875 263.644531 78.785156 C 263.527344 80.082031 263.472656 81.855469 263.472656 83.960938 C 263.472656 89.050781 263.800781 96.09375 264.457031 103.0625 C 265.109375 110.035156 266.082031 116.929688 267.378906 121.730469 L 267.628906 121.660156 L 267.371094 121.6875 C 267.375 121.710938 267.414062 122.105469 267.683594 122.519531 C 267.816406 122.722656 268.011719 122.933594 268.285156 123.09375 C 268.5625 123.25 268.910156 123.351562 269.339844 123.351562 C 270.582031 123.351562 277.101562 123.351562 277.980469 123.351562 C 278.273438 123.351562 278.527344 123.230469 278.730469 123.070312 C 279.03125 122.832031 279.242188 122.503906 279.386719 122.238281 C 279.53125 121.96875 279.605469 121.757812 279.609375 121.746094 L 279.617188 121.730469 L 279.363281 121.660156 L 279.113281 121.570312 L 279.113281 121.574219 C 279.105469 121.601562 278.976562 121.941406 278.761719 122.253906 C 278.65625 122.414062 278.53125 122.5625 278.394531 122.664062 C 278.257812 122.765625 278.125 122.820312 277.980469 122.820312 C 277.101562 122.820312 270.582031 122.820312 269.339844 122.820312 C 268.992188 122.820312 268.738281 122.742188 268.546875 122.632812 C 268.261719 122.46875 268.097656 122.21875 268 122.003906 C 267.957031 121.898438 267.925781 121.800781 267.910156 121.730469 C 267.902344 121.695312 267.898438 121.667969 267.894531 121.652344 L 267.890625 121.632812 L 267.890625 121.628906 L 267.808594 121.640625 L 267.890625 121.628906 L 267.808594 121.640625 L 267.890625 121.628906 L 267.882812 121.589844 C 266.601562 116.847656 265.628906 109.96875 264.976562 103.015625 C 264.328125 96.058594 263.996094 89.027344 263.996094 83.960938 C 263.996094 81.863281 264.054688 80.105469 264.167969 78.832031 C 264.714844 72.640625 266.261719 66.613281 268.082031 62.148438 C 268.988281 59.917969 269.964844 58.078125 270.90625 56.808594 C 271.378906 56.175781 271.839844 55.683594 272.269531 55.363281 C 272.699219 55.035156 273.09375 54.882812 273.425781 54.886719 C 273.761719 54.882812 274.160156 55.039062 274.597656 55.363281 C 275.367188 55.929688 276.230469 57.007812 277.082031 58.46875 C 278.363281 60.664062 279.632812 63.726562 280.644531 67.25 C 281.660156 70.777344 282.417969 74.765625 282.6875 78.828125 C 282.769531 80.042969 282.8125 81.695312 282.8125 83.660156 C 282.8125 88.699219 282.535156 95.785156 281.933594 102.808594 C 281.332031 109.832031 280.402344 116.800781 279.109375 121.589844 L 279.363281 121.660156 L 279.113281 121.570312 L 279.363281 121.660156 " fill-opacity="1" fill-rule="nonzero"/></g><path fill="#4cfce1" d="M 273.738281 89.933594 C 273.738281 105.046875 273.4375 117.296875 273.066406 117.296875 C 272.695312 117.296875 272.390625 105.046875 272.390625 89.933594 C 272.390625 74.820312 272.695312 62.570312 273.066406 62.570312 C 273.4375 62.570312 273.738281 74.820312 273.738281 89.933594 " fill-opacity="1" fill-rule="nonzero"/><path fill="#4cfce1" d="M 281.011719 35.882812 C 281.011719 36.382812 280.960938 36.875 280.863281 37.363281 C 280.765625 37.855469 280.625 38.328125 280.433594 38.789062 C 280.242188 39.25 280.007812 39.6875 279.730469 40.105469 C 279.453125 40.519531 279.140625 40.902344 278.785156 41.253906 C 278.433594 41.609375 278.050781 41.921875 277.636719 42.199219 C 277.222656 42.476562 276.785156 42.710938 276.324219 42.902344 C 275.863281 43.09375 275.390625 43.238281 274.898438 43.335938 C 274.410156 43.429688 273.917969 43.480469 273.417969 43.480469 C 272.921875 43.480469 272.425781 43.429688 271.9375 43.335938 C 271.449219 43.238281 270.976562 43.09375 270.515625 42.902344 C 270.054688 42.710938 269.617188 42.476562 269.203125 42.199219 C 268.789062 41.921875 268.402344 41.609375 268.050781 41.253906 C 267.699219 40.902344 267.382812 40.519531 267.105469 40.105469 C 266.832031 39.6875 266.597656 39.25 266.40625 38.789062 C 266.214844 38.328125 266.070312 37.855469 265.972656 37.363281 C 265.875 36.875 265.828125 36.382812 265.828125 35.882812 C 265.828125 35.382812 265.875 34.890625 265.972656 34.402344 C 266.070312 33.910156 266.214844 33.4375 266.40625 32.976562 C 266.597656 32.515625 266.832031 32.078125 267.105469 31.664062 C 267.382812 31.246094 267.699219 30.863281 268.050781 30.511719 C 268.402344 30.160156 268.789062 29.84375 269.203125 29.566406 C 269.617188 29.289062 270.054688 29.054688 270.515625 28.863281 C 270.976562 28.671875 271.449219 28.53125 271.9375 28.433594 C 272.425781 28.335938 272.921875 28.285156 273.417969 28.285156 C 273.917969 28.285156 274.410156 28.335938 274.898438 28.433594 C 275.390625 28.53125 275.863281 28.671875 276.324219 28.863281 C 276.785156 29.054688 277.222656 29.289062 277.636719 29.566406 C 278.050781 29.84375 278.433594 30.160156 278.785156 30.511719 C 279.140625 30.863281 279.453125 31.246094 279.730469 31.664062 C 280.007812 32.078125 280.242188 32.515625 280.433594 32.976562 C 280.625 33.4375 280.765625 33.910156 280.863281 34.402344 C 280.960938 34.890625 281.011719 35.382812 281.011719 35.882812 Z M 281.011719 35.882812 " fill-opacity="1" fill-rule="nonzero"/><g clip-path="url(#904b8b885a)"><path fill="#0087f4" d="M 273.417969 26.402344 C 273.199219 26.402344 273.023438 26.226562 273.023438 26.003906 L 273.023438 21.660156 C 273.023438 21.433594 273.199219 21.257812 273.417969 21.257812 C 273.640625 21.257812 273.8125 21.433594 273.8125 21.660156 L 273.8125 26.003906 C 273.8125 26.21875 273.632812 26.402344 273.417969 26.402344 Z M 273.8125 50.105469 L 273.8125 45.765625 C 273.8125 45.539062 273.640625 45.363281 273.417969 45.363281 C 273.199219 45.363281 273.023438 45.539062 273.023438 45.765625 L 273.023438 50.105469 C 273.023438 50.332031 273.199219 50.507812 273.417969 50.507812 C 273.640625 50.507812 273.8125 50.332031 273.8125 50.105469 Z M 263.929688 35.882812 C 263.929688 35.660156 263.753906 35.480469 263.535156 35.480469 L 259.199219 35.480469 C 258.976562 35.480469 258.804688 35.660156 258.804688 35.882812 C 258.804688 36.105469 258.976562 36.285156 259.199219 36.285156 L 263.535156 36.285156 C 263.753906 36.285156 263.929688 36.105469 263.929688 35.882812 Z M 288.035156 35.882812 C 288.035156 35.660156 287.859375 35.480469 287.640625 35.480469 L 283.304688 35.480469 C 283.082031 35.480469 282.910156 35.660156 282.910156 35.882812 C 282.910156 36.105469 283.082031 36.285156 283.304688 36.285156 L 287.640625 36.285156 C 287.859375 36.285156 288.035156 36.105469 288.035156 35.882812 Z M 266.710938 29.175781 C 266.859375 29.015625 266.859375 28.765625 266.703125 28.605469 L 263.636719 25.539062 C 263.480469 25.386719 263.234375 25.386719 263.078125 25.546875 C 262.925781 25.707031 262.925781 25.953125 263.085938 26.113281 L 266.152344 29.183594 C 266.230469 29.265625 266.324219 29.296875 266.425781 29.296875 C 266.53125 29.296875 266.632812 29.253906 266.710938 29.175781 Z M 283.753906 46.230469 C 283.902344 46.070312 283.902344 45.820312 283.746094 45.660156 L 280.679688 42.589844 C 280.523438 42.4375 280.277344 42.4375 280.121094 42.597656 C 279.96875 42.757812 279.96875 43.007812 280.128906 43.167969 L 283.195312 46.238281 C 283.273438 46.316406 283.367188 46.347656 283.46875 46.347656 C 283.574219 46.347656 283.675781 46.308594 283.753906 46.230469 Z M 263.636719 46.230469 L 266.703125 43.160156 C 266.859375 43.007812 266.859375 42.75 266.710938 42.589844 C 266.5625 42.429688 266.308594 42.429688 266.152344 42.582031 L 263.085938 45.660156 C 262.925781 45.8125 262.925781 46.070312 263.078125 46.230469 C 263.15625 46.308594 263.257812 46.347656 263.359375 46.347656 C 263.464844 46.347656 263.558594 46.308594 263.636719 46.230469 Z M 280.679688 29.183594 L 283.746094 26.113281 C 283.902344 25.960938 283.902344 25.707031 283.753906 25.546875 C 283.605469 25.386719 283.351562 25.386719 283.195312 25.539062 L 280.128906 28.605469 C 279.96875 28.757812 279.96875 29.015625 280.121094 29.175781 C 280.199219 29.253906 280.300781 29.296875 280.402344 29.296875 C 280.507812 29.296875 280.609375 29.253906 280.679688 29.183594 Z M 269.777344 27.101562 C 269.972656 27.011719 270.070312 26.78125 269.988281 26.578125 L 269.21875 24.710938 C 269.132812 24.511719 268.902344 24.414062 268.699219 24.496094 C 268.5 24.582031 268.40625 24.816406 268.484375 25.015625 L 269.257812 26.882812 C 269.320312 27.035156 269.46875 27.132812 269.621094 27.132812 C 269.683594 27.132812 269.730469 27.125 269.777344 27.101562 Z M 278.132812 47.277344 C 278.332031 47.191406 278.425781 46.957031 278.347656 46.757812 L 277.574219 44.890625 C 277.488281 44.691406 277.257812 44.59375 277.054688 44.675781 C 276.855469 44.761719 276.761719 44.996094 276.839844 45.195312 L 277.613281 47.0625 C 277.675781 47.214844 277.824219 47.308594 277.976562 47.308594 C 278.03125 47.308594 278.085938 47.292969 278.132812 47.277344 Z M 262.546875 40.820312 L 264.417969 40.042969 C 264.621094 39.960938 264.714844 39.722656 264.628906 39.519531 C 264.550781 39.3125 264.316406 39.214844 264.117188 39.304688 L 262.25 40.082031 C 262.042969 40.164062 261.949219 40.402344 262.035156 40.601562 C 262.097656 40.753906 262.25 40.851562 262.398438 40.851562 C 262.445312 40.851562 262.5 40.84375 262.546875 40.820312 Z M 282.714844 32.46875 L 284.582031 31.691406 C 284.785156 31.613281 284.878906 31.371094 284.792969 31.171875 C 284.714844 30.960938 284.480469 30.867188 284.28125 30.953125 L 282.414062 31.730469 C 282.207031 31.8125 282.113281 32.050781 282.199219 32.253906 C 282.265625 32.40625 282.414062 32.5 282.5625 32.5 C 282.617188 32.492188 282.664062 32.484375 282.714844 32.46875 Z M 277.574219 26.890625 L 278.347656 25.023438 C 278.433594 24.824219 278.339844 24.582031 278.132812 24.503906 C 277.929688 24.414062 277.699219 24.511719 277.613281 24.71875 L 276.839844 26.585938 C 276.753906 26.789062 276.847656 27.027344 277.054688 27.109375 C 277.101562 27.132812 277.15625 27.140625 277.203125 27.140625 C 277.359375 27.132812 277.511719 27.042969 277.574219 26.890625 Z M 269.21875 47.0625 L 269.988281 45.195312 C 270.078125 44.996094 269.980469 44.753906 269.777344 44.675781 C 269.574219 44.585938 269.34375 44.683594 269.257812 44.890625 L 268.484375 46.757812 C 268.398438 46.957031 268.492188 47.199219 268.699219 47.277344 C 268.746094 47.300781 268.800781 47.308594 268.847656 47.308594 C 269.003906 47.308594 269.15625 47.214844 269.21875 47.0625 Z M 264.636719 32.246094 C 264.714844 32.035156 264.621094 31.804688 264.425781 31.722656 L 262.554688 30.945312 C 262.351562 30.867188 262.125 30.960938 262.042969 31.164062 C 261.964844 31.371094 262.058594 31.605469 262.257812 31.683594 L 264.125 32.460938 C 264.171875 32.484375 264.226562 32.492188 264.273438 32.492188 C 264.425781 32.492188 264.574219 32.398438 264.636719 32.246094 Z M 284.800781 40.601562 C 284.878906 40.394531 284.785156 40.164062 284.589844 40.082031 L 282.714844 39.304688 C 282.507812 39.226562 282.28125 39.320312 282.199219 39.519531 C 282.121094 39.730469 282.214844 39.960938 282.414062 40.042969 L 284.28125 40.820312 C 284.328125 40.84375 284.382812 40.851562 284.429688 40.851562 C 284.589844 40.851562 284.738281 40.753906 284.800781 40.601562 Z M 284.800781 40.601562 " fill-opacity="1" fill-rule="nonzero"/></g><g clip-path="url(#734dc976bb)"><path fill="#00c6f7" d="M 222.890625 82.332031 L 222.890625 59.125 L 241.941406 69.769531 Z M 241.882812 100.878906 L 222.890625 114.460938 L 222.890625 91.539062 Z M 251.109375 69.429688 C 251.070312 68.304688 250.457031 67.285156 249.496094 66.75 L 221.273438 50.980469 C 220.3125 50.441406 219.148438 50.464844 218.210938 51.039062 C 217.273438 51.613281 216.695312 52.652344 216.695312 53.773438 L 216.695312 120.550781 C 216.695312 121.734375 217.335938 122.820312 218.359375 123.371094 C 218.808594 123.613281 219.300781 123.730469 219.792969 123.730469 C 220.414062 123.730469 221.03125 123.539062 221.5625 123.160156 L 249.785156 102.980469 C 250.691406 102.332031 251.191406 101.242188 251.101562 100.113281 C 251.015625 98.984375 250.347656 97.988281 249.355469 97.5 L 227.585938 86.796875 L 249.6875 72.222656 C 250.609375 71.613281 251.148438 70.550781 251.109375 69.429688 " fill-opacity="1" fill-rule="nonzero"/></g><g clip-path="url(#05b04795a0)"><path fill="#0087f4" d="M 168.285156 50.953125 C 167.09375 50.953125 165.90625 51.011719 164.71875 51.128906 C 163.535156 51.246094 162.355469 51.421875 161.1875 51.652344 C 160.019531 51.886719 158.867188 52.175781 157.726562 52.519531 C 156.585938 52.867188 155.464844 53.269531 154.363281 53.722656 C 153.265625 54.179688 152.1875 54.6875 151.136719 55.25 C 150.085938 55.8125 149.066406 56.421875 148.074219 57.085938 C 147.085938 57.746094 146.128906 58.457031 145.207031 59.210938 C 144.289062 59.96875 143.40625 60.765625 142.5625 61.609375 C 141.722656 62.453125 140.921875 63.332031 140.167969 64.253906 C 139.410156 65.175781 138.703125 66.128906 138.039062 67.121094 C 137.378906 68.113281 136.765625 69.132812 136.203125 70.183594 C 135.644531 71.234375 135.132812 72.308594 134.679688 73.410156 C 134.222656 74.511719 133.820312 75.632812 133.476562 76.769531 C 133.128906 77.910156 132.839844 79.066406 132.609375 80.234375 C 132.375 81.402344 132.203125 82.578125 132.085938 83.765625 C 131.96875 84.949219 131.910156 86.140625 131.910156 87.328125 C 131.910156 88.519531 131.96875 89.710938 132.085938 90.894531 C 132.203125 92.082031 132.375 93.257812 132.609375 94.425781 C 132.839844 95.59375 133.128906 96.75 133.476562 97.890625 C 133.820312 99.027344 134.222656 100.148438 134.679688 101.25 C 135.132812 102.351562 135.644531 103.425781 136.203125 104.476562 C 136.765625 105.527344 137.378906 106.546875 138.039062 107.539062 C 138.703125 108.53125 139.410156 109.484375 140.167969 110.40625 C 140.921875 111.328125 141.722656 112.207031 142.5625 113.050781 C 143.40625 113.894531 144.289062 114.691406 145.207031 115.449219 C 146.128906 116.203125 147.085938 116.914062 148.074219 117.574219 C 149.066406 118.238281 150.085938 118.847656 151.136719 119.410156 C 152.1875 119.972656 153.265625 120.480469 154.363281 120.9375 C 155.464844 121.390625 156.585938 121.792969 157.726562 122.140625 C 158.867188 122.484375 160.019531 122.773438 161.1875 123.007812 C 162.355469 123.238281 163.535156 123.414062 164.71875 123.53125 C 165.90625 123.648438 167.09375 123.703125 168.285156 123.703125 C 169.476562 123.703125 170.664062 123.648438 171.851562 123.53125 C 173.035156 123.414062 174.210938 123.238281 175.382812 123.007812 C 176.550781 122.773438 177.703125 122.484375 178.84375 122.140625 C 179.984375 121.792969 181.105469 121.390625 182.203125 120.9375 C 183.304688 120.480469 184.382812 119.972656 185.429688 119.410156 C 186.480469 118.847656 187.503906 118.238281 188.492188 117.574219 C 189.484375 116.914062 190.441406 116.203125 191.359375 115.449219 C 192.28125 114.691406 193.164062 113.894531 194.003906 113.050781 C 194.847656 112.207031 195.648438 111.328125 196.402344 110.40625 C 197.160156 109.484375 197.867188 108.53125 198.527344 107.539062 C 199.191406 106.546875 199.804688 105.527344 200.363281 104.476562 C 200.925781 103.425781 201.433594 102.351562 201.890625 101.25 C 202.347656 100.148438 202.746094 99.027344 203.09375 97.890625 C 203.4375 96.75 203.726562 95.59375 203.960938 94.425781 C 204.191406 93.257812 204.367188 92.082031 204.484375 90.894531 C 204.601562 89.710938 204.660156 88.519531 204.660156 87.328125 C 204.660156 86.140625 204.601562 84.949219 204.484375 83.765625 C 204.367188 82.578125 204.191406 81.402344 203.960938 80.234375 C 203.726562 79.066406 203.4375 77.910156 203.09375 76.769531 C 202.746094 75.632812 202.347656 74.511719 201.890625 73.410156 C 201.433594 72.308594 200.925781 71.234375 200.363281 70.183594 C 199.804688 69.132812 199.191406 68.113281 198.527344 67.121094 C 197.867188 66.128906 197.160156 65.175781 196.402344 64.253906 C 195.648438 63.332031 194.847656 62.453125 194.003906 61.609375 C 193.164062 60.765625 192.28125 59.96875 191.359375 59.210938 C 190.441406 58.457031 189.484375 57.746094 188.492188 57.085938 C 187.503906 56.421875 186.480469 55.8125 185.429688 55.25 C 184.382812 54.6875 183.304688 54.179688 182.203125 53.722656 C 181.105469 53.269531 179.984375 52.867188 178.84375 52.519531 C 177.703125 52.175781 176.550781 51.886719 175.382812 51.652344 C 174.210938 51.421875 173.035156 51.246094 171.851562 51.128906 C 170.664062 51.011719 169.476562 50.953125 168.285156 50.953125 Z M 168.285156 118.855469 C 167.253906 118.855469 166.222656 118.804688 165.195312 118.703125 C 164.167969 118.601562 163.148438 118.449219 162.132812 118.25 C 161.121094 118.046875 160.121094 117.796875 159.132812 117.496094 C 158.144531 117.199219 157.175781 116.851562 156.21875 116.457031 C 155.265625 116.058594 154.335938 115.621094 153.421875 115.132812 C 152.511719 114.644531 151.628906 114.117188 150.769531 113.542969 C 149.910156 112.96875 149.082031 112.355469 148.285156 111.699219 C 147.488281 111.042969 146.722656 110.351562 145.992188 109.621094 C 145.261719 108.890625 144.570312 108.128906 143.914062 107.328125 C 143.261719 106.53125 142.644531 105.703125 142.074219 104.84375 C 141.5 103.984375 140.96875 103.101562 140.480469 102.191406 C 139.996094 101.28125 139.554688 100.347656 139.160156 99.394531 C 138.765625 98.441406 138.417969 97.46875 138.117188 96.480469 C 137.816406 95.492188 137.566406 94.492188 137.367188 93.480469 C 137.164062 92.46875 137.011719 91.449219 136.910156 90.421875 C 136.808594 89.390625 136.757812 88.363281 136.757812 87.328125 C 136.757812 86.296875 136.808594 85.269531 136.910156 84.238281 C 137.011719 83.210938 137.164062 82.191406 137.367188 81.179688 C 137.566406 80.167969 137.816406 79.167969 138.117188 78.179688 C 138.417969 77.191406 138.765625 76.21875 139.160156 75.265625 C 139.554688 74.3125 139.996094 73.378906 140.480469 72.46875 C 140.96875 71.558594 141.5 70.675781 142.074219 69.816406 C 142.644531 68.957031 143.261719 68.128906 143.914062 67.332031 C 144.570312 66.53125 145.261719 65.769531 145.992188 65.039062 C 146.722656 64.308594 147.488281 63.617188 148.285156 62.960938 C 149.082031 62.304688 149.910156 61.691406 150.769531 61.117188 C 151.628906 60.542969 152.511719 60.015625 153.421875 59.527344 C 154.335938 59.039062 155.265625 58.601562 156.21875 58.203125 C 157.175781 57.808594 158.144531 57.460938 159.132812 57.164062 C 160.121094 56.863281 161.121094 56.613281 162.132812 56.410156 C 163.148438 56.210938 164.167969 56.058594 165.195312 55.957031 C 166.222656 55.855469 167.253906 55.804688 168.285156 55.804688 C 169.316406 55.804688 170.347656 55.855469 171.375 55.957031 C 172.402344 56.058594 173.421875 56.210938 174.433594 56.410156 C 175.449219 56.613281 176.449219 56.863281 177.4375 57.164062 C 178.421875 57.460938 179.394531 57.808594 180.347656 58.203125 C 181.300781 58.601562 182.234375 59.039062 183.144531 59.527344 C 184.054688 60.015625 184.941406 60.542969 185.800781 61.117188 C 186.65625 61.691406 187.484375 62.304688 188.285156 62.960938 C 189.082031 63.617188 189.847656 64.308594 190.574219 65.039062 C 191.304688 65.769531 192 66.53125 192.652344 67.332031 C 193.308594 68.128906 193.921875 68.957031 194.496094 69.816406 C 195.070312 70.675781 195.601562 71.558594 196.085938 72.46875 C 196.574219 73.378906 197.015625 74.3125 197.410156 75.265625 C 197.804688 76.21875 198.152344 77.191406 198.453125 78.179688 C 198.75 79.167969 199.003906 80.167969 199.203125 81.179688 C 199.40625 82.191406 199.554688 83.210938 199.65625 84.238281 C 199.757812 85.269531 199.808594 86.296875 199.808594 87.328125 C 199.808594 88.363281 199.757812 89.390625 199.65625 90.421875 C 199.554688 91.449219 199.40625 92.46875 199.203125 93.480469 C 199.003906 94.492188 198.75 95.492188 198.453125 96.480469 C 198.152344 97.46875 197.804688 98.441406 197.410156 99.394531 C 197.015625 100.347656 196.574219 101.28125 196.085938 102.191406 C 195.601562 103.101562 195.070312 103.984375 194.496094 104.84375 C 193.921875 105.703125 193.308594 106.53125 192.652344 107.328125 C 192 108.128906 191.304688 108.890625 190.574219 109.621094 C 189.847656 110.351562 189.082031 111.042969 188.285156 111.699219 C 187.484375 112.355469 186.65625 112.96875 185.800781 113.542969 C 184.941406 114.117188 184.054688 114.644531 183.144531 115.132812 C 182.234375 115.621094 181.300781 116.058594 180.347656 116.457031 C 179.394531 116.851562 178.421875 117.199219 177.4375 117.496094 C 176.449219 117.796875 175.449219 118.046875 174.433594 118.25 C 173.421875 118.449219 172.402344 118.601562 171.375 118.703125 C 170.347656 118.804688 169.316406 118.855469 168.285156 118.855469 Z M 168.285156 118.855469 " fill-opacity="1" fill-rule="nonzero"/></g><path fill="#0087f4" d="M 165.277344 71.203125 C 165.070312 70.960938 164.820312 70.765625 164.535156 70.617188 C 164.246094 70.472656 163.945312 70.386719 163.625 70.363281 C 163.300781 70.335938 162.988281 70.375 162.683594 70.472656 C 162.378906 70.574219 162.101562 70.726562 161.859375 70.9375 L 144.882812 85.488281 C 144.613281 85.71875 144.40625 85.992188 144.257812 86.316406 C 144.109375 86.636719 144.035156 86.976562 144.035156 87.328125 C 144.035156 87.683594 144.109375 88.023438 144.257812 88.34375 C 144.40625 88.667969 144.613281 88.941406 144.882812 89.171875 L 161.859375 103.722656 C 162.101562 103.933594 162.378906 104.085938 162.683594 104.1875 C 162.988281 104.285156 163.300781 104.324219 163.625 104.296875 C 163.945312 104.273438 164.246094 104.1875 164.535156 104.042969 C 164.820312 103.894531 165.070312 103.699219 165.277344 103.457031 C 165.488281 103.210938 165.640625 102.9375 165.742188 102.632812 C 165.839844 102.324219 165.878906 102.011719 165.851562 101.691406 C 165.828125 101.371094 165.742188 101.066406 165.597656 100.78125 C 165.449219 100.492188 165.253906 100.246094 165.011719 100.035156 L 150.195312 87.328125 L 165.011719 74.625 C 165.253906 74.414062 165.449219 74.167969 165.597656 73.878906 C 165.742188 73.59375 165.828125 73.289062 165.851562 72.96875 C 165.878906 72.648438 165.839844 72.335938 165.742188 72.027344 C 165.640625 71.722656 165.488281 71.449219 165.277344 71.203125 Z M 165.277344 71.203125 " fill-opacity="1" fill-rule="nonzero"/><path fill="#0087f4" d="M 191.6875 85.488281 L 174.710938 70.9375 C 174.464844 70.726562 174.191406 70.574219 173.886719 70.472656 C 173.578125 70.375 173.265625 70.335938 172.945312 70.363281 C 172.625 70.386719 172.320312 70.472656 172.035156 70.617188 C 171.746094 70.761719 171.5 70.957031 171.289062 71.203125 C 171.082031 71.449219 170.925781 71.722656 170.828125 72.027344 C 170.726562 72.335938 170.691406 72.648438 170.714844 72.96875 C 170.742188 73.289062 170.828125 73.59375 170.972656 73.878906 C 171.117188 74.167969 171.3125 74.414062 171.558594 74.625 L 186.375 87.328125 L 171.558594 100.035156 C 171.3125 100.246094 171.117188 100.492188 170.972656 100.78125 C 170.828125 101.066406 170.742188 101.371094 170.71875 101.691406 C 170.691406 102.011719 170.730469 102.324219 170.828125 102.628906 C 170.929688 102.9375 171.082031 103.210938 171.292969 103.457031 C 171.5 103.699219 171.75 103.894531 172.035156 104.039062 C 172.320312 104.1875 172.625 104.273438 172.945312 104.296875 C 173.265625 104.320312 173.578125 104.285156 173.886719 104.183594 C 174.191406 104.085938 174.464844 103.933594 174.710938 103.722656 L 191.6875 89.171875 C 191.957031 88.941406 192.164062 88.667969 192.3125 88.34375 C 192.460938 88.023438 192.535156 87.683594 192.535156 87.328125 C 192.535156 86.976562 192.460938 86.636719 192.3125 86.316406 C 192.164062 85.992188 191.957031 85.71875 191.6875 85.488281 Z M 191.6875 85.488281 " fill-opacity="1" fill-rule="nonzero"/><g clip-path="url(#6707348c42)"><path fill="#4cfce1" d="M 346.457031 123.746094 L 298.847656 123.746094 C 297.527344 123.746094 296.328125 122.984375 295.765625 121.792969 C 295.203125 120.601562 295.386719 119.195312 296.234375 118.183594 L 319.921875 89.832031 L 296.234375 61.484375 C 295.386719 60.46875 295.207031 59.0625 295.765625 57.871094 C 296.328125 56.679688 297.527344 55.917969 298.847656 55.917969 L 346.457031 55.917969 C 348.332031 55.917969 349.855469 57.433594 349.855469 59.308594 L 349.855469 69.484375 C 349.855469 71.359375 348.332031 72.875 346.457031 72.875 C 344.578125 72.875 343.054688 71.359375 343.054688 69.484375 L 343.054688 62.699219 L 306.105469 62.699219 L 326.960938 87.660156 C 328.011719 88.917969 328.011719 90.746094 326.960938 92.003906 L 306.105469 116.964844 L 343.054688 116.964844 L 343.054688 110.179688 C 343.054688 108.304688 344.578125 106.789062 346.457031 106.789062 C 348.332031 106.789062 349.855469 108.304688 349.855469 110.179688 L 349.855469 120.355469 C 349.855469 122.230469 348.332031 123.746094 346.457031 123.746094 Z M 346.457031 123.746094 " fill-opacity="1" fill-rule="nonzero"/></g></svg>