<svg xmlns="http://www.w3.org/2000/svg" xmlns:xlink="http://www.w3.org/1999/xlink" width="500" zoomAndPan="magnify" viewBox="0 0 375 149.999998" height="200" preserveAspectRatio="xMidYMid meet" version="1.0"><defs><clipPath id="b80ee49b51"><path d="M 55 59 L 61 59 L 61 69 L 55 69 Z M 55 59 " clip-rule="nonzero"/></clipPath><clipPath id="29b26a2d8c"><path d="M 63.265625 8.378906 L 109.09375 61.953125 L 64.640625 99.980469 L 18.8125 46.40625 Z M 63.265625 8.378906 " clip-rule="nonzero"/></clipPath><clipPath id="c1d17803dd"><path d="M 63.265625 8.378906 L 109.09375 61.953125 L 64.640625 99.980469 L 18.8125 46.40625 Z M 63.265625 8.378906 " clip-rule="nonzero"/></clipPath><clipPath id="29b9a3e0a5"><path d="M 49 47 L 64 47 L 64 77 L 49 77 Z M 49 47 " clip-rule="nonzero"/></clipPath><clipPath id="d8f0059bd8"><path d="M 63.265625 8.378906 L 109.09375 61.953125 L 64.640625 99.980469 L 18.8125 46.40625 Z M 63.265625 8.378906 " clip-rule="nonzero"/></clipPath><clipPath id="ee69fd35d6"><path d="M 63.265625 8.378906 L 109.09375 61.953125 L 64.640625 99.980469 L 18.8125 46.40625 Z M 63.265625 8.378906 " clip-rule="nonzero"/></clipPath><clipPath id="86c9a07065"><path d="M 66 60 L 69 60 L 69 63 L 66 63 Z M 66 60 " clip-rule="nonzero"/></clipPath><clipPath id="221cc1aa76"><path d="M 63.265625 8.378906 L 109.09375 61.953125 L 64.640625 99.980469 L 18.8125 46.40625 Z M 63.265625 8.378906 " clip-rule="nonzero"/></clipPath><clipPath id="6cc1f4c1ee"><path d="M 63.265625 8.378906 L 109.09375 61.953125 L 64.640625 99.980469 L 18.8125 46.40625 Z M 63.265625 8.378906 " clip-rule="nonzero"/></clipPath><clipPath id="323710207c"><path d="M 73 51 L 79 51 L 79 60 L 73 60 Z M 73 51 " clip-rule="nonzero"/></clipPath><clipPath id="88888a54c1"><path d="M 63.265625 8.378906 L 109.09375 61.953125 L 64.640625 99.980469 L 18.8125 46.40625 Z M 63.265625 8.378906 " clip-rule="nonzero"/></clipPath><clipPath id="5c4b27983e"><path d="M 63.265625 8.378906 L 109.09375 61.953125 L 64.640625 99.980469 L 18.8125 46.40625 Z M 63.265625 8.378906 " clip-rule="nonzero"/></clipPath><clipPath id="9258c03555"><path d="M 59 41 L 78 41 L 78 57 L 59 57 Z M 59 41 " clip-rule="nonzero"/></clipPath><clipPath id="c72ec7b094"><path d="M 63.265625 8.378906 L 109.09375 61.953125 L 64.640625 99.980469 L 18.8125 46.40625 Z M 63.265625 8.378906 " clip-rule="nonzero"/></clipPath><clipPath id="6e3b1b8c69"><path d="M 63.265625 8.378906 L 109.09375 61.953125 L 64.640625 99.980469 L 18.8125 46.40625 Z M 63.265625 8.378906 " clip-rule="nonzero"/></clipPath><clipPath id="e1a3ddf601"><path d="M 48 44 L 73 44 L 73 57 L 48 57 Z M 48 44 " clip-rule="nonzero"/></clipPath><clipPath id="93343feae4"><path d="M 63.265625 8.378906 L 109.09375 61.953125 L 64.640625 99.980469 L 18.8125 46.40625 Z M 63.265625 8.378906 " clip-rule="nonzero"/></clipPath><clipPath id="8b760569c1"><path d="M 63.265625 8.378906 L 109.09375 61.953125 L 64.640625 99.980469 L 18.8125 46.40625 Z M 63.265625 8.378906 " clip-rule="nonzero"/></clipPath><clipPath id="fc6fc193bf"><path d="M 33 50 L 62 50 L 62 91 L 33 91 Z M 33 50 " clip-rule="nonzero"/></clipPath><clipPath id="3a786abd9a"><path d="M 63.265625 8.378906 L 109.09375 61.953125 L 64.640625 99.980469 L 18.8125 46.40625 Z M 63.265625 8.378906 " clip-rule="nonzero"/></clipPath><clipPath id="5e28f66dd6"><path d="M 63.265625 8.378906 L 109.09375 61.953125 L 64.640625 99.980469 L 18.8125 46.40625 Z M 63.265625 8.378906 " clip-rule="nonzero"/></clipPath><clipPath id="27913458d5"><path d="M 62 78 L 72 78 L 72 95 L 62 95 Z M 62 78 " clip-rule="nonzero"/></clipPath><clipPath id="bfc03516cd"><path d="M 63.265625 8.378906 L 109.09375 61.953125 L 64.640625 99.980469 L 18.8125 46.40625 Z M 63.265625 8.378906 " clip-rule="nonzero"/></clipPath><clipPath id="f78906e252"><path d="M 63.265625 8.378906 L 109.09375 61.953125 L 64.640625 99.980469 L 18.8125 46.40625 Z M 63.265625 8.378906 " clip-rule="nonzero"/></clipPath><clipPath id="7fbbfe3596"><path d="M 58 71 L 75 71 L 75 91 L 58 91 Z M 58 71 " clip-rule="nonzero"/></clipPath><clipPath id="9321cfd045"><path d="M 63.265625 8.378906 L 109.09375 61.953125 L 64.640625 99.980469 L 18.8125 46.40625 Z M 63.265625 8.378906 " clip-rule="nonzero"/></clipPath><clipPath id="8b6721455b"><path d="M 63.265625 8.378906 L 109.09375 61.953125 L 64.640625 99.980469 L 18.8125 46.40625 Z M 63.265625 8.378906 " clip-rule="nonzero"/></clipPath><clipPath id="3fe90ea3e9"><path d="M 46 38 L 80 38 L 80 99 L 46 99 Z M 46 38 " clip-rule="nonzero"/></clipPath><clipPath id="3d8322f7e6"><path d="M 63.265625 8.378906 L 109.09375 61.953125 L 64.640625 99.980469 L 18.8125 46.40625 Z M 63.265625 8.378906 " clip-rule="nonzero"/></clipPath><clipPath id="4330d055cd"><path d="M 63.265625 8.378906 L 109.09375 61.953125 L 64.640625 99.980469 L 18.8125 46.40625 Z M 63.265625 8.378906 " clip-rule="nonzero"/></clipPath><clipPath id="00f1f0970e"><path d="M 81 49 L 84 49 L 84 52 L 81 52 Z M 81 49 " clip-rule="nonzero"/></clipPath><clipPath id="4ac0a22a2f"><path d="M 63.265625 8.378906 L 109.09375 61.953125 L 64.640625 99.980469 L 18.8125 46.40625 Z M 63.265625 8.378906 " clip-rule="nonzero"/></clipPath><clipPath id="906fd90201"><path d="M 63.265625 8.378906 L 109.09375 61.953125 L 64.640625 99.980469 L 18.8125 46.40625 Z M 63.265625 8.378906 " clip-rule="nonzero"/></clipPath><clipPath id="1fecc3f33f"><path d="M 77 42 L 84 42 L 84 48 L 77 48 Z M 77 42 " clip-rule="nonzero"/></clipPath><clipPath id="d6ae1d646e"><path d="M 63.265625 8.378906 L 109.09375 61.953125 L 64.640625 99.980469 L 18.8125 46.40625 Z M 63.265625 8.378906 " clip-rule="nonzero"/></clipPath><clipPath id="2fabacd46e"><path d="M 63.265625 8.378906 L 109.09375 61.953125 L 64.640625 99.980469 L 18.8125 46.40625 Z M 63.265625 8.378906 " clip-rule="nonzero"/></clipPath><clipPath id="ad34f4bb82"><path d="M 57 32 L 78 32 L 78 41 L 57 41 Z M 57 32 " clip-rule="nonzero"/></clipPath><clipPath id="0f50eb1628"><path d="M 63.265625 8.378906 L 109.09375 61.953125 L 64.640625 99.980469 L 18.8125 46.40625 Z M 63.265625 8.378906 " clip-rule="nonzero"/></clipPath><clipPath id="880f70674e"><path d="M 63.265625 8.378906 L 109.09375 61.953125 L 64.640625 99.980469 L 18.8125 46.40625 Z M 63.265625 8.378906 " clip-rule="nonzero"/></clipPath><clipPath id="3f0156f65a"><path d="M 71 28 L 78 28 L 78 31 L 71 31 Z M 71 28 " clip-rule="nonzero"/></clipPath><clipPath id="bb998451db"><path d="M 63.265625 8.378906 L 109.09375 61.953125 L 64.640625 99.980469 L 18.8125 46.40625 Z M 63.265625 8.378906 " clip-rule="nonzero"/></clipPath><clipPath id="bdc6d2f2fd"><path d="M 63.265625 8.378906 L 109.09375 61.953125 L 64.640625 99.980469 L 18.8125 46.40625 Z M 63.265625 8.378906 " clip-rule="nonzero"/></clipPath><clipPath id="19edc687b0"><path d="M 33 46 L 54 46 L 54 75 L 33 75 Z M 33 46 " clip-rule="nonzero"/></clipPath><clipPath id="fda0494df4"><path d="M 63.265625 8.378906 L 109.09375 61.953125 L 64.640625 99.980469 L 18.8125 46.40625 Z M 63.265625 8.378906 " clip-rule="nonzero"/></clipPath><clipPath id="0006f16181"><path d="M 63.265625 8.378906 L 109.09375 61.953125 L 64.640625 99.980469 L 18.8125 46.40625 Z M 63.265625 8.378906 " clip-rule="nonzero"/></clipPath><clipPath id="b6e4919893"><path d="M 63 27 L 84 27 L 84 42 L 63 42 Z M 63 27 " clip-rule="nonzero"/></clipPath><clipPath id="72887f6b21"><path d="M 63.265625 8.378906 L 109.09375 61.953125 L 64.640625 99.980469 L 18.8125 46.40625 Z M 63.265625 8.378906 " clip-rule="nonzero"/></clipPath><clipPath id="848c5fc43e"><path d="M 63.265625 8.378906 L 109.09375 61.953125 L 64.640625 99.980469 L 18.8125 46.40625 Z M 63.265625 8.378906 " clip-rule="nonzero"/></clipPath><clipPath id="f3e7a679b4"><path d="M 64 30 L 82 30 L 82 35 L 64 35 Z M 64 30 " clip-rule="nonzero"/></clipPath><clipPath id="dc5781afa5"><path d="M 63.265625 8.378906 L 109.09375 61.953125 L 64.640625 99.980469 L 18.8125 46.40625 Z M 63.265625 8.378906 " clip-rule="nonzero"/></clipPath><clipPath id="1b9dd2b25f"><path d="M 63.265625 8.378906 L 109.09375 61.953125 L 64.640625 99.980469 L 18.8125 46.40625 Z M 63.265625 8.378906 " clip-rule="nonzero"/></clipPath><clipPath id="7b608668e5"><path d="M 44 26 L 75 26 L 75 66 L 44 66 Z M 44 26 " clip-rule="nonzero"/></clipPath><clipPath id="e1a6e0dabe"><path d="M 63.265625 8.378906 L 109.09375 61.953125 L 64.640625 99.980469 L 18.8125 46.40625 Z M 63.265625 8.378906 " clip-rule="nonzero"/></clipPath><clipPath id="f35f6c7515"><path d="M 63.265625 8.378906 L 109.09375 61.953125 L 64.640625 99.980469 L 18.8125 46.40625 Z M 63.265625 8.378906 " clip-rule="nonzero"/></clipPath><clipPath id="89498d85ac"><path d="M 36 28 L 50 28 L 50 70 L 36 70 Z M 36 28 " clip-rule="nonzero"/></clipPath><clipPath id="bbaf6d513d"><path d="M 63.265625 8.378906 L 109.09375 61.953125 L 64.640625 99.980469 L 18.8125 46.40625 Z M 63.265625 8.378906 " clip-rule="nonzero"/></clipPath><clipPath id="ec2b85f646"><path d="M 63.265625 8.378906 L 109.09375 61.953125 L 64.640625 99.980469 L 18.8125 46.40625 Z M 63.265625 8.378906 " clip-rule="nonzero"/></clipPath><clipPath id="ec7bbf62f1"><path d="M 45 34 L 73 34 L 73 62 L 45 62 Z M 45 34 " clip-rule="nonzero"/></clipPath><clipPath id="9d650218a4"><path d="M 63.265625 8.378906 L 109.09375 61.953125 L 64.640625 99.980469 L 18.8125 46.40625 Z M 63.265625 8.378906 " clip-rule="nonzero"/></clipPath><clipPath id="1396dad24c"><path d="M 63.265625 8.378906 L 109.09375 61.953125 L 64.640625 99.980469 L 18.8125 46.40625 Z M 63.265625 8.378906 " clip-rule="nonzero"/></clipPath><clipPath id="d905a270e9"><path d="M 45 30 L 65 30 L 65 61 L 45 61 Z M 45 30 " clip-rule="nonzero"/></clipPath><clipPath id="b31e2f71da"><path d="M 63.265625 8.378906 L 109.09375 61.953125 L 64.640625 99.980469 L 18.8125 46.40625 Z M 63.265625 8.378906 " clip-rule="nonzero"/></clipPath><clipPath id="4b5032a324"><path d="M 63.265625 8.378906 L 109.09375 61.953125 L 64.640625 99.980469 L 18.8125 46.40625 Z M 63.265625 8.378906 " clip-rule="nonzero"/></clipPath><clipPath id="eea100dd7a"><path d="M 41 22 L 53 22 L 53 61 L 41 61 Z M 41 22 " clip-rule="nonzero"/></clipPath><clipPath id="250f84f60c"><path d="M 63.265625 8.378906 L 109.09375 61.953125 L 64.640625 99.980469 L 18.8125 46.40625 Z M 63.265625 8.378906 " clip-rule="nonzero"/></clipPath><clipPath id="08f705d08f"><path d="M 63.265625 8.378906 L 109.09375 61.953125 L 64.640625 99.980469 L 18.8125 46.40625 Z M 63.265625 8.378906 " clip-rule="nonzero"/></clipPath><clipPath id="8bd3a65d9f"><path d="M 65 20 L 70 20 L 70 27 L 65 27 Z M 65 20 " clip-rule="nonzero"/></clipPath><clipPath id="e889bd4ec3"><path d="M 63.265625 8.378906 L 109.09375 61.953125 L 64.640625 99.980469 L 18.8125 46.40625 Z M 63.265625 8.378906 " clip-rule="nonzero"/></clipPath><clipPath id="f4b7997e35"><path d="M 63.265625 8.378906 L 109.09375 61.953125 L 64.640625 99.980469 L 18.8125 46.40625 Z M 63.265625 8.378906 " clip-rule="nonzero"/></clipPath><clipPath id="47caac0007"><path d="M 47 21 L 65 21 L 65 37 L 47 37 Z M 47 21 " clip-rule="nonzero"/></clipPath><clipPath id="fe24ba5fd3"><path d="M 63.265625 8.378906 L 109.09375 61.953125 L 64.640625 99.980469 L 18.8125 46.40625 Z M 63.265625 8.378906 " clip-rule="nonzero"/></clipPath><clipPath id="d9a039c06e"><path d="M 63.265625 8.378906 L 109.09375 61.953125 L 64.640625 99.980469 L 18.8125 46.40625 Z M 63.265625 8.378906 " clip-rule="nonzero"/></clipPath><clipPath id="dc1c5b7a9e"><path d="M 55 81 L 60 81 L 60 90 L 55 90 Z M 55 81 " clip-rule="nonzero"/></clipPath><clipPath id="07df2b8dc2"><path d="M 48.085938 50.332031 L 97.9375 100.183594 L 56.570312 141.550781 L 6.71875 91.699219 Z M 48.085938 50.332031 " clip-rule="nonzero"/></clipPath><clipPath id="a719e69f45"><path d="M 56.835938 141.617188 L 6.984375 91.765625 L 48.351562 50.398438 L 98.203125 100.25 Z M 56.835938 141.617188 " clip-rule="nonzero"/></clipPath><clipPath id="2d08767197"><path d="M 53 73 L 67 73 L 67 103 L 53 103 Z M 53 73 " clip-rule="nonzero"/></clipPath><clipPath id="9d1cc6093d"><path d="M 48.085938 50.332031 L 97.9375 100.183594 L 56.570312 141.550781 L 6.71875 91.699219 Z M 48.085938 50.332031 " clip-rule="nonzero"/></clipPath><clipPath id="c219dedb0c"><path d="M 56.835938 141.617188 L 6.984375 91.765625 L 48.351562 50.398438 L 98.203125 100.25 Z M 56.835938 141.617188 " clip-rule="nonzero"/></clipPath><clipPath id="54c61902e1"><path d="M 47 87 L 50 87 L 50 91 L 47 91 Z M 47 87 " clip-rule="nonzero"/></clipPath><clipPath id="744bbcc764"><path d="M 48.085938 50.332031 L 97.9375 100.183594 L 56.570312 141.550781 L 6.71875 91.699219 Z M 48.085938 50.332031 " clip-rule="nonzero"/></clipPath><clipPath id="4aeaa42610"><path d="M 56.835938 141.617188 L 6.984375 91.765625 L 48.351562 50.398438 L 98.203125 100.25 Z M 56.835938 141.617188 " clip-rule="nonzero"/></clipPath><clipPath id="772dc4c655"><path d="M 37 91 L 43 91 L 43 100 L 37 100 Z M 37 91 " clip-rule="nonzero"/></clipPath><clipPath id="cddb2676ba"><path d="M 48.085938 50.332031 L 97.9375 100.183594 L 56.570312 141.550781 L 6.71875 91.699219 Z M 48.085938 50.332031 " clip-rule="nonzero"/></clipPath><clipPath id="a87aa3616c"><path d="M 56.835938 141.617188 L 6.984375 91.765625 L 48.351562 50.398438 L 98.203125 100.25 Z M 56.835938 141.617188 " clip-rule="nonzero"/></clipPath><clipPath id="636965302e"><path d="M 39 95 L 58 95 L 58 109 L 39 109 Z M 39 95 " clip-rule="nonzero"/></clipPath><clipPath id="47e3a318d0"><path d="M 48.085938 50.332031 L 97.9375 100.183594 L 56.570312 141.550781 L 6.71875 91.699219 Z M 48.085938 50.332031 " clip-rule="nonzero"/></clipPath><clipPath id="c2001eac6d"><path d="M 56.835938 141.617188 L 6.984375 91.765625 L 48.351562 50.398438 L 98.203125 100.25 Z M 56.835938 141.617188 " clip-rule="nonzero"/></clipPath><clipPath id="4577e5e939"><path d="M 43 94 L 68 94 L 68 106 L 43 106 Z M 43 94 " clip-rule="nonzero"/></clipPath><clipPath id="224be35c77"><path d="M 48.085938 50.332031 L 97.9375 100.183594 L 56.570312 141.550781 L 6.71875 91.699219 Z M 48.085938 50.332031 " clip-rule="nonzero"/></clipPath><clipPath id="5fe68847cb"><path d="M 56.835938 141.617188 L 6.984375 91.765625 L 48.351562 50.398438 L 98.203125 100.25 Z M 56.835938 141.617188 " clip-rule="nonzero"/></clipPath><clipPath id="3586087e0e"><path d="M 51 59 L 84 59 L 84 97 L 51 97 Z M 51 59 " clip-rule="nonzero"/></clipPath><clipPath id="adb676353b"><path d="M 48.085938 50.332031 L 97.9375 100.183594 L 56.570312 141.550781 L 6.71875 91.699219 Z M 48.085938 50.332031 " clip-rule="nonzero"/></clipPath><clipPath id="56e7448eda"><path d="M 56.835938 141.617188 L 6.984375 91.765625 L 48.351562 50.398438 L 98.203125 100.25 Z M 56.835938 141.617188 " clip-rule="nonzero"/></clipPath><clipPath id="85b1dceec8"><path d="M 42 55 L 53 55 L 53 72 L 42 72 Z M 42 55 " clip-rule="nonzero"/></clipPath><clipPath id="d826c4cd88"><path d="M 48.085938 50.332031 L 97.9375 100.183594 L 56.570312 141.550781 L 6.71875 91.699219 Z M 48.085938 50.332031 " clip-rule="nonzero"/></clipPath><clipPath id="3c28dde1c9"><path d="M 56.835938 141.617188 L 6.984375 91.765625 L 48.351562 50.398438 L 98.203125 100.25 Z M 56.835938 141.617188 " clip-rule="nonzero"/></clipPath><clipPath id="9bc505a0e8"><path d="M 38 60 L 57 60 L 57 79 L 38 79 Z M 38 60 " clip-rule="nonzero"/></clipPath><clipPath id="098fcf4add"><path d="M 48.085938 50.332031 L 97.9375 100.183594 L 56.570312 141.550781 L 6.71875 91.699219 Z M 48.085938 50.332031 " clip-rule="nonzero"/></clipPath><clipPath id="e49e2e0f8d"><path d="M 56.835938 141.617188 L 6.984375 91.765625 L 48.351562 50.398438 L 98.203125 100.25 Z M 56.835938 141.617188 " clip-rule="nonzero"/></clipPath><clipPath id="1020bd68c2"><path d="M 37 51 L 71 51 L 71 112 L 37 112 Z M 37 51 " clip-rule="nonzero"/></clipPath><clipPath id="0b58fc80c4"><path d="M 48.085938 50.332031 L 97.9375 100.183594 L 56.570312 141.550781 L 6.71875 91.699219 Z M 48.085938 50.332031 " clip-rule="nonzero"/></clipPath><clipPath id="55d94fc627"><path d="M 56.835938 141.617188 L 6.984375 91.765625 L 48.351562 50.398438 L 98.203125 100.25 Z M 56.835938 141.617188 " clip-rule="nonzero"/></clipPath><clipPath id="6619e61b33"><path d="M 32 100 L 36 100 L 36 103 L 32 103 Z M 32 100 " clip-rule="nonzero"/></clipPath><clipPath id="59090074fc"><path d="M 48.085938 50.332031 L 97.9375 100.183594 L 56.570312 141.550781 L 6.71875 91.699219 Z M 48.085938 50.332031 " clip-rule="nonzero"/></clipPath><clipPath id="ec6c0e6749"><path d="M 56.835938 141.617188 L 6.984375 91.765625 L 48.351562 50.398438 L 98.203125 100.25 Z M 56.835938 141.617188 " clip-rule="nonzero"/></clipPath><clipPath id="df1eef4f5d"><path d="M 33 104 L 40 104 L 40 109 L 33 109 Z M 33 104 " clip-rule="nonzero"/></clipPath><clipPath id="8b5553c9ec"><path d="M 48.085938 50.332031 L 97.9375 100.183594 L 56.570312 141.550781 L 6.71875 91.699219 Z M 48.085938 50.332031 " clip-rule="nonzero"/></clipPath><clipPath id="5877995aa5"><path d="M 56.835938 141.617188 L 6.984375 91.765625 L 48.351562 50.398438 L 98.203125 100.25 Z M 56.835938 141.617188 " clip-rule="nonzero"/></clipPath><clipPath id="84637283cc"><path d="M 40 110 L 61 110 L 61 119 L 40 119 Z M 40 110 " clip-rule="nonzero"/></clipPath><clipPath id="e0e7bcd3b6"><path d="M 48.085938 50.332031 L 97.9375 100.183594 L 56.570312 141.550781 L 6.71875 91.699219 Z M 48.085938 50.332031 " clip-rule="nonzero"/></clipPath><clipPath id="6b7f22d4f8"><path d="M 56.835938 141.617188 L 6.984375 91.765625 L 48.351562 50.398438 L 98.203125 100.25 Z M 56.835938 141.617188 " clip-rule="nonzero"/></clipPath><clipPath id="a9c343d6bb"><path d="M 40 120 L 47 120 L 47 123 L 40 123 Z M 40 120 " clip-rule="nonzero"/></clipPath><clipPath id="4e0a7f94ea"><path d="M 48.085938 50.332031 L 97.9375 100.183594 L 56.570312 141.550781 L 6.71875 91.699219 Z M 48.085938 50.332031 " clip-rule="nonzero"/></clipPath><clipPath id="4f12cced9f"><path d="M 56.835938 141.617188 L 6.984375 91.765625 L 48.351562 50.398438 L 98.203125 100.25 Z M 56.835938 141.617188 " clip-rule="nonzero"/></clipPath><clipPath id="59dc81f791"><path d="M 61 74 L 84 74 L 84 102 L 61 102 Z M 61 74 " clip-rule="nonzero"/></clipPath><clipPath id="28a627bd87"><path d="M 48.085938 50.332031 L 97.9375 100.183594 L 56.570312 141.550781 L 6.71875 91.699219 Z M 48.085938 50.332031 " clip-rule="nonzero"/></clipPath><clipPath id="cf2a286ec2"><path d="M 56.835938 141.617188 L 6.984375 91.765625 L 48.351562 50.398438 L 98.203125 100.25 Z M 56.835938 141.617188 " clip-rule="nonzero"/></clipPath><clipPath id="003c2856c2"><path d="M 34 109 L 55 109 L 55 125 L 34 125 Z M 34 109 " clip-rule="nonzero"/></clipPath><clipPath id="f35215fc82"><path d="M 48.085938 50.332031 L 97.9375 100.183594 L 56.570312 141.550781 L 6.71875 91.699219 Z M 48.085938 50.332031 " clip-rule="nonzero"/></clipPath><clipPath id="5efb50a8d6"><path d="M 56.835938 141.617188 L 6.984375 91.765625 L 48.351562 50.398438 L 98.203125 100.25 Z M 56.835938 141.617188 " clip-rule="nonzero"/></clipPath><clipPath id="f01d61f7a7"><path d="M 36 116 L 55 116 L 55 121 L 36 121 Z M 36 116 " clip-rule="nonzero"/></clipPath><clipPath id="ae30232da9"><path d="M 48.085938 50.332031 L 97.9375 100.183594 L 56.570312 141.550781 L 6.71875 91.699219 Z M 48.085938 50.332031 " clip-rule="nonzero"/></clipPath><clipPath id="c011df7d28"><path d="M 56.835938 141.617188 L 6.984375 91.765625 L 48.351562 50.398438 L 98.203125 100.25 Z M 56.835938 141.617188 " clip-rule="nonzero"/></clipPath><clipPath id="6ceeacca59"><path d="M 44 83 L 73 83 L 73 125 L 44 125 Z M 44 83 " clip-rule="nonzero"/></clipPath><clipPath id="91f05d465c"><path d="M 48.085938 50.332031 L 97.9375 100.183594 L 56.570312 141.550781 L 6.71875 91.699219 Z M 48.085938 50.332031 " clip-rule="nonzero"/></clipPath><clipPath id="8452c3659a"><path d="M 56.835938 141.617188 L 6.984375 91.765625 L 48.351562 50.398438 L 98.203125 100.25 Z M 56.835938 141.617188 " clip-rule="nonzero"/></clipPath><clipPath id="74af32706b"><path d="M 65 79 L 82 79 L 82 120 L 65 120 Z M 65 79 " clip-rule="nonzero"/></clipPath><clipPath id="447d81c80c"><path d="M 48.085938 50.332031 L 97.9375 100.183594 L 56.570312 141.550781 L 6.71875 91.699219 Z M 48.085938 50.332031 " clip-rule="nonzero"/></clipPath><clipPath id="b6e3b1d476"><path d="M 56.835938 141.617188 L 6.984375 91.765625 L 48.351562 50.398438 L 98.203125 100.25 Z M 56.835938 141.617188 " clip-rule="nonzero"/></clipPath><clipPath id="580573a827"><path d="M 45 87 L 71 87 L 71 117 L 45 117 Z M 45 87 " clip-rule="nonzero"/></clipPath><clipPath id="d75a43a790"><path d="M 48.085938 50.332031 L 97.9375 100.183594 L 56.570312 141.550781 L 6.71875 91.699219 Z M 48.085938 50.332031 " clip-rule="nonzero"/></clipPath><clipPath id="7070049466"><path d="M 56.835938 141.617188 L 6.984375 91.765625 L 48.351562 50.398438 L 98.203125 100.25 Z M 56.835938 141.617188 " clip-rule="nonzero"/></clipPath><clipPath id="d064e6d5bf"><path d="M 53 88 L 72 88 L 72 120 L 53 120 Z M 53 88 " clip-rule="nonzero"/></clipPath><clipPath id="fb48cfac03"><path d="M 48.085938 50.332031 L 97.9375 100.183594 L 56.570312 141.550781 L 6.71875 91.699219 Z M 48.085938 50.332031 " clip-rule="nonzero"/></clipPath><clipPath id="ca555555bb"><path d="M 56.835938 141.617188 L 6.984375 91.765625 L 48.351562 50.398438 L 98.203125 100.25 Z M 56.835938 141.617188 " clip-rule="nonzero"/></clipPath><clipPath id="7daa05dbab"><path d="M 66 88 L 76 88 L 76 127 L 66 127 Z M 66 88 " clip-rule="nonzero"/></clipPath><clipPath id="f16b34d7ed"><path d="M 48.085938 50.332031 L 97.9375 100.183594 L 56.570312 141.550781 L 6.71875 91.699219 Z M 48.085938 50.332031 " clip-rule="nonzero"/></clipPath><clipPath id="073868e92d"><path d="M 56.835938 141.617188 L 6.984375 91.765625 L 48.351562 50.398438 L 98.203125 100.25 Z M 56.835938 141.617188 " clip-rule="nonzero"/></clipPath><clipPath id="10efb63586"><path d="M 49 123 L 54 123 L 54 131 L 49 131 Z M 49 123 " clip-rule="nonzero"/></clipPath><clipPath id="3b1f754e7e"><path d="M 48.085938 50.332031 L 97.9375 100.183594 L 56.570312 141.550781 L 6.71875 91.699219 Z M 48.085938 50.332031 " clip-rule="nonzero"/></clipPath><clipPath id="fb86bb6eef"><path d="M 56.835938 141.617188 L 6.984375 91.765625 L 48.351562 50.398438 L 98.203125 100.25 Z M 56.835938 141.617188 " clip-rule="nonzero"/></clipPath><clipPath id="5fd0883537"><path d="M 54 112 L 71 112 L 71 129 L 54 129 Z M 54 112 " clip-rule="nonzero"/></clipPath><clipPath id="2e59e628af"><path d="M 48.085938 50.332031 L 97.9375 100.183594 L 56.570312 141.550781 L 6.71875 91.699219 Z M 48.085938 50.332031 " clip-rule="nonzero"/></clipPath><clipPath id="62c6d557ec"><path d="M 56.835938 141.617188 L 6.984375 91.765625 L 48.351562 50.398438 L 98.203125 100.25 Z M 56.835938 141.617188 " clip-rule="nonzero"/></clipPath><clipPath id="c817617eee"><path d="M 93.9375 102.023438 L 123.4375 102.023438 L 123.4375 124.054688 L 93.9375 124.054688 Z M 93.9375 102.023438 " clip-rule="nonzero"/></clipPath><clipPath id="3983f2d79d"><path d="M 93 54 L 123.441406 54 L 123.441406 77 L 93 77 Z M 93 54 " clip-rule="nonzero"/></clipPath><clipPath id="b32f48bbe6"><path d="M 90.441406 72 L 94 72 L 94 106 L 90.441406 106 Z M 90.441406 72 " clip-rule="nonzero"/></clipPath><clipPath id="72e7909a9d"><path d="M 90.441406 72 L 95 72 L 95 106 L 90.441406 106 Z M 90.441406 72 " clip-rule="nonzero"/></clipPath><clipPath id="a8918bcdc3"><path d="M 264 54.226562 L 284.519531 54.226562 L 284.519531 123.976562 L 264 123.976562 Z M 264 54.226562 " clip-rule="nonzero"/></clipPath><clipPath id="0fe01e3caf"><path d="M 263.519531 54.226562 L 284.519531 54.226562 L 284.519531 123.976562 L 263.519531 123.976562 Z M 263.519531 54.226562 " clip-rule="nonzero"/></clipPath><clipPath id="58228dcda7"><path d="M 259.066406 20.902344 L 289.066406 20.902344 L 289.066406 50.152344 L 259.066406 50.152344 Z M 259.066406 20.902344 " clip-rule="nonzero"/></clipPath><clipPath id="648c306b64"><path d="M 216.691406 50.175781 L 251.941406 50.175781 L 251.941406 124.425781 L 216.691406 124.425781 Z M 216.691406 50.175781 " clip-rule="nonzero"/></clipPath><clipPath id="46b6d61b56"><path d="M 131.34375 50.796875 L 204.84375 50.796875 L 204.84375 124.296875 L 131.34375 124.296875 Z M 131.34375 50.796875 " clip-rule="nonzero"/></clipPath><clipPath id="662e9c4062"><path d="M 295.617188 55.582031 L 350.367188 55.582031 L 350.367188 124.582031 L 295.617188 124.582031 Z M 295.617188 55.582031 " clip-rule="nonzero"/></clipPath></defs><g clip-path="url(#b80ee49b51)"><g clip-path="url(#29b26a2d8c)"><g clip-path="url(#c1d17803dd)"><path fill="#ac74fd" d="M 57.828125 68.6875 C 57.828125 68.6875 55.222656 66.160156 56.042969 62.5 C 56.875 58.800781 59.941406 59.703125 60.082031 61.519531 C 60.160156 62.488281 58.738281 62.285156 57.890625 64.605469 C 57.050781 66.925781 57.828125 68.6875 57.828125 68.6875 " fill-opacity="1" fill-rule="nonzero"/></g></g></g><g clip-path="url(#29b9a3e0a5)"><g clip-path="url(#d8f0059bd8)"><g clip-path="url(#ee69fd35d6)"><path fill="#ac74fd" d="M 54.417969 65.738281 C 56.898438 71.535156 61.003906 75.816406 61.320312 76.140625 C 46.296875 63.070312 48.210938 52.425781 53.773438 48.726562 C 59.34375 45.035156 62.867188 48.46875 63.421875 51.339844 C 63.976562 54.210938 61.046875 56.378906 60.484375 56.179688 C 59.925781 55.980469 59.871094 54.375 58.128906 53.589844 C 56.382812 52.804688 55.042969 54.148438 55.042969 54.148438 C 55.042969 54.148438 56.503906 54.203125 57.496094 55.585938 C 58.484375 56.972656 57.207031 58.789062 56.277344 58.613281 C 55.347656 58.4375 51.839844 59.695312 54.417969 65.738281 " fill-opacity="1" fill-rule="nonzero"/></g></g></g><g clip-path="url(#86c9a07065)"><g clip-path="url(#221cc1aa76)"><g clip-path="url(#6cc1f4c1ee)"><path fill="#ac74fd" d="M 68.394531 60.574219 C 68.828125 61.082031 68.765625 61.851562 68.253906 62.292969 C 67.742188 62.730469 66.96875 62.671875 66.535156 62.164062 C 66.097656 61.652344 66.160156 60.882812 66.671875 60.445312 C 67.183594 60.003906 67.957031 60.0625 68.394531 60.574219 " fill-opacity="1" fill-rule="nonzero"/></g></g></g><g clip-path="url(#323710207c)"><g clip-path="url(#88888a54c1)"><g clip-path="url(#5c4b27983e)"><path fill="#8651d6" d="M 77.804688 58 C 76.199219 59.945312 74.660156 59.914062 74.035156 59.1875 C 73.414062 58.457031 74.089844 57.878906 74.382812 56.855469 C 74.554688 56.246094 74.382812 55.589844 74.210938 55.160156 L 74.71875 54.929688 C 75.027344 55.589844 75.402344 56.015625 75.964844 56.082031 C 77.242188 56.234375 78.003906 54.082031 77.359375 51.40625 L 78.066406 51.609375 C 78.390625 52.171875 80.015625 55.316406 77.804688 58 " fill-opacity="1" fill-rule="nonzero"/></g></g></g><g clip-path="url(#9258c03555)"><g clip-path="url(#c72ec7b094)"><g clip-path="url(#6e3b1b8c69)"><path fill="#ac74fd" d="M 77.359375 51.40625 C 78.003906 54.082031 77.242188 56.234375 75.964844 56.082031 C 75.402344 56.015625 75.027344 55.589844 74.71875 54.929688 C 73.714844 52.800781 73.398438 48.207031 69.550781 45.273438 C 64.679688 41.566406 59.964844 42.617188 59.652344 42.691406 C 59.96875 42.546875 65.144531 40.34375 71.925781 44.40625 C 75.183594 46.355469 76.800781 49.082031 77.359375 51.40625 " fill-opacity="1" fill-rule="nonzero"/></g></g></g><g clip-path="url(#e1a3ddf601)"><g clip-path="url(#93343feae4)"><g clip-path="url(#8b760569c1)"><path fill="#ac74fd" d="M 72.203125 55.90625 C 70.9375 57.535156 69.152344 56.4375 68.953125 54.597656 C 68.964844 54.160156 68.925781 53.660156 68.8125 53.082031 C 68.183594 49.835938 63.445312 45.550781 57.539062 45.945312 C 54.082031 46.175781 50.492188 48.449219 49.03125 52.394531 L 48.996094 52.378906 C 50.640625 46.320312 58.78125 42.265625 65.492188 44.863281 C 72.203125 47.464844 73.550781 54.171875 72.203125 55.90625 " fill-opacity="1" fill-rule="nonzero"/></g></g></g><g clip-path="url(#fc6fc193bf)"><g clip-path="url(#3a786abd9a)"><g clip-path="url(#5e28f66dd6)"><path fill="#ac74fd" d="M 57.226562 80.121094 C 59.285156 83.332031 60.945312 86.628906 61.925781 90.171875 C 61.769531 89.734375 59.683594 84.085938 52.28125 76.632812 C 44.570312 68.875 32.601562 62.523438 33.667969 51.910156 C 33.667969 51.910156 33.609375 51.507812 33.554688 50.902344 C 34.359375 55.453125 39.011719 59.976562 43.566406 64.394531 C 46.898438 67.625 50.730469 71.5625 53.375 74.71875 C 53.378906 74.71875 53.378906 74.722656 53.382812 74.726562 C 54.761719 76.515625 56.058594 78.300781 57.226562 80.121094 " fill-opacity="1" fill-rule="nonzero"/></g></g></g><g clip-path="url(#27913458d5)"><g clip-path="url(#bfc03516cd)"><g clip-path="url(#f78906e252)"><path fill="#8651d6" d="M 70.898438 93.441406 C 70.78125 94.027344 70.632812 94.542969 70.464844 94.996094 C 72.1875 87.34375 64.425781 80.453125 64.425781 80.453125 L 64.390625 80.484375 C 63.402344 79.09375 62.625 78.402344 62.625 78.402344 C 70.171875 81.699219 71.824219 88.871094 70.898438 93.441406 " fill-opacity="1" fill-rule="nonzero"/></g></g></g><g clip-path="url(#7fbbfe3596)"><g clip-path="url(#9321cfd045)"><g clip-path="url(#8b6721455b)"><path fill="#8651d6" d="M 72.9375 82.53125 C 75.792969 86.785156 74.777344 90.273438 74.777344 90.273438 C 73.699219 84.792969 71.507812 84.628906 66.136719 79.71875 C 60.765625 74.804688 58.476562 71.332031 58.476562 71.332031 C 60.25 73.40625 62.652344 76.101562 67.359375 78.867188 C 72.066406 81.628906 72.9375 82.53125 72.9375 82.53125 " fill-opacity="1" fill-rule="nonzero"/></g></g></g><g clip-path="url(#3fe90ea3e9)"><g clip-path="url(#3d8322f7e6)"><g clip-path="url(#4330d055cd)"><path fill="#8651d6" d="M 49.234375 65.65625 C 48.484375 64.152344 47.808594 62.636719 47.242188 61.121094 L 47.242188 61.117188 C 44.613281 52.726562 47.578125 43.234375 57.210938 39.628906 C 61.613281 37.988281 65.675781 38.164062 69.0625 39.210938 C 73.582031 40.613281 76.894531 43.566406 78.210938 45.820312 C 80.515625 49.765625 78.011719 51.519531 78.011719 51.519531 C 78.011719 51.519531 78.03125 51.550781 78.066406 51.609375 L 77.359375 51.40625 C 76.800781 49.082031 75.183594 46.355469 71.925781 44.40625 C 65.144531 40.34375 59.96875 42.546875 59.652344 42.691406 C 59.964844 42.617188 64.679688 41.566406 69.550781 45.273438 C 73.398438 48.207031 73.714844 52.800781 74.71875 54.929688 L 74.210938 55.160156 C 74.09375 54.867188 73.980469 54.675781 73.980469 54.675781 C 73.601562 60.046875 69.269531 59.773438 68.488281 58.402344 C 67.847656 57.28125 68.90625 56.601562 68.953125 54.597656 C 69.152344 56.4375 70.9375 57.535156 72.203125 55.90625 C 73.550781 54.171875 72.203125 47.464844 65.492188 44.863281 C 58.78125 42.265625 50.640625 46.320312 48.996094 52.378906 L 49.03125 52.394531 C 47.992188 55.183594 48.023438 58.808594 49.910156 63.140625 C 50.511719 64.523438 51.164062 65.78125 51.84375 66.9375 C 56.734375 77.300781 66.71875 86.648438 64.8125 98.941406 L 64.75 98.933594 C 64.976562 97.347656 65.066406 92.894531 61.066406 85.363281 C 60.136719 83.621094 58.992188 81.753906 57.746094 79.792969 C 54.972656 75.433594 51.707031 70.613281 49.234375 65.65625 " fill-opacity="1" fill-rule="nonzero"/></g></g></g><g clip-path="url(#00f1f0970e)"><g clip-path="url(#4ac0a22a2f)"><g clip-path="url(#906fd90201)"><path fill="#8651d6" d="M 83.699219 49.613281 C 84.109375 50.09375 84.050781 50.8125 83.566406 51.226562 C 83.085938 51.640625 82.363281 51.585938 81.953125 51.105469 C 81.542969 50.625 81.597656 49.90625 82.082031 49.492188 C 82.566406 49.078125 83.289062 49.132812 83.699219 49.613281 " fill-opacity="1" fill-rule="nonzero"/></g></g></g><g clip-path="url(#1fecc3f33f)"><g clip-path="url(#d6ae1d646e)"><g clip-path="url(#2fabacd46e)"><path fill="#8651d6" d="M 81.902344 42.953125 C 84.421875 44.203125 84.527344 46.816406 82.855469 47.085938 C 81.179688 47.351562 81.273438 46.207031 80.378906 44.644531 C 79.480469 43.085938 77.886719 42.992188 77.886719 42.992188 C 77.886719 42.992188 80.039062 42.027344 81.902344 42.953125 " fill-opacity="1" fill-rule="nonzero"/></g></g></g><g clip-path="url(#ad34f4bb82)"><g clip-path="url(#0f50eb1628)"><g clip-path="url(#880f70674e)"><path fill="#ac74fd" d="M 71.097656 34.890625 C 68.238281 33.996094 63.472656 33.878906 57.617188 36.613281 C 59.753906 35.441406 61.921875 34.527344 63.828125 33.867188 C 65.941406 33.136719 67.742188 32.710938 68.84375 32.589844 C 72.496094 32.183594 76.539062 33.085938 77.675781 36.867188 C 78.695312 40.253906 74.269531 42.011719 73.304688 39.058594 C 73.304688 39.058594 74.71875 38.375 73.9375 36.71875 C 73.644531 36.097656 72.65625 35.382812 71.105469 34.894531 C 71.101562 34.890625 71.101562 34.894531 71.097656 34.890625 " fill-opacity="1" fill-rule="nonzero"/></g></g></g><g clip-path="url(#3f0156f65a)"><g clip-path="url(#bb998451db)"><g clip-path="url(#bdc6d2f2fd)"><path fill="#8651d6" d="M 75.832031 28.292969 C 77.769531 27.703125 78.773438 29.140625 76.984375 29.863281 C 75.195312 30.582031 73.433594 29.632812 71.609375 30.386719 C 71.609375 30.386719 72.699219 29.667969 74.007812 29.027344 C 74.601562 28.742188 75.230469 28.472656 75.832031 28.292969 " fill-opacity="1" fill-rule="nonzero"/></g></g></g><g clip-path="url(#19edc687b0)"><g clip-path="url(#fda0494df4)"><g clip-path="url(#0006f16181)"><path fill="#6030b1" d="M 53.375 74.71875 C 50.730469 71.5625 46.898438 67.625 43.566406 64.394531 C 39.011719 59.976562 34.359375 55.453125 33.554688 50.902344 C 33.460938 49.84375 33.367188 48.171875 33.601562 46.925781 C 33.96875 44.960938 34.429688 48.976562 38.054688 54.757812 C 41.457031 60.179688 45.484375 64.980469 49.300781 69.632812 C 50.703125 71.339844 52.078125 73.027344 53.375 74.71875 " fill-opacity="1" fill-rule="nonzero"/></g></g></g><g clip-path="url(#b6e4919893)"><g clip-path="url(#72887f6b21)"><g clip-path="url(#848c5fc43e)"><path fill="#6030b1" d="M 64.171875 33.304688 C 69.085938 30.777344 74.222656 31.6875 77.207031 33.585938 C 80.199219 35.484375 82.191406 34.847656 81.910156 33.152344 C 81.625 31.453125 79.472656 30.871094 73.808594 30.867188 C 73.101562 30.863281 72.410156 30.90625 71.742188 30.976562 L 71.609375 30.386719 C 73.433594 29.632812 75.195312 30.582031 76.984375 29.863281 C 78.773438 29.140625 77.769531 27.703125 75.832031 28.292969 C 75.230469 28.472656 74.601562 28.742188 74.007812 29.027344 L 73.726562 28.425781 C 74.457031 28.03125 75.199219 27.441406 75.941406 27.199219 C 77.421875 26.707031 78.8125 27.652344 79.109375 28.5625 C 79.398438 29.476562 77.761719 29.667969 78.183594 30.277344 C 78.605469 30.886719 79.082031 30.183594 80.761719 30.492188 C 82.4375 30.804688 83.652344 32.625 83.289062 34.539062 C 82.929688 36.449219 81.066406 37.410156 80.59375 37.085938 C 80.121094 36.765625 80.652344 36.015625 79.851562 35.589844 C 79.046875 35.164062 78.523438 35.753906 78.523438 35.753906 C 81.257812 38.601562 77.578125 41.945312 75.472656 41.417969 C 73.363281 40.894531 73.304688 39.058594 73.304688 39.058594 C 74.269531 42.011719 78.695312 40.253906 77.675781 36.867188 C 76.539062 33.085938 72.496094 32.183594 68.84375 32.589844 C 67.742188 32.710938 65.941406 33.136719 63.828125 33.867188 L 63.625 33.5625 C 63.632812 33.558594 63.636719 33.558594 63.640625 33.554688 C 63.730469 33.511719 63.8125 33.464844 63.886719 33.417969 C 63.960938 33.375 64.050781 33.324219 64.15625 33.273438 L 64.171875 33.304688 " fill-opacity="1" fill-rule="nonzero"/></g></g></g><g clip-path="url(#f3e7a679b4)"><g clip-path="url(#dc5781afa5)"><g clip-path="url(#1b9dd2b25f)"><path fill="#8651d6" d="M 81.910156 33.152344 C 82.191406 34.847656 80.199219 35.484375 77.207031 33.585938 C 74.222656 31.6875 69.085938 30.777344 64.171875 33.304688 L 64.15625 33.273438 C 65.296875 32.683594 68.167969 31.371094 71.742188 30.976562 C 72.410156 30.90625 73.101562 30.863281 73.808594 30.867188 C 79.472656 30.871094 81.625 31.453125 81.910156 33.152344 " fill-opacity="1" fill-rule="nonzero"/></g></g></g><g clip-path="url(#7b608668e5)"><g clip-path="url(#e1a6e0dabe)"><g clip-path="url(#f35f6c7515)"><path fill="#6030b1" d="M 46.921875 60.914062 C 46.917969 60.902344 46.914062 60.890625 46.910156 60.878906 C 46.527344 59.917969 46.191406 58.941406 45.90625 57.957031 C 45.90625 57.953125 45.90625 57.949219 45.902344 57.949219 C 44.03125 51.449219 44.363281 44.542969 48.472656 38.765625 C 54.445312 30.355469 62.15625 28.078125 64.027344 28.269531 C 65.898438 28.460938 65.734375 29.527344 65.734375 29.527344 C 67.210938 29.769531 68.175781 28.84375 69.53125 27.347656 C 70.882812 25.851562 72.761719 26.277344 72.863281 27.308594 C 72.964844 28.339844 71.585938 28.496094 71.585938 28.496094 C 72.277344 29.019531 73 28.820312 73.726562 28.425781 L 74.007812 29.027344 C 72.699219 29.667969 71.609375 30.386719 71.609375 30.386719 L 71.742188 30.976562 C 68.167969 31.371094 65.296875 32.683594 64.15625 33.273438 C 64.050781 33.324219 63.960938 33.375 63.886719 33.417969 C 65.851562 32.136719 64.308594 28.730469 59.761719 30.753906 C 55.03125 32.863281 46.957031 38.023438 45.554688 50.183594 C 45.183594 53.414062 45.742188 56.730469 46.859375 60.039062 C 46.980469 60.398438 47.109375 60.757812 47.242188 61.117188 L 47.242188 61.121094 C 47.808594 62.636719 48.484375 64.152344 49.234375 65.65625 C 48.351562 64.132812 47.570312 62.542969 46.921875 60.914062 " fill-opacity="1" fill-rule="nonzero"/></g></g></g><g clip-path="url(#89498d85ac)"><g clip-path="url(#bbaf6d513d)"><g clip-path="url(#ec2b85f646)"><path fill="#8651d6" d="M 49.878906 69.152344 C 49.878906 69.152344 40.582031 57.445312 38.019531 47.609375 C 35.457031 37.773438 36.691406 33.742188 39.425781 30.625 C 41.824219 27.890625 43.308594 27.96875 42.808594 30.800781 C 42.628906 31.378906 42.472656 31.988281 42.351562 32.628906 C 39.925781 41.648438 42.289062 57.664062 49.878906 69.152344 " fill-opacity="1" fill-rule="nonzero"/></g></g></g><g clip-path="url(#ec7bbf62f1)"><g clip-path="url(#9d650218a4)"><g clip-path="url(#1396dad24c)"><path fill="#6030b1" d="M 46.886719 60.03125 C 46.632812 59.28125 44.0625 51.125 48.828125 44.085938 C 50.960938 40.933594 54.257812 38.453125 57.617188 36.613281 C 63.472656 33.878906 68.238281 33.996094 71.097656 34.890625 C 71.101562 34.894531 71.101562 34.890625 71.105469 34.894531 C 72.699219 35.570312 73.105469 37.148438 72.578125 37.980469 C 71.976562 38.929688 70.871094 39.636719 69.074219 39.183594 L 69.0625 39.210938 C 65.675781 38.164062 61.613281 37.988281 57.210938 39.628906 C 47.578125 43.234375 44.613281 52.726562 47.242188 61.117188 C 47.109375 60.757812 46.980469 60.398438 46.859375 60.039062 L 46.886719 60.03125 " fill-opacity="1" fill-rule="nonzero"/></g></g></g><g clip-path="url(#d905a270e9)"><g clip-path="url(#b31e2f71da)"><g clip-path="url(#4b5032a324)"><path fill="#8651d6" d="M 57.617188 36.613281 C 54.257812 38.453125 50.960938 40.933594 48.828125 44.085938 C 44.0625 51.125 46.632812 59.28125 46.886719 60.03125 L 46.859375 60.039062 C 45.742188 56.730469 45.183594 53.414062 45.554688 50.183594 C 46.957031 38.023438 55.03125 32.863281 59.761719 30.753906 C 64.308594 28.730469 65.851562 32.136719 63.886719 33.417969 C 63.753906 33.488281 63.671875 33.535156 63.640625 33.554688 C 63.636719 33.558594 63.632812 33.558594 63.625 33.5625 L 63.828125 33.867188 C 61.921875 34.527344 59.753906 35.441406 57.617188 36.613281 " fill-opacity="1" fill-rule="nonzero"/></g></g></g><g clip-path="url(#eea100dd7a)"><g clip-path="url(#250f84f60c)"><g clip-path="url(#08f705d08f)"><path fill="#6030b1" d="M 45.90625 57.957031 C 46.191406 58.941406 46.527344 59.917969 46.910156 60.878906 C 44.289062 54.582031 41.273438 42.933594 42.128906 34.199219 C 42.179688 33.65625 42.257812 33.132812 42.351562 32.628906 C 42.394531 32.464844 42.441406 32.304688 42.484375 32.148438 C 42.636719 31.648438 42.742188 31.199219 42.808594 30.800781 C 44.929688 24.0625 50.785156 21.652344 52.324219 22.859375 C 54.101562 24.25 48.367188 25.757812 45.832031 32.488281 C 43.8125 37.835938 42.300781 46.835938 45.902344 57.949219 C 45.90625 57.949219 45.90625 57.953125 45.90625 57.957031 " fill-opacity="1" fill-rule="nonzero"/></g></g></g><g clip-path="url(#8bd3a65d9f)"><g clip-path="url(#e889bd4ec3)"><g clip-path="url(#f4b7997e35)"><path fill="#6030b1" d="M 69.53125 24.078125 C 68.472656 26.25 65.21875 26.691406 65.0625 26.710938 C 65.167969 26.644531 66.757812 25.683594 66.664062 24.074219 C 66.574219 22.40625 66.226562 20.667969 67.660156 20.410156 C 69.097656 20.148438 70.621094 21.855469 69.53125 24.078125 " fill-opacity="1" fill-rule="nonzero"/></g></g></g><g clip-path="url(#47caac0007)"><g clip-path="url(#fe24ba5fd3)"><g clip-path="url(#d9a039c06e)"><path fill="#6030b1" d="M 63.304688 21.0625 C 64.007812 21.042969 65.769531 24.773438 62.070312 27.292969 C 58.371094 29.8125 51.699219 27.5625 47.777344 36.738281 C 47.777344 36.738281 48.222656 32.546875 51.660156 28.957031 C 55.09375 25.371094 59.0625 24.691406 61.011719 23.089844 C 62.960938 21.488281 62.605469 21.078125 63.304688 21.0625 " fill-opacity="1" fill-rule="nonzero"/></g></g></g><g clip-path="url(#dc1c5b7a9e)"><g clip-path="url(#07df2b8dc2)"><g clip-path="url(#a719e69f45)"><path fill="#ac74fd" d="M 57.574219 81.066406 C 57.574219 81.066406 60.363281 83.382812 59.832031 87.097656 C 59.292969 90.847656 56.164062 90.191406 55.878906 88.386719 C 55.730469 87.429688 57.164062 87.523438 57.824219 85.144531 C 58.484375 82.761719 57.574219 81.066406 57.574219 81.066406 " fill-opacity="1" fill-rule="nonzero"/></g></g></g><g clip-path="url(#2d08767197)"><g clip-path="url(#9d1cc6093d)"><g clip-path="url(#c219dedb0c)"><path fill="#ac74fd" d="M 61.199219 83.746094 C 58.277344 78.15625 53.855469 74.207031 53.511719 73.90625 C 69.503906 85.773438 68.425781 96.535156 63.164062 100.652344 C 57.898438 104.765625 54.121094 101.617188 53.34375 98.796875 C 52.566406 95.976562 55.316406 93.585938 55.894531 93.746094 C 56.464844 93.898438 56.648438 95.496094 58.445312 96.140625 C 60.246094 96.789062 61.480469 95.347656 61.480469 95.347656 C 61.480469 95.347656 60.015625 95.40625 58.921875 94.101562 C 57.828125 92.796875 58.960938 90.890625 59.898438 90.992188 C 60.839844 91.09375 64.242188 89.566406 61.199219 83.746094 " fill-opacity="1" fill-rule="nonzero"/></g></g></g><g clip-path="url(#54c61902e1)"><g clip-path="url(#744bbcc764)"><g clip-path="url(#4aeaa42610)"><path fill="#ac74fd" d="M 47.667969 89.976562 C 47.195312 89.503906 47.199219 88.730469 47.675781 88.253906 C 48.152344 87.777344 48.925781 87.773438 49.398438 88.246094 C 49.875 88.722656 49.871094 89.496094 49.398438 89.972656 C 48.917969 90.449219 48.144531 90.453125 47.667969 89.976562 " fill-opacity="1" fill-rule="nonzero"/></g></g></g><g clip-path="url(#772dc4c655)"><g clip-path="url(#cddb2676ba)"><g clip-path="url(#a87aa3616c)"><path fill="#8651d6" d="M 38.488281 93.273438 C 39.933594 91.207031 41.472656 91.121094 42.152344 91.796875 C 42.828125 92.476562 42.199219 93.105469 41.988281 94.152344 C 41.863281 94.773438 42.085938 95.410156 42.289062 95.828125 L 41.800781 96.09375 C 41.441406 95.460938 41.039062 95.066406 40.46875 95.042969 C 39.183594 94.992188 38.59375 97.195312 39.441406 99.8125 L 38.722656 99.667969 C 38.355469 99.128906 36.492188 96.121094 38.488281 93.273438 " fill-opacity="1" fill-rule="nonzero"/></g></g></g><g clip-path="url(#636965302e)"><g clip-path="url(#47e3a318d0)"><g clip-path="url(#c2001eac6d)"><path fill="#ac74fd" d="M 39.441406 99.8125 C 38.59375 97.195312 39.183594 94.992188 40.46875 95.042969 C 41.039062 95.066406 41.441406 95.460938 41.800781 96.09375 C 42.96875 98.140625 43.640625 102.695312 47.707031 105.320312 C 52.847656 108.636719 57.464844 107.226562 57.773438 107.125 C 57.46875 107.296875 52.480469 109.894531 45.402344 106.371094 C 42.003906 104.679688 40.179688 102.089844 39.441406 99.8125 " fill-opacity="1" fill-rule="nonzero"/></g></g></g><g clip-path="url(#4577e5e939)"><g clip-path="url(#224be35c77)"><g clip-path="url(#5fe68847cb)"><path fill="#ac74fd" d="M 44.234375 94.929688 C 45.371094 93.203125 47.234375 94.160156 47.578125 95.980469 C 47.597656 96.414062 47.675781 96.910156 47.832031 97.480469 C 48.710938 100.664062 53.769531 104.570312 59.628906 103.71875 C 63.058594 103.21875 66.457031 100.671875 67.609375 96.628906 L 67.644531 96.636719 C 66.476562 102.808594 58.675781 107.484375 51.78125 105.414062 C 44.886719 103.34375 43.023438 96.761719 44.234375 94.929688 " fill-opacity="1" fill-rule="nonzero"/></g></g></g><g clip-path="url(#3586087e0e)"><g clip-path="url(#adb676353b)"><g clip-path="url(#56e7448eda)"><path fill="#ac74fd" d="M 57.28125 69.621094 C 54.980469 66.582031 53.070312 63.421875 51.816406 59.964844 C 52.007812 60.390625 54.527344 65.859375 62.484375 72.714844 C 70.777344 79.851562 83.199219 85.253906 82.960938 95.914062 C 82.960938 95.914062 83.050781 96.3125 83.15625 96.914062 C 81.996094 92.4375 77.007812 88.289062 72.121094 84.238281 C 68.550781 81.277344 64.425781 77.652344 61.542969 74.710938 C 61.539062 74.707031 61.539062 74.703125 61.535156 74.699219 C 60.023438 73.027344 58.589844 71.34375 57.28125 69.621094 " fill-opacity="1" fill-rule="nonzero"/></g></g></g><g clip-path="url(#85b1dceec8)"><g clip-path="url(#d826c4cd88)"><g clip-path="url(#3c28dde1c9)"><path fill="#8651d6" d="M 42.617188 57.402344 C 42.691406 56.808594 42.796875 56.28125 42.929688 55.816406 C 41.808594 63.585938 50.078125 69.847656 50.078125 69.847656 L 50.113281 69.816406 C 51.207031 71.125 52.035156 71.753906 52.035156 71.753906 C 44.253906 69.054688 42.050781 62.03125 42.617188 57.402344 " fill-opacity="1" fill-rule="nonzero"/></g></g></g><g clip-path="url(#9bc505a0e8)"><g clip-path="url(#098fcf4add)"><g clip-path="url(#e49e2e0f8d)"><path fill="#8651d6" d="M 41.433594 68.4375 C 38.257812 64.421875 39 60.863281 39 60.863281 C 40.5 66.242188 42.695312 66.238281 48.429688 70.714844 C 54.167969 75.195312 56.71875 78.480469 56.71875 78.480469 C 54.792969 76.550781 52.183594 74.050781 47.277344 71.660156 C 42.371094 69.269531 41.433594 68.4375 41.433594 68.4375 " fill-opacity="1" fill-rule="nonzero"/></g></g></g><g clip-path="url(#1020bd68c2)"><g clip-path="url(#0b58fc80c4)"><g clip-path="url(#55d94fc627)"><path fill="#8651d6" d="M 66.375 83.421875 C 67.242188 84.863281 68.03125 86.320312 68.714844 87.789062 L 68.714844 87.792969 C 71.988281 95.953125 69.769531 105.648438 60.445312 109.988281 C 56.183594 111.96875 52.121094 112.109375 48.660156 111.328125 C 44.050781 110.28125 40.515625 107.59375 39.027344 105.449219 C 36.425781 101.691406 38.78125 99.753906 38.78125 99.753906 C 38.78125 99.753906 38.761719 99.722656 38.722656 99.667969 L 39.441406 99.8125 C 40.179688 102.089844 42.003906 104.679688 45.402344 106.371094 C 52.480469 109.894531 57.46875 107.296875 57.773438 107.125 C 57.464844 107.226562 52.847656 108.636719 47.707031 105.320312 C 43.640625 102.695312 42.96875 98.140625 41.800781 96.09375 L 42.289062 95.828125 C 42.429688 96.109375 42.554688 96.292969 42.554688 96.292969 C 42.519531 90.910156 46.859375 90.84375 47.742188 92.148438 C 48.46875 93.21875 47.46875 93.976562 47.578125 95.980469 C 47.234375 94.160156 45.371094 93.203125 44.234375 94.929688 C 43.023438 96.761719 44.886719 103.34375 51.78125 105.414062 C 58.675781 107.484375 66.476562 102.808594 67.644531 96.636719 L 67.609375 96.628906 C 68.425781 93.769531 68.117188 90.152344 65.898438 85.980469 C 65.191406 84.648438 64.445312 83.449219 63.671875 82.347656 C 57.992188 72.394531 47.3125 63.851562 48.257812 51.445312 L 48.320312 51.449219 C 48.21875 53.050781 48.476562 57.496094 53.050781 64.691406 C 54.109375 66.359375 55.398438 68.132812 56.792969 69.988281 C 59.894531 74.117188 63.527344 78.667969 66.375 83.421875 " fill-opacity="1" fill-rule="nonzero"/></g></g></g><g clip-path="url(#6619e61b33)"><g clip-path="url(#59090074fc)"><g clip-path="url(#ec6c0e6749)"><path fill="#8651d6" d="M 33.261719 102.09375 C 32.816406 101.648438 32.816406 100.925781 33.265625 100.472656 C 33.714844 100.023438 34.441406 100.023438 34.886719 100.46875 C 35.335938 100.917969 35.332031 101.640625 34.882812 102.089844 C 34.433594 102.539062 33.710938 102.542969 33.261719 102.09375 " fill-opacity="1" fill-rule="nonzero"/></g></g></g><g clip-path="url(#df1eef4f5d)"><g clip-path="url(#8b5553c9ec)"><g clip-path="url(#5877995aa5)"><path fill="#8651d6" d="M 35.570312 108.59375 C 32.964844 107.546875 32.652344 104.945312 34.300781 104.550781 C 35.949219 104.152344 35.945312 105.300781 36.957031 106.789062 C 37.976562 108.273438 39.570312 108.242188 39.570312 108.242188 C 39.570312 108.242188 37.5 109.375 35.570312 108.59375 " fill-opacity="1" fill-rule="nonzero"/></g></g></g><g clip-path="url(#84637283cc)"><g clip-path="url(#e0e7bcd3b6)"><g clip-path="url(#6b7f22d4f8)"><path fill="#ac74fd" d="M 46.96875 115.792969 C 49.886719 116.464844 54.648438 116.210938 60.273438 113.027344 C 58.234375 114.363281 56.144531 115.441406 54.296875 116.25 C 52.242188 117.144531 50.480469 117.703125 49.394531 117.910156 C 45.785156 118.601562 41.683594 118.011719 40.257812 114.332031 C 38.980469 111.035156 43.253906 108.9375 44.445312 111.8125 C 44.445312 111.8125 43.085938 112.597656 43.996094 114.191406 C 44.335938 114.785156 45.375 115.425781 46.960938 115.789062 C 46.964844 115.792969 46.964844 115.789062 46.96875 115.792969 " fill-opacity="1" fill-rule="nonzero"/></g></g></g><g clip-path="url(#a9c343d6bb)"><g clip-path="url(#4e0a7f94ea)"><g clip-path="url(#4f12cced9f)"><path fill="#8651d6" d="M 42.761719 122.738281 C 40.878906 123.476562 39.765625 122.121094 41.492188 121.261719 C 43.21875 120.40625 45.046875 121.21875 46.808594 120.324219 C 46.808594 120.324219 45.777344 121.125 44.523438 121.863281 C 43.953125 122.191406 43.347656 122.511719 42.761719 122.738281 " fill-opacity="1" fill-rule="nonzero"/></g></g></g><g clip-path="url(#59dc81f791)"><g clip-path="url(#28a627bd87)"><g clip-path="url(#cf2a286ec2)"><path fill="#6030b1" d="M 61.542969 74.710938 C 64.425781 77.652344 68.550781 81.277344 72.121094 84.238281 C 77.007812 88.289062 81.996094 92.4375 83.15625 96.914062 C 83.332031 97.957031 83.554688 99.617188 83.417969 100.878906 C 83.203125 102.867188 82.433594 98.902344 78.367188 93.417969 C 74.554688 88.277344 70.164062 83.800781 66.003906 79.464844 C 64.46875 77.871094 62.96875 76.292969 61.542969 74.710938 " fill-opacity="1" fill-rule="nonzero"/></g></g></g><g clip-path="url(#003c2856c2)"><g clip-path="url(#f35215fc82)"><g clip-path="url(#5efb50a8d6)"><path fill="#6030b1" d="M 53.996094 116.835938 C 49.292969 119.738281 44.101562 119.226562 40.980469 117.570312 C 37.847656 115.90625 35.910156 116.695312 36.324219 118.367188 C 36.738281 120.039062 38.933594 120.449219 44.578125 120.015625 C 45.285156 119.960938 45.96875 119.867188 46.628906 119.742188 L 46.808594 120.324219 C 45.046875 121.21875 43.21875 120.40625 41.492188 121.261719 C 39.765625 122.121094 40.878906 123.476562 42.761719 122.738281 C 43.347656 122.511719 43.953125 122.191406 44.523438 121.863281 L 44.851562 122.441406 C 44.152344 122.894531 43.457031 123.535156 42.738281 123.835938 C 41.300781 124.441406 39.839844 123.609375 39.472656 122.722656 C 39.113281 121.835938 40.730469 121.515625 40.261719 120.941406 C 39.792969 120.367188 39.375 121.105469 37.675781 120.925781 C 35.980469 120.746094 34.625 119.023438 34.839844 117.09375 C 35.054688 115.15625 36.835938 114.054688 37.332031 114.339844 C 37.824219 114.625 37.355469 115.414062 38.1875 115.777344 C 39.023438 116.136719 39.496094 115.507812 39.496094 115.507812 C 36.550781 112.878906 39.960938 109.261719 42.101562 109.625 C 44.242188 109.980469 44.445312 111.8125 44.445312 111.8125 C 43.253906 108.9375 38.980469 111.035156 40.257812 114.332031 C 41.683594 118.011719 45.785156 118.601562 49.394531 117.910156 C 50.480469 117.703125 52.242188 117.144531 54.296875 116.25 L 54.519531 116.539062 C 54.515625 116.542969 54.511719 116.542969 54.507812 116.546875 C 54.421875 116.59375 54.34375 116.648438 54.273438 116.703125 C 54.203125 116.75 54.117188 116.804688 54.011719 116.867188 L 53.996094 116.835938 " fill-opacity="1" fill-rule="nonzero"/></g></g></g><g clip-path="url(#f01d61f7a7)"><g clip-path="url(#ae30232da9)"><g clip-path="url(#c011df7d28)"><path fill="#8651d6" d="M 36.324219 118.367188 C 35.910156 116.695312 37.847656 115.90625 40.980469 117.570312 C 44.101562 119.226562 49.292969 119.738281 53.996094 116.835938 L 54.011719 116.867188 C 52.925781 117.542969 50.164062 119.074219 46.628906 119.742188 C 45.96875 119.867188 45.285156 119.960938 44.578125 120.015625 C 38.933594 120.449219 36.738281 120.039062 36.324219 118.367188 " fill-opacity="1" fill-rule="nonzero"/></g></g></g><g clip-path="url(#6ceeacca59)"><g clip-path="url(#91f05d465c)"><g clip-path="url(#8452c3659a)"><path fill="#6030b1" d="M 69.050781 87.96875 C 69.054688 87.984375 69.058594 87.992188 69.066406 88.003906 C 69.523438 88.933594 69.929688 89.878906 70.292969 90.839844 C 70.292969 90.839844 70.292969 90.84375 70.296875 90.847656 C 72.667969 97.183594 72.871094 104.09375 69.226562 110.171875 C 63.921875 119.019531 56.410156 121.890625 54.53125 121.84375 C 52.652344 121.796875 52.730469 120.726562 52.730469 120.726562 C 51.242188 120.597656 50.351562 121.59375 49.117188 123.191406 C 47.882812 124.789062 45.980469 124.507812 45.796875 123.488281 C 45.617188 122.46875 46.976562 122.203125 46.976562 122.203125 C 46.246094 121.738281 45.546875 121.992188 44.851562 122.441406 L 44.523438 121.863281 C 45.777344 121.125 46.808594 120.324219 46.808594 120.324219 L 46.628906 119.742188 C 50.164062 119.074219 52.925781 117.542969 54.011719 116.867188 C 54.117188 116.804688 54.203125 116.75 54.273438 116.703125 C 52.414062 118.128906 54.214844 121.410156 58.589844 119.035156 C 63.144531 116.566406 70.792969 110.792969 71.246094 98.5625 C 71.363281 95.3125 70.550781 92.050781 69.179688 88.835938 C 69.03125 88.488281 68.875 88.140625 68.714844 87.792969 L 68.714844 87.789062 C 68.03125 86.320312 67.242188 84.863281 66.375 83.421875 C 67.375 84.871094 68.277344 86.394531 69.050781 87.96875 " fill-opacity="1" fill-rule="nonzero"/></g></g></g><g clip-path="url(#74af32706b)"><g clip-path="url(#447d81c80c)"><g clip-path="url(#b6e3b1d476)"><path fill="#8651d6" d="M 65.460938 79.988281 C 65.460938 79.988281 75.640625 90.933594 78.960938 100.542969 C 82.277344 110.152344 81.359375 114.265625 78.875 117.585938 C 76.695312 120.496094 75.210938 120.535156 75.488281 117.671875 C 75.625 117.082031 75.730469 116.464844 75.804688 115.816406 C 77.523438 106.632812 73.921875 90.851562 65.460938 79.988281 " fill-opacity="1" fill-rule="nonzero"/></g></g></g><g clip-path="url(#580573a827)"><g clip-path="url(#d75a43a790)"><g clip-path="url(#7070049466)"><path fill="#6030b1" d="M 69.15625 88.847656 C 69.464844 89.574219 72.660156 97.507812 68.457031 104.894531 C 66.574219 108.203125 63.480469 110.933594 60.273438 113.027344 C 54.648438 116.210938 49.886719 116.464844 46.96875 115.792969 C 46.964844 115.789062 46.964844 115.792969 46.960938 115.789062 C 45.320312 115.242188 44.792969 113.699219 45.253906 112.828125 C 45.777344 111.835938 46.824219 111.042969 48.652344 111.355469 L 48.660156 111.328125 C 52.121094 112.109375 56.183594 111.96875 60.445312 109.988281 C 69.769531 105.648438 71.988281 95.953125 68.714844 87.792969 C 68.875 88.140625 69.03125 88.488281 69.179688 88.835938 L 69.15625 88.847656 " fill-opacity="1" fill-rule="nonzero"/></g></g></g><g clip-path="url(#d064e6d5bf)"><g clip-path="url(#fb48cfac03)"><g clip-path="url(#ca555555bb)"><path fill="#8651d6" d="M 60.273438 113.027344 C 63.480469 110.933594 66.574219 108.203125 68.457031 104.894531 C 72.660156 97.507812 69.464844 89.574219 69.15625 88.847656 L 69.179688 88.835938 C 70.550781 92.050781 71.363281 95.3125 71.246094 98.5625 C 70.792969 110.792969 63.144531 116.566406 58.589844 119.035156 C 54.214844 121.410156 52.414062 118.128906 54.273438 116.703125 C 54.398438 116.621094 54.476562 116.566406 54.507812 116.546875 C 54.511719 116.542969 54.515625 116.542969 54.519531 116.539062 L 54.296875 116.25 C 56.144531 115.441406 58.234375 114.363281 60.273438 113.027344 " fill-opacity="1" fill-rule="nonzero"/></g></g></g><g clip-path="url(#7daa05dbab)"><g clip-path="url(#f16b34d7ed)"><g clip-path="url(#073868e92d)"><path fill="#6030b1" d="M 70.292969 90.839844 C 69.929688 89.878906 69.523438 88.933594 69.066406 88.003906 C 72.167969 94.078125 76.078125 105.457031 75.90625 114.230469 C 75.894531 114.777344 75.859375 115.304688 75.804688 115.816406 C 75.773438 115.980469 75.742188 116.144531 75.707031 116.304688 C 75.597656 116.8125 75.523438 117.269531 75.488281 117.671875 C 73.898438 124.554688 68.246094 127.414062 66.617188 126.332031 C 64.742188 125.082031 70.339844 123.132812 72.34375 116.226562 C 73.941406 110.734375 74.75 101.644531 70.296875 90.847656 C 70.292969 90.84375 70.292969 90.839844 70.292969 90.839844 " fill-opacity="1" fill-rule="nonzero"/></g></g></g><g clip-path="url(#10efb63586)"><g clip-path="url(#3b1f754e7e)"><g clip-path="url(#fb86bb6eef)"><path fill="#6030b1" d="M 49.371094 126.449219 C 50.257812 124.203125 53.464844 123.511719 53.621094 123.476562 C 53.519531 123.550781 52.011719 124.636719 52.226562 126.230469 C 52.449219 127.886719 52.929688 129.59375 51.519531 129.964844 C 50.105469 130.332031 48.457031 128.75 49.371094 126.449219 " fill-opacity="1" fill-rule="nonzero"/></g></g></g><g clip-path="url(#5fd0883537)"><g clip-path="url(#2e59e628af)"><g clip-path="url(#62c6d557ec)"><path fill="#6030b1" d="M 55.808594 128.976562 C 55.113281 129.046875 53.066406 125.464844 56.558594 122.664062 C 60.050781 119.867188 66.878906 121.589844 70.074219 112.140625 C 70.074219 112.140625 69.957031 116.355469 66.808594 120.199219 C 63.664062 124.039062 59.757812 125.027344 57.941406 126.773438 C 56.125 128.519531 56.507812 128.902344 55.808594 128.976562 " fill-opacity="1" fill-rule="nonzero"/></g></g></g><path fill="#ac74fd" d="M 91.414062 105.691406 C 103.527344 105.691406 113.347656 98.371094 113.347656 89.339844 C 113.347656 80.3125 103.527344 72.992188 91.414062 72.992188 " fill-opacity="1" fill-rule="nonzero"/><path fill="#8651d6" d="M 91.414062 105.882812 L 91.414062 105.5 C 103.398438 105.5 113.152344 98.25 113.152344 89.339844 C 113.152344 80.433594 103.398438 73.183594 91.414062 73.183594 L 91.414062 72.796875 C 103.613281 72.796875 113.539062 80.21875 113.539062 89.339844 C 113.539062 98.464844 103.613281 105.882812 91.414062 105.882812 " fill-opacity="1" fill-rule="nonzero"/><g clip-path="url(#c817617eee)"><path fill="#6030b1" d="M 102.476562 102.230469 C 102.476562 102.230469 101.3125 116.65625 109.464844 119.734375 C 117.617188 122.8125 123.4375 114.347656 123.4375 114.347656 C 123.4375 114.347656 117.617188 128.199219 102.476562 122.8125 C 102.476562 122.8125 94.324219 117.808594 93.9375 103.960938 C 93.9375 103.960938 96.652344 101.265625 102.476562 102.230469 " fill-opacity="1" fill-rule="nonzero"/></g><g clip-path="url(#3983f2d79d)"><path fill="#6030b1" d="M 102.476562 76.527344 C 102.476562 76.527344 101.3125 62.101562 109.464844 59.023438 C 117.617188 55.945312 123.4375 64.410156 123.4375 64.410156 C 123.4375 64.410156 117.617188 50.558594 102.476562 55.945312 C 102.476562 55.945312 94.324219 60.945312 93.9375 74.796875 C 93.9375 74.796875 96.652344 77.488281 102.476562 76.527344 " fill-opacity="1" fill-rule="nonzero"/></g><path fill="#8651d6" d="M 91.316406 92.757812 L 91.316406 89.191406 L 91.453125 89.253906 C 96.980469 91.707031 112.503906 85.359375 112.660156 85.296875 L 112.734375 85.472656 C 112.101562 85.738281 97.21875 91.820312 91.511719 89.488281 L 91.511719 92.472656 C 92.609375 92.070312 100.3125 89.625 111.953125 95.082031 L 111.871094 95.253906 C 99.417969 89.417969 91.53125 92.667969 91.453125 92.699219 L 91.316406 92.757812 " fill-opacity="1" fill-rule="nonzero"/><g clip-path="url(#b32f48bbe6)"><path fill="#ac74fd" d="M 93.9375 72.992188 L 93.9375 105.582031 L 90.636719 105.5 L 90.636719 72.992188 L 93.9375 72.992188 " fill-opacity="1" fill-rule="nonzero"/></g><g clip-path="url(#72e7909a9d)"><path fill="#8651d6" d="M 90.832031 73.183594 L 90.832031 105.3125 L 93.742188 105.386719 L 93.742188 73.183594 Z M 90.441406 105.6875 L 90.441406 72.796875 L 94.128906 72.796875 L 94.128906 105.78125 L 90.441406 105.6875 " fill-opacity="1" fill-rule="nonzero"/></g><g clip-path="url(#a8918bcdc3)"><path fill="#6030b1" d="M 280.265625 122.253906 C 283.488281 110.609375 284.503906 86.519531 283.984375 78.9375 C 283.128906 66.363281 277.542969 54.488281 274.105469 54.488281 C 270.671875 54.488281 265.375 66.363281 264.230469 78.9375 C 263.539062 86.5 264.867188 110.609375 268.09375 122.253906 C 268.09375 122.253906 268.253906 123.695312 269.867188 123.695312 C 271.15625 123.695312 277.917969 123.695312 278.832031 123.695312 C 279.746094 123.695312 280.265625 122.253906 280.265625 122.253906 " fill-opacity="1" fill-rule="nonzero"/></g><g clip-path="url(#0fe01e3caf)"><path fill="#ac74fd" d="M 280.265625 122.253906 L 280.527344 122.324219 C 281.882812 117.421875 282.847656 110.363281 283.472656 103.246094 C 284.097656 96.128906 284.386719 88.957031 284.386719 83.84375 C 284.386719 81.847656 284.34375 80.167969 284.257812 78.921875 C 283.824219 72.601562 282.207031 66.464844 280.265625 61.894531 C 279.292969 59.605469 278.238281 57.714844 277.195312 56.375 C 276.675781 55.707031 276.15625 55.175781 275.644531 54.804688 C 275.132812 54.4375 274.617188 54.21875 274.105469 54.21875 C 273.59375 54.21875 273.085938 54.4375 272.582031 54.808594 C 271.699219 55.457031 270.800781 56.59375 269.914062 58.109375 C 268.582031 60.382812 267.285156 63.507812 266.222656 67.105469 C 265.160156 70.703125 264.335938 74.769531 263.957031 78.914062 C 263.839844 80.226562 263.78125 82.015625 263.78125 84.148438 C 263.78125 89.289062 264.121094 96.410156 264.800781 103.457031 C 265.476562 110.503906 266.488281 117.472656 267.832031 122.324219 L 268.09375 122.253906 L 267.824219 122.285156 C 267.828125 122.308594 267.871094 122.703125 268.148438 123.121094 C 268.289062 123.332031 268.492188 123.542969 268.773438 123.703125 C 269.058594 123.863281 269.421875 123.964844 269.867188 123.964844 C 271.15625 123.964844 277.917969 123.964844 278.832031 123.964844 C 279.136719 123.964844 279.398438 123.84375 279.609375 123.683594 C 279.921875 123.441406 280.140625 123.109375 280.289062 122.839844 C 280.441406 122.566406 280.515625 122.351562 280.519531 122.34375 L 280.527344 122.324219 L 280.265625 122.253906 L 280.007812 122.164062 L 280.007812 122.167969 C 279.996094 122.195312 279.863281 122.539062 279.640625 122.855469 C 279.53125 123.015625 279.398438 123.167969 279.261719 123.269531 C 279.121094 123.371094 278.980469 123.425781 278.832031 123.425781 C 277.917969 123.425781 271.152344 123.425781 269.867188 123.425781 C 269.503906 123.425781 269.242188 123.347656 269.042969 123.238281 C 268.746094 123.070312 268.578125 122.820312 268.480469 122.601562 C 268.429688 122.496094 268.402344 122.394531 268.382812 122.324219 C 268.375 122.289062 268.371094 122.261719 268.367188 122.246094 L 268.363281 122.226562 L 268.363281 122.222656 L 268.277344 122.234375 L 268.363281 122.226562 L 268.363281 122.222656 L 268.277344 122.234375 L 268.363281 122.226562 L 268.355469 122.183594 C 267.027344 117.390625 266.015625 110.4375 265.339844 103.40625 C 264.667969 96.375 264.324219 89.265625 264.324219 84.148438 C 264.324219 82.027344 264.382812 80.246094 264.5 78.960938 C 265.070312 72.703125 266.675781 66.613281 268.5625 62.097656 C 269.503906 59.84375 270.515625 57.980469 271.492188 56.699219 C 271.980469 56.058594 272.460938 55.5625 272.90625 55.234375 C 273.351562 54.90625 273.761719 54.753906 274.105469 54.753906 C 274.453125 54.753906 274.867188 54.910156 275.320312 55.238281 C 276.117188 55.808594 277.015625 56.898438 277.898438 58.378906 C 279.226562 60.597656 280.542969 63.691406 281.59375 67.253906 C 282.648438 70.820312 283.433594 74.851562 283.714844 78.957031 C 283.796875 80.183594 283.84375 81.855469 283.84375 83.84375 C 283.84375 88.9375 283.554688 96.097656 282.929688 103.199219 C 282.304688 110.300781 281.34375 117.34375 280 122.183594 L 280.265625 122.253906 L 280.007812 122.164062 L 280.265625 122.253906 " fill-opacity="1" fill-rule="nonzero"/></g><path fill="#ac74fd" d="M 274.429688 90.183594 C 274.429688 105.460938 274.117188 117.84375 273.730469 117.84375 C 273.347656 117.84375 273.03125 105.460938 273.03125 90.183594 C 273.03125 74.90625 273.347656 62.523438 273.730469 62.523438 C 274.117188 62.523438 274.429688 74.90625 274.429688 90.183594 " fill-opacity="1" fill-rule="nonzero"/><path fill="#ac74fd" d="M 281.851562 35.527344 C 281.851562 36.027344 281.804688 36.519531 281.703125 37.007812 C 281.605469 37.5 281.457031 37.972656 281.261719 38.433594 C 281.066406 38.894531 280.824219 39.332031 280.539062 39.75 C 280.257812 40.164062 279.933594 40.546875 279.574219 40.898438 C 279.210938 41.253906 278.816406 41.566406 278.394531 41.84375 C 277.96875 42.121094 277.519531 42.355469 277.046875 42.546875 C 276.574219 42.738281 276.085938 42.882812 275.585938 42.980469 C 275.085938 43.074219 274.578125 43.125 274.066406 43.125 C 273.554688 43.125 273.050781 43.074219 272.546875 42.980469 C 272.046875 42.882812 271.558594 42.738281 271.085938 42.546875 C 270.613281 42.355469 270.164062 42.121094 269.742188 41.84375 C 269.316406 41.566406 268.921875 41.253906 268.558594 40.898438 C 268.199219 40.546875 267.875 40.164062 267.59375 39.75 C 267.308594 39.332031 267.066406 38.894531 266.871094 38.433594 C 266.675781 37.972656 266.527344 37.5 266.429688 37.007812 C 266.328125 36.519531 266.28125 36.027344 266.28125 35.527344 C 266.28125 35.027344 266.328125 34.535156 266.429688 34.046875 C 266.527344 33.554688 266.675781 33.082031 266.871094 32.621094 C 267.066406 32.160156 267.308594 31.722656 267.59375 31.308594 C 267.875 30.890625 268.199219 30.507812 268.558594 30.15625 C 268.921875 29.804688 269.316406 29.488281 269.742188 29.210938 C 270.164062 28.933594 270.613281 28.699219 271.085938 28.507812 C 271.558594 28.316406 272.046875 28.175781 272.546875 28.078125 C 273.050781 27.980469 273.554688 27.929688 274.066406 27.929688 C 274.578125 27.929688 275.085938 27.980469 275.585938 28.078125 C 276.085938 28.175781 276.574219 28.316406 277.046875 28.507812 C 277.519531 28.699219 277.96875 28.933594 278.394531 29.210938 C 278.816406 29.488281 279.210938 29.804688 279.574219 30.15625 C 279.933594 30.507812 280.257812 30.890625 280.539062 31.308594 C 280.824219 31.722656 281.066406 32.160156 281.261719 32.621094 C 281.457031 33.082031 281.605469 33.554688 281.703125 34.046875 C 281.804688 34.535156 281.851562 35.027344 281.851562 35.527344 Z M 281.851562 35.527344 " fill-opacity="1" fill-rule="nonzero"/><g clip-path="url(#58228dcda7)"><path fill="#6030b1" d="M 274.066406 26.046875 C 273.839844 26.046875 273.664062 25.871094 273.664062 25.648438 L 273.664062 21.304688 C 273.664062 21.078125 273.839844 20.902344 274.066406 20.902344 C 274.292969 20.902344 274.472656 21.078125 274.472656 21.304688 L 274.472656 25.648438 C 274.472656 25.863281 274.285156 26.046875 274.066406 26.046875 Z M 274.472656 49.75 L 274.472656 45.410156 C 274.472656 45.183594 274.292969 45.007812 274.066406 45.007812 C 273.839844 45.007812 273.664062 45.183594 273.664062 45.410156 L 273.664062 49.75 C 273.664062 49.976562 273.839844 50.152344 274.066406 50.152344 C 274.292969 50.152344 274.472656 49.976562 274.472656 49.75 Z M 264.332031 35.527344 C 264.332031 35.304688 264.152344 35.125 263.925781 35.125 L 259.480469 35.125 C 259.253906 35.125 259.074219 35.304688 259.074219 35.527344 C 259.074219 35.75 259.253906 35.929688 259.480469 35.929688 L 263.925781 35.929688 C 264.152344 35.929688 264.332031 35.75 264.332031 35.527344 Z M 289.058594 35.527344 C 289.058594 35.304688 288.878906 35.125 288.652344 35.125 L 284.207031 35.125 C 283.980469 35.125 283.800781 35.304688 283.800781 35.527344 C 283.800781 35.75 283.980469 35.929688 284.207031 35.929688 L 288.652344 35.929688 C 288.878906 35.929688 289.058594 35.75 289.058594 35.527344 Z M 267.183594 28.820312 C 267.339844 28.660156 267.339844 28.410156 267.175781 28.25 L 264.03125 25.183594 C 263.871094 25.03125 263.621094 25.03125 263.457031 25.191406 C 263.304688 25.351562 263.304688 25.597656 263.464844 25.757812 L 266.613281 28.828125 C 266.691406 28.910156 266.789062 28.941406 266.894531 28.941406 C 267 28.941406 267.105469 28.898438 267.183594 28.820312 Z M 284.667969 45.875 C 284.820312 45.714844 284.820312 45.464844 284.660156 45.304688 L 281.511719 42.234375 C 281.351562 42.082031 281.101562 42.082031 280.941406 42.242188 C 280.785156 42.402344 280.785156 42.652344 280.949219 42.8125 L 284.09375 45.882812 C 284.175781 45.960938 284.269531 45.992188 284.375 45.992188 C 284.480469 45.992188 284.585938 45.953125 284.667969 45.875 Z M 264.03125 45.875 L 267.175781 42.804688 C 267.339844 42.652344 267.339844 42.394531 267.183594 42.234375 C 267.03125 42.074219 266.773438 42.074219 266.613281 42.226562 L 263.464844 45.304688 C 263.304688 45.457031 263.304688 45.714844 263.457031 45.875 C 263.539062 45.953125 263.644531 45.992188 263.75 45.992188 C 263.855469 45.992188 263.949219 45.953125 264.03125 45.875 Z M 281.511719 28.828125 L 284.660156 25.757812 C 284.820312 25.605469 284.820312 25.351562 284.667969 25.191406 C 284.511719 25.03125 284.253906 25.03125 284.09375 25.183594 L 280.949219 28.25 C 280.785156 28.402344 280.785156 28.660156 280.941406 28.820312 C 281.019531 28.898438 281.125 28.941406 281.230469 28.941406 C 281.335938 28.941406 281.441406 28.898438 281.511719 28.828125 Z M 270.332031 26.746094 C 270.53125 26.65625 270.628906 26.425781 270.550781 26.222656 L 269.757812 24.355469 C 269.667969 24.15625 269.433594 24.058594 269.222656 24.140625 C 269.019531 24.226562 268.925781 24.460938 269.003906 24.660156 L 269.796875 26.527344 C 269.863281 26.679688 270.015625 26.777344 270.167969 26.777344 C 270.234375 26.777344 270.28125 26.769531 270.332031 26.746094 Z M 278.902344 46.921875 C 279.105469 46.835938 279.199219 46.601562 279.121094 46.402344 L 278.328125 44.535156 C 278.238281 44.335938 278.003906 44.238281 277.792969 44.320312 C 277.59375 44.40625 277.496094 44.640625 277.574219 44.839844 L 278.367188 46.707031 C 278.433594 46.859375 278.585938 46.953125 278.738281 46.953125 C 278.796875 46.953125 278.851562 46.9375 278.902344 46.921875 Z M 262.917969 40.464844 L 264.832031 39.6875 C 265.042969 39.605469 265.140625 39.367188 265.050781 39.164062 C 264.96875 38.957031 264.726562 38.859375 264.523438 38.949219 L 262.609375 39.726562 C 262.398438 39.808594 262.300781 40.046875 262.390625 40.246094 C 262.457031 40.398438 262.609375 40.496094 262.761719 40.496094 C 262.8125 40.496094 262.867188 40.488281 262.917969 40.464844 Z M 283.601562 32.113281 L 285.515625 31.335938 C 285.726562 31.257812 285.824219 31.015625 285.734375 30.816406 C 285.652344 30.605469 285.410156 30.511719 285.207031 30.597656 L 283.292969 31.375 C 283.082031 31.457031 282.984375 31.695312 283.074219 31.898438 C 283.140625 32.050781 283.292969 32.144531 283.445312 32.144531 C 283.503906 32.136719 283.550781 32.128906 283.601562 32.113281 Z M 278.328125 26.535156 L 279.121094 24.667969 C 279.210938 24.46875 279.113281 24.226562 278.902344 24.148438 C 278.691406 24.058594 278.457031 24.15625 278.367188 24.363281 L 277.574219 26.230469 C 277.488281 26.433594 277.582031 26.671875 277.792969 26.753906 C 277.84375 26.777344 277.898438 26.785156 277.949219 26.785156 C 278.109375 26.777344 278.261719 26.6875 278.328125 26.535156 Z M 269.757812 46.707031 L 270.550781 44.839844 C 270.636719 44.640625 270.542969 44.398438 270.332031 44.320312 C 270.121094 44.230469 269.886719 44.328125 269.796875 44.535156 L 269.003906 46.402344 C 268.914062 46.601562 269.011719 46.84375 269.222656 46.921875 C 269.273438 46.945312 269.328125 46.953125 269.375 46.953125 C 269.539062 46.953125 269.691406 46.859375 269.757812 46.707031 Z M 265.058594 31.890625 C 265.140625 31.679688 265.042969 31.449219 264.839844 31.367188 L 262.925781 30.589844 C 262.714844 30.511719 262.480469 30.605469 262.398438 30.808594 C 262.316406 31.015625 262.414062 31.25 262.617188 31.328125 L 264.535156 32.105469 C 264.582031 32.128906 264.636719 32.136719 264.6875 32.136719 C 264.839844 32.136719 264.996094 32.042969 265.058594 31.890625 Z M 285.742188 40.246094 C 285.824219 40.039062 285.726562 39.808594 285.523438 39.726562 L 283.601562 38.949219 C 283.390625 38.871094 283.15625 38.964844 283.074219 39.164062 C 282.992188 39.375 283.089844 39.605469 283.292969 39.6875 L 285.207031 40.464844 C 285.257812 40.488281 285.3125 40.496094 285.363281 40.496094 C 285.523438 40.496094 285.679688 40.398438 285.742188 40.246094 Z M 285.742188 40.246094 " fill-opacity="1" fill-rule="nonzero"/></g><g clip-path="url(#648c306b64)"><path fill="#6030b1" d="M 223.019531 82.496094 L 223.019531 59.050781 L 242.484375 69.804688 Z M 242.421875 101.234375 L 223.019531 114.953125 L 223.019531 91.796875 Z M 251.851562 69.460938 C 251.8125 68.324219 251.183594 67.296875 250.203125 66.753906 L 221.367188 50.820312 C 220.386719 50.277344 219.195312 50.300781 218.238281 50.878906 C 217.277344 51.460938 216.691406 52.511719 216.691406 53.644531 L 216.691406 121.105469 C 216.691406 122.300781 217.34375 123.398438 218.390625 123.953125 C 218.851562 124.199219 219.351562 124.320312 219.855469 124.320312 C 220.488281 124.320312 221.121094 124.125 221.660156 123.742188 L 250.5 103.355469 C 251.421875 102.703125 251.933594 101.597656 251.84375 100.457031 C 251.753906 99.316406 251.074219 98.3125 250.058594 97.820312 L 227.816406 87.003906 L 250.398438 72.28125 C 251.339844 71.667969 251.894531 70.59375 251.851562 69.460938 " fill-opacity="1" fill-rule="nonzero"/></g><g clip-path="url(#46b6d61b56)"><path fill="#8651d6" d="M 168.09375 50.796875 C 166.890625 50.796875 165.6875 50.855469 164.492188 50.972656 C 163.292969 51.089844 162.105469 51.265625 160.921875 51.503906 C 159.742188 51.738281 158.578125 52.027344 157.425781 52.378906 C 156.273438 52.726562 155.140625 53.132812 154.027344 53.59375 C 152.917969 54.054688 151.832031 54.566406 150.769531 55.136719 C 149.707031 55.703125 148.675781 56.320312 147.675781 56.988281 C 146.675781 57.65625 145.710938 58.375 144.777344 59.136719 C 143.847656 59.902344 142.957031 60.707031 142.105469 61.558594 C 141.253906 62.410156 140.449219 63.300781 139.683594 64.230469 C 138.921875 65.164062 138.203125 66.128906 137.535156 67.128906 C 136.867188 68.128906 136.25 69.160156 135.683594 70.222656 C 135.113281 71.285156 134.601562 72.371094 134.140625 73.480469 C 133.679688 74.59375 133.273438 75.726562 132.925781 76.878906 C 132.574219 78.03125 132.285156 79.195312 132.046875 80.375 C 131.8125 81.558594 131.636719 82.746094 131.519531 83.945312 C 131.402344 85.140625 131.34375 86.34375 131.34375 87.546875 C 131.34375 88.75 131.402344 89.949219 131.519531 91.148438 C 131.636719 92.347656 131.8125 93.535156 132.046875 94.714844 C 132.285156 95.894531 132.574219 97.0625 132.925781 98.214844 C 133.273438 99.367188 133.679688 100.496094 134.140625 101.609375 C 134.601562 102.722656 135.113281 103.808594 135.683594 104.871094 C 136.25 105.929688 136.867188 106.960938 137.535156 107.964844 C 138.203125 108.964844 138.921875 109.929688 139.683594 110.859375 C 140.449219 111.789062 141.253906 112.679688 142.105469 113.53125 C 142.957031 114.382812 143.847656 115.191406 144.777344 115.953125 C 145.710938 116.71875 146.675781 117.433594 147.675781 118.101562 C 148.675781 118.769531 149.707031 119.390625 150.769531 119.957031 C 151.832031 120.523438 152.917969 121.039062 154.027344 121.5 C 155.140625 121.960938 156.273438 122.363281 157.425781 122.714844 C 158.578125 123.0625 159.742188 123.355469 160.921875 123.589844 C 162.105469 123.824219 163.292969 124 164.492188 124.117188 C 165.6875 124.238281 166.890625 124.296875 168.09375 124.296875 C 169.296875 124.296875 170.496094 124.238281 171.695312 124.117188 C 172.890625 124 174.082031 123.824219 175.261719 123.589844 C 176.441406 123.355469 177.609375 123.0625 178.761719 122.714844 C 179.914062 122.363281 181.042969 121.960938 182.15625 121.5 C 183.269531 121.039062 184.355469 120.523438 185.417969 119.957031 C 186.476562 119.390625 187.507812 118.769531 188.511719 118.101562 C 189.511719 117.433594 190.476562 116.71875 191.40625 115.953125 C 192.335938 115.191406 193.226562 114.382812 194.078125 113.53125 C 194.929688 112.679688 195.738281 111.789062 196.5 110.859375 C 197.265625 109.929688 197.980469 108.964844 198.648438 107.964844 C 199.316406 106.960938 199.9375 105.929688 200.503906 104.871094 C 201.070312 103.808594 201.585938 102.722656 202.046875 101.609375 C 202.503906 100.496094 202.910156 99.367188 203.261719 98.214844 C 203.609375 97.0625 203.902344 95.894531 204.136719 94.714844 C 204.371094 93.535156 204.546875 92.347656 204.664062 91.148438 C 204.785156 89.949219 204.84375 88.75 204.84375 87.546875 C 204.84375 86.34375 204.785156 85.140625 204.664062 83.945312 C 204.546875 82.746094 204.371094 81.558594 204.136719 80.375 C 203.902344 79.195312 203.609375 78.03125 203.261719 76.878906 C 202.910156 75.726562 202.503906 74.59375 202.046875 73.480469 C 201.585938 72.371094 201.070312 71.285156 200.503906 70.222656 C 199.9375 69.160156 199.316406 68.128906 198.648438 67.128906 C 197.980469 66.128906 197.265625 65.164062 196.5 64.230469 C 195.738281 63.300781 194.929688 62.410156 194.078125 61.558594 C 193.226562 60.707031 192.335938 59.902344 191.40625 59.136719 C 190.476562 58.375 189.511719 57.65625 188.511719 56.988281 C 187.507812 56.320312 186.476562 55.703125 185.417969 55.136719 C 184.355469 54.566406 183.269531 54.054688 182.15625 53.59375 C 181.042969 53.132812 179.914062 52.726562 178.761719 52.378906 C 177.609375 52.027344 176.441406 51.738281 175.261719 51.503906 C 174.082031 51.265625 172.890625 51.089844 171.695312 50.972656 C 170.496094 50.855469 169.296875 50.796875 168.09375 50.796875 Z M 168.09375 119.394531 C 167.050781 119.394531 166.007812 119.34375 164.972656 119.242188 C 163.933594 119.140625 162.902344 118.988281 161.878906 118.785156 C 160.855469 118.582031 159.84375 118.328125 158.847656 118.023438 C 157.847656 117.722656 156.867188 117.371094 155.902344 116.972656 C 154.941406 116.574219 154 116.125 153.078125 115.636719 C 152.160156 115.144531 151.265625 114.609375 150.398438 114.027344 C 149.53125 113.449219 148.695312 112.828125 147.886719 112.167969 C 147.082031 111.503906 146.308594 110.804688 145.570312 110.066406 C 144.832031 109.328125 144.132812 108.558594 143.472656 107.75 C 142.808594 106.945312 142.191406 106.109375 141.609375 105.242188 C 141.03125 104.375 140.496094 103.480469 140.003906 102.558594 C 139.511719 101.640625 139.066406 100.699219 138.667969 99.734375 C 138.269531 98.769531 137.917969 97.789062 137.613281 96.792969 C 137.3125 95.792969 137.058594 94.78125 136.855469 93.757812 C 136.652344 92.738281 136.5 91.707031 136.394531 90.667969 C 136.292969 89.628906 136.242188 88.589844 136.242188 87.546875 C 136.242188 86.503906 136.292969 85.460938 136.394531 84.425781 C 136.5 83.386719 136.652344 82.355469 136.855469 81.332031 C 137.058594 80.308594 137.3125 79.296875 137.613281 78.300781 C 137.917969 77.300781 138.269531 76.320312 138.667969 75.359375 C 139.066406 74.394531 139.511719 73.453125 140.003906 72.53125 C 140.496094 71.613281 141.03125 70.71875 141.609375 69.851562 C 142.191406 68.984375 142.808594 68.148438 143.472656 67.339844 C 144.132812 66.535156 144.832031 65.761719 145.570312 65.023438 C 146.308594 64.285156 147.082031 63.585938 147.886719 62.925781 C 148.695312 62.265625 149.53125 61.644531 150.398438 61.0625 C 151.265625 60.484375 152.160156 59.949219 153.078125 59.457031 C 154 58.964844 154.941406 58.519531 155.902344 58.121094 C 156.867188 57.722656 157.847656 57.371094 158.847656 57.066406 C 159.84375 56.765625 160.855469 56.511719 161.878906 56.308594 C 162.902344 56.105469 163.933594 55.953125 164.972656 55.847656 C 166.007812 55.746094 167.050781 55.695312 168.09375 55.695312 C 169.136719 55.695312 170.175781 55.746094 171.214844 55.847656 C 172.253906 55.953125 173.28125 56.105469 174.304688 56.308594 C 175.328125 56.511719 176.339844 56.765625 177.339844 57.066406 C 178.335938 57.371094 179.316406 57.722656 180.28125 58.121094 C 181.246094 58.519531 182.1875 58.964844 183.105469 59.457031 C 184.027344 59.949219 184.921875 60.484375 185.789062 61.0625 C 186.65625 61.644531 187.492188 62.265625 188.296875 62.925781 C 189.105469 63.585938 189.875 64.285156 190.613281 65.023438 C 191.351562 65.761719 192.050781 66.535156 192.714844 67.339844 C 193.375 68.148438 193.996094 68.984375 194.574219 69.851562 C 195.15625 70.71875 195.691406 71.613281 196.183594 72.53125 C 196.671875 73.453125 197.117188 74.394531 197.519531 75.359375 C 197.917969 76.320312 198.269531 77.300781 198.570312 78.300781 C 198.875 79.296875 199.128906 80.308594 199.332031 81.332031 C 199.535156 82.355469 199.6875 83.386719 199.789062 84.425781 C 199.890625 85.460938 199.941406 86.503906 199.941406 87.546875 C 199.941406 88.589844 199.890625 89.628906 199.789062 90.667969 C 199.6875 91.707031 199.535156 92.738281 199.332031 93.757812 C 199.128906 94.78125 198.875 95.792969 198.570312 96.792969 C 198.269531 97.789062 197.917969 98.769531 197.519531 99.734375 C 197.117188 100.699219 196.671875 101.640625 196.183594 102.558594 C 195.691406 103.480469 195.15625 104.375 194.574219 105.242188 C 193.996094 106.109375 193.375 106.945312 192.714844 107.75 C 192.050781 108.558594 191.351562 109.328125 190.613281 110.066406 C 189.875 110.804688 189.105469 111.503906 188.296875 112.167969 C 187.492188 112.828125 186.65625 113.449219 185.789062 114.027344 C 184.921875 114.609375 184.027344 115.144531 183.105469 115.636719 C 182.1875 116.125 181.246094 116.574219 180.28125 116.972656 C 179.316406 117.371094 178.335938 117.722656 177.339844 118.023438 C 176.339844 118.328125 175.328125 118.582031 174.304688 118.785156 C 173.28125 118.988281 172.253906 119.140625 171.214844 119.242188 C 170.175781 119.34375 169.136719 119.394531 168.09375 119.394531 Z M 168.09375 119.394531 " fill-opacity="1" fill-rule="nonzero"/></g><path fill="#8651d6" d="M 165.054688 71.253906 C 164.84375 71.007812 164.59375 70.808594 164.304688 70.664062 C 164.015625 70.515625 163.707031 70.429688 163.382812 70.402344 C 163.058594 70.378906 162.742188 70.414062 162.433594 70.515625 C 162.125 70.617188 161.847656 70.773438 161.601562 70.984375 L 144.449219 85.683594 C 144.179688 85.917969 143.96875 86.195312 143.816406 86.519531 C 143.667969 86.847656 143.59375 87.1875 143.59375 87.546875 C 143.59375 87.902344 143.667969 88.246094 143.816406 88.570312 C 143.96875 88.894531 144.179688 89.175781 144.449219 89.40625 L 161.601562 104.109375 C 161.847656 104.320312 162.125 104.476562 162.433594 104.574219 C 162.742188 104.675781 163.058594 104.714844 163.382812 104.6875 C 163.707031 104.664062 164.015625 104.578125 164.304688 104.429688 C 164.59375 104.28125 164.84375 104.085938 165.054688 103.839844 C 165.265625 103.589844 165.421875 103.3125 165.523438 103.003906 C 165.621094 102.695312 165.660156 102.378906 165.636719 102.054688 C 165.609375 101.730469 165.523438 101.425781 165.375 101.136719 C 165.230469 100.84375 165.03125 100.59375 164.785156 100.382812 L 149.816406 87.546875 L 164.785156 74.707031 C 165.03125 74.496094 165.230469 74.246094 165.375 73.957031 C 165.523438 73.667969 165.609375 73.359375 165.636719 73.035156 C 165.660156 72.710938 165.621094 72.394531 165.523438 72.085938 C 165.421875 71.777344 165.265625 71.5 165.054688 71.253906 Z M 165.054688 71.253906 " fill-opacity="1" fill-rule="nonzero"/><path fill="#8651d6" d="M 191.734375 85.683594 L 174.585938 70.984375 C 174.339844 70.773438 174.058594 70.617188 173.75 70.515625 C 173.441406 70.414062 173.125 70.378906 172.800781 70.402344 C 172.476562 70.425781 172.171875 70.515625 171.882812 70.660156 C 171.589844 70.808594 171.339844 71.003906 171.128906 71.253906 C 170.917969 71.5 170.761719 71.777344 170.660156 72.085938 C 170.5625 72.394531 170.523438 72.710938 170.550781 73.035156 C 170.574219 73.359375 170.660156 73.667969 170.808594 73.957031 C 170.957031 74.246094 171.152344 74.496094 171.398438 74.707031 L 186.371094 87.546875 L 171.398438 100.382812 C 171.152344 100.59375 170.957031 100.84375 170.808594 101.136719 C 170.664062 101.425781 170.574219 101.730469 170.550781 102.054688 C 170.527344 102.378906 170.5625 102.695312 170.664062 103.003906 C 170.765625 103.3125 170.921875 103.589844 171.132812 103.835938 C 171.34375 104.085938 171.59375 104.28125 171.882812 104.429688 C 172.171875 104.578125 172.480469 104.664062 172.800781 104.6875 C 173.125 104.714844 173.441406 104.675781 173.75 104.574219 C 174.058594 104.476562 174.339844 104.320312 174.585938 104.109375 L 191.734375 89.40625 C 192.007812 89.175781 192.21875 88.894531 192.367188 88.570312 C 192.519531 88.246094 192.59375 87.902344 192.59375 87.546875 C 192.59375 87.1875 192.519531 86.847656 192.367188 86.519531 C 192.21875 86.195312 192.007812 85.917969 191.734375 85.683594 Z M 191.734375 85.683594 " fill-opacity="1" fill-rule="nonzero"/><g clip-path="url(#662e9c4062)"><path fill="#8651d6" d="M 346.96875 124.367188 L 299.359375 124.367188 C 298.039062 124.367188 296.839844 123.59375 296.277344 122.390625 C 295.71875 121.1875 295.902344 119.765625 296.746094 118.742188 L 320.4375 90.082031 L 296.746094 61.421875 C 295.902344 60.394531 295.71875 58.972656 296.277344 57.769531 C 296.839844 56.566406 298.039062 55.792969 299.359375 55.792969 L 346.96875 55.792969 C 348.84375 55.792969 350.367188 57.328125 350.367188 59.222656 L 350.367188 69.507812 C 350.367188 71.40625 348.84375 72.9375 346.96875 72.9375 C 345.089844 72.9375 343.566406 71.40625 343.566406 69.507812 L 343.566406 62.652344 L 306.621094 62.652344 L 327.476562 87.882812 C 328.527344 89.15625 328.527344 91.003906 327.476562 92.273438 L 306.621094 117.507812 L 343.566406 117.507812 L 343.566406 110.652344 C 343.566406 108.753906 345.089844 107.222656 346.96875 107.222656 C 348.84375 107.222656 350.367188 108.753906 350.367188 110.652344 L 350.367188 120.9375 C 350.367188 122.832031 348.84375 124.367188 346.96875 124.367188 Z M 346.96875 124.367188 " fill-opacity="1" fill-rule="nonzero"/></g></svg>